# RokuSuper Output Ver6.0 for Wavefront Obj

v 0.00000000 -0.21000000 0.00000000
v 0.00000000 -0.26000000 0.00000000
v 0.00000000 -0.26000000 -0.40000001
v 0.00000000 -0.21000000 -0.40000001
v -0.12360680 -0.26000000 -0.38042261
v -0.12360680 -0.21000000 -0.38042261
v -0.23511410 -0.26000000 -0.32360680
v -0.23511410 -0.21000000 -0.32360680
v -0.32360680 -0.26000000 -0.23511410
v -0.32360680 -0.21000000 -0.23511410
v -0.38042261 -0.26000000 -0.12360680
v -0.38042261 -0.21000000 -0.12360680
v -0.40000001 -0.26000000 -0.00000000
v -0.40000001 -0.21000000 -0.00000000
v -0.38042261 -0.26000000 0.12360680
v -0.38042261 -0.21000000 0.12360680
v -0.32360680 -0.26000000 0.23511410
v -0.32360680 -0.21000000 0.23511410
v -0.23511410 -0.26000000 0.32360680
v -0.23511410 -0.21000000 0.32360680
v -0.12360680 -0.26000000 0.38042261
v -0.12360680 -0.21000000 0.38042261
v -0.00000000 -0.26000000 0.40000001
v -0.00000000 -0.21000000 0.40000001
v 0.12360680 -0.26000000 0.38042261
v 0.12360680 -0.21000000 0.38042261
v 0.23511410 -0.26000000 0.32360680
v 0.23511410 -0.21000000 0.32360680
v 0.32360680 -0.26000000 0.23511410
v 0.32360680 -0.21000000 0.23511410
v 0.38042261 -0.26000000 0.12360680
v 0.38042261 -0.21000000 0.12360680
v 0.40000001 -0.26000000 0.00000000
v 0.40000001 -0.21000000 0.00000000
v 0.38042261 -0.26000000 -0.12360680
v 0.38042261 -0.21000000 -0.12360680
v 0.32360680 -0.26000000 -0.23511410
v 0.32360680 -0.21000000 -0.23511410
v 0.23511410 -0.26000000 -0.32360680
v 0.23511410 -0.21000000 -0.32360680
v 0.12360680 -0.26000000 -0.38042261
v 0.12360680 -0.21000000 -0.38042261

vt 0.71823870 0.02447174
vt 0.50000000 0.50000000
vt 0.50000000 0.00000000
vt 0.71823870 0.02447174
vt 0.50000000 0.00000000
vt 1.00000000 0.00000000
vt 0.78176130 0.02447174
vt 1.00000000 0.00000000
vt 1.00000000 0.50000000
vt 0.78176130 0.02447174
vt 0.73314019 0.09549150
vt 0.50000000 0.50000000
vt 0.71823870 0.02447174
vt 0.73314019 0.09549150
vt 0.71823870 0.02447174
vt 0.78176130 0.02447174
vt 0.76685981 0.09549150
vt 0.78176130 0.02447174
vt 1.00000000 0.50000000
vt 0.76685981 0.09549150
vt 0.73772898 0.20610737
vt 0.50000000 0.50000000
vt 0.73314019 0.09549150
vt 0.73772898 0.20610737
vt 0.73314019 0.09549150
vt 0.76685981 0.09549150
vt 0.76227102 0.20610737
vt 0.76685981 0.09549150
vt 1.00000000 0.50000000
vt 0.76227102 0.20610737
vt 0.73955593 0.34549150
vt 0.50000000 0.50000000
vt 0.73772898 0.20610737
vt 0.73955593 0.34549150
vt 0.73772898 0.20610737
vt 0.76227102 0.20610737
vt 0.76044407 0.34549150
vt 0.76227102 0.20610737
vt 1.00000000 0.50000000
vt 0.76044407 0.34549150
vt 0.74006574 0.50000000
vt 0.50000000 0.50000000
vt 0.73955593 0.34549150
vt 0.74006574 0.50000000
vt 0.73955593 0.34549150
vt 0.76044407 0.34549150
vt 0.75993426 0.50000000
vt 0.76044407 0.34549150
vt 1.00000000 0.50000000
vt 0.75993426 0.50000000
vt 0.73955593 0.65450850
vt 0.50000000 0.50000000
vt 0.74006574 0.50000000
vt 0.73955593 0.65450850
vt 0.74006574 0.50000000
vt 0.75993426 0.50000000
vt 0.76044407 0.65450850
vt 0.75993426 0.50000000
vt 1.00000000 0.50000000
vt 0.76044407 0.65450850
vt 0.73772898 0.79389263
vt 0.50000000 0.50000000
vt 0.73955593 0.65450850
vt 0.73772898 0.79389263
vt 0.73955593 0.65450850
vt 0.76044407 0.65450850
vt 0.76227102 0.79389263
vt 0.76044407 0.65450850
vt 1.00000000 0.50000000
vt 0.76227102 0.79389263
vt 0.73314019 0.90450850
vt 0.50000000 0.50000000
vt 0.73772898 0.79389263
vt 0.73314019 0.90450850
vt 0.73772898 0.79389263
vt 0.76227102 0.79389263
vt 0.76685981 0.90450850
vt 0.76227102 0.79389263
vt 1.00000000 0.50000000
vt 0.76685981 0.90450850
vt 0.71823870 0.97552826
vt 0.50000000 0.50000000
vt 0.73314019 0.90450850
vt 0.71823870 0.97552826
vt 0.73314019 0.90450850
vt 0.76685981 0.90450850
vt 0.78176130 0.97552826
vt 0.76685981 0.90450850
vt 1.00000000 0.50000000
vt 0.78176130 0.97552826
vt 0.50000000 1.00000000
vt 0.50000000 0.50000000
vt 0.71823870 0.97552826
vt 0.50000000 1.00000000
vt 0.71823870 0.97552826
vt 0.78176130 0.97552826
vt 1.00000000 1.00000000
vt 0.78176130 0.97552826
vt 1.00000000 0.50000000
vt 1.00000000 1.00000000
vt 0.28176130 0.97552826
vt 0.50000000 0.50000000
vt 0.50000000 1.00000000
vt 1.28176130 0.97552826
vt 0.50000000 1.00000000
vt 1.00000000 1.00000000
vt 1.21823870 0.97552826
vt 1.00000000 1.00000000
vt 1.00000000 0.50000000
vt 1.21823870 0.97552826
vt 0.26685981 0.90450850
vt 0.50000000 0.50000000
vt 0.28176130 0.97552826
vt 0.26685981 0.90450850
vt 0.28176130 0.97552826
vt 0.21823870 0.97552826
vt 0.23314019 0.90450850
vt 0.21823870 0.97552826
vt -0.00000000 0.50000000
vt 0.23314019 0.90450850
vt 0.26227102 0.79389263
vt 0.50000000 0.50000000
vt 0.26685981 0.90450850
vt 0.26227102 0.79389263
vt 0.26685981 0.90450850
vt 0.23314019 0.90450850
vt 0.23772898 0.79389263
vt 0.23314019 0.90450850
vt -0.00000000 0.50000000
vt 0.23772898 0.79389263
vt 0.26044407 0.65450850
vt 0.50000000 0.50000000
vt 0.26227102 0.79389263
vt 0.26044407 0.65450850
vt 0.26227102 0.79389263
vt 0.23772898 0.79389263
vt 0.23955593 0.65450850
vt 0.23772898 0.79389263
vt -0.00000000 0.50000000
vt 0.23955593 0.65450850
vt 0.25993426 0.50000000
vt 0.50000000 0.50000000
vt 0.26044407 0.65450850
vt 0.25993426 0.50000000
vt 0.26044407 0.65450850
vt 0.23955593 0.65450850
vt 0.24006574 0.50000000
vt 0.23955593 0.65450850
vt -0.00000000 0.50000000
vt 0.24006574 0.50000000
vt 0.26044407 0.34549150
vt 0.50000000 0.50000000
vt 0.25993426 0.50000000
vt 0.26044407 0.34549150
vt 0.25993426 0.50000000
vt 0.24006574 0.50000000
vt 0.23955593 0.34549150
vt 0.24006574 0.50000000
vt -0.00000000 0.50000000
vt 0.23955593 0.34549150
vt 0.26227102 0.20610737
vt 0.50000000 0.50000000
vt 0.26044407 0.34549150
vt 0.26227102 0.20610737
vt 0.26044407 0.34549150
vt 0.23955593 0.34549150
vt 0.23772898 0.20610737
vt 0.23955593 0.34549150
vt -0.00000000 0.50000000
vt 0.23772898 0.20610737
vt 0.26685981 0.09549150
vt 0.50000000 0.50000000
vt 0.26227102 0.20610737
vt 0.26685981 0.09549150
vt 0.26227102 0.20610737
vt 0.23772898 0.20610737
vt 0.23314019 0.09549150
vt 0.23772898 0.20610737
vt -0.00000000 0.50000000
vt 0.23314019 0.09549150
vt 0.28176130 0.02447174
vt 0.50000000 0.50000000
vt 0.26685981 0.09549150
vt 0.28176130 0.02447174
vt 0.26685981 0.09549150
vt 0.23314019 0.09549150
vt 0.21823870 0.02447174
vt 0.23314019 0.09549150
vt -0.00000000 0.50000000
vt 0.21823870 0.02447174
vt 0.50000000 0.00000000
vt 0.50000000 0.50000000
vt 0.28176130 0.02447174
vt 0.50000000 0.00000000
vt 0.28176130 0.02447174
vt 0.21823870 0.02447174
vt 0.00000000 0.00000000
vt 0.21823870 0.02447174
vt -0.00000000 0.50000000
vt 0.00000000 0.00000000

vn 0.00000000 1.00000000 0.00000000
vn 0.00000000 1.00000000 0.00000000
vn 0.00000000 1.00000000 0.00000000
vn -0.25844621 0.00000000 -0.96602565
vn 0.05272139 0.00000000 -0.99860926
vn -0.05272139 0.00000000 -0.99860926
vn -0.35872825 0.00000000 -0.93344204
vn 0.00000000 -1.00000000 0.00000000
vn 0.00000000 -1.00000000 0.00000000
vn 0.00000000 -1.00000000 0.00000000
vn 0.00000000 1.00000000 0.00000000
vn 0.00000000 1.00000000 0.00000000
vn 0.00000000 1.00000000 0.00000000
vn -0.54431530 0.00000000 -0.83888072
vn -0.25844621 0.00000000 -0.96602565
vn -0.35872825 0.00000000 -0.93344204
vn -0.62962030 0.00000000 -0.77690301
vn 0.00000000 -1.00000000 0.00000000
vn 0.00000000 -1.00000000 0.00000000
vn 0.00000000 -1.00000000 0.00000000
vn 0.00000000 1.00000000 0.00000000
vn 0.00000000 1.00000000 0.00000000
vn 0.00000000 1.00000000 0.00000000
vn -0.77690301 0.00000000 -0.62962030
vn -0.54431530 0.00000000 -0.83888072
vn -0.62962030 0.00000000 -0.77690301
vn -0.83888072 0.00000000 -0.54431530
vn 0.00000000 -1.00000000 0.00000000
vn 0.00000000 -1.00000000 0.00000000
vn 0.00000000 -1.00000000 0.00000000
vn 0.00000000 1.00000000 0.00000000
vn 0.00000000 1.00000000 0.00000000
vn 0.00000000 1.00000000 0.00000000
vn -0.93344204 0.00000000 -0.35872825
vn -0.77690301 0.00000000 -0.62962030
vn -0.83888072 0.00000000 -0.54431530
vn -0.96602565 0.00000000 -0.25844621
vn 0.00000000 -1.00000000 0.00000000
vn 0.00000000 -1.00000000 0.00000000
vn 0.00000000 -1.00000000 0.00000000
vn 0.00000000 1.00000000 0.00000000
vn 0.00000000 1.00000000 0.00000000
vn 0.00000000 1.00000000 0.00000000
vn -0.99860926 0.00000000 -0.05272139
vn -0.93344204 0.00000000 -0.35872825
vn -0.96602565 0.00000000 -0.25844621
vn -0.99860926 0.00000000 0.05272139
vn 0.00000000 -1.00000000 0.00000000
vn 0.00000000 -1.00000000 0.00000000
vn 0.00000000 -1.00000000 0.00000000
vn 0.00000000 1.00000000 0.00000000
vn 0.00000000 1.00000000 0.00000000
vn 0.00000000 1.00000000 0.00000000
vn -0.96602565 0.00000000 0.25844621
vn -0.99860926 0.00000000 -0.05272139
vn -0.99860926 0.00000000 0.05272139
vn -0.93344204 0.00000000 0.35872825
vn 0.00000000 -1.00000000 0.00000000
vn 0.00000000 -1.00000000 0.00000000
vn 0.00000000 -1.00000000 0.00000000
vn 0.00000000 1.00000000 0.00000000
vn 0.00000000 1.00000000 0.00000000
vn 0.00000000 1.00000000 0.00000000
vn -0.83888072 0.00000000 0.54431530
vn -0.96602565 0.00000000 0.25844621
vn -0.93344204 0.00000000 0.35872825
vn -0.77690301 0.00000000 0.62962030
vn 0.00000000 -1.00000000 0.00000000
vn 0.00000000 -1.00000000 0.00000000
vn 0.00000000 -1.00000000 0.00000000
vn 0.00000000 1.00000000 0.00000000
vn 0.00000000 1.00000000 0.00000000
vn 0.00000000 1.00000000 0.00000000
vn -0.62962030 0.00000000 0.77690301
vn -0.83888072 0.00000000 0.54431530
vn -0.77690301 0.00000000 0.62962030
vn -0.54431530 0.00000000 0.83888072
vn 0.00000000 -1.00000000 0.00000000
vn 0.00000000 -1.00000000 0.00000000
vn 0.00000000 -1.00000000 0.00000000
vn 0.00000000 1.00000000 0.00000000
vn 0.00000000 1.00000000 0.00000000
vn 0.00000000 1.00000000 0.00000000
vn -0.35872825 0.00000000 0.93344204
vn -0.62962030 0.00000000 0.77690301
vn -0.54431530 0.00000000 0.83888072
vn -0.25844621 0.00000000 0.96602565
vn 0.00000000 -1.00000000 0.00000000
vn 0.00000000 -1.00000000 0.00000000
vn 0.00000000 -1.00000000 0.00000000
vn 0.00000000 1.00000000 0.00000000
vn 0.00000000 1.00000000 0.00000000
vn 0.00000000 1.00000000 0.00000000
vn -0.05272139 0.00000000 0.99860926
vn -0.35872825 0.00000000 0.93344204
vn -0.25844621 0.00000000 0.96602565
vn 0.05272139 0.00000000 0.99860926
vn 0.00000000 -1.00000000 0.00000000
vn 0.00000000 -1.00000000 0.00000000
vn 0.00000000 -1.00000000 0.00000000
vn 0.00000000 1.00000000 0.00000000
vn 0.00000000 1.00000000 0.00000000
vn 0.00000000 1.00000000 0.00000000
vn 0.25844621 0.00000000 0.96602565
vn -0.05272139 0.00000000 0.99860926
vn 0.05272139 0.00000000 0.99860926
vn 0.35872825 0.00000000 0.93344204
vn 0.00000000 -1.00000000 0.00000000
vn 0.00000000 -1.00000000 0.00000000
vn 0.00000000 -1.00000000 0.00000000
vn 0.00000000 1.00000000 0.00000000
vn 0.00000000 1.00000000 0.00000000
vn 0.00000000 1.00000000 0.00000000
vn 0.54431530 0.00000000 0.83888072
vn 0.25844621 0.00000000 0.96602565
vn 0.35872825 0.00000000 0.93344204
vn 0.62962030 0.00000000 0.77690301
vn 0.00000000 -1.00000000 0.00000000
vn 0.00000000 -1.00000000 0.00000000
vn 0.00000000 -1.00000000 0.00000000
vn 0.00000000 1.00000000 0.00000000
vn 0.00000000 1.00000000 0.00000000
vn 0.00000000 1.00000000 0.00000000
vn 0.77690301 0.00000000 0.62962030
vn 0.54431530 0.00000000 0.83888072
vn 0.62962030 0.00000000 0.77690301
vn 0.83888072 0.00000000 0.54431530
vn 0.00000000 -1.00000000 0.00000000
vn 0.00000000 -1.00000000 0.00000000
vn 0.00000000 -1.00000000 0.00000000
vn 0.00000000 1.00000000 0.00000000
vn 0.00000000 1.00000000 0.00000000
vn 0.00000000 1.00000000 0.00000000
vn 0.93344204 0.00000000 0.35872825
vn 0.77690301 0.00000000 0.62962030
vn 0.83888072 0.00000000 0.54431530
vn 0.96602565 0.00000000 0.25844621
vn 0.00000000 -1.00000000 0.00000000
vn 0.00000000 -1.00000000 0.00000000
vn 0.00000000 -1.00000000 0.00000000
vn 0.00000000 1.00000000 0.00000000
vn 0.00000000 1.00000000 0.00000000
vn 0.00000000 1.00000000 0.00000000
vn 0.99860926 0.00000000 0.05272139
vn 0.93344204 0.00000000 0.35872825
vn 0.96602565 0.00000000 0.25844621
vn 0.99860926 0.00000000 -0.05272139
vn 0.00000000 -1.00000000 0.00000000
vn 0.00000000 -1.00000000 0.00000000
vn 0.00000000 -1.00000000 0.00000000
vn 0.00000000 1.00000000 0.00000000
vn 0.00000000 1.00000000 0.00000000
vn 0.00000000 1.00000000 0.00000000
vn 0.96602565 0.00000000 -0.25844621
vn 0.99860926 0.00000000 0.05272139
vn 0.99860926 0.00000000 -0.05272139
vn 0.93344204 0.00000000 -0.35872825
vn 0.00000000 -1.00000000 0.00000000
vn 0.00000000 -1.00000000 0.00000000
vn 0.00000000 -1.00000000 0.00000000
vn 0.00000000 1.00000000 0.00000000
vn 0.00000000 1.00000000 0.00000000
vn 0.00000000 1.00000000 0.00000000
vn 0.83888072 0.00000000 -0.54431530
vn 0.96602565 0.00000000 -0.25844621
vn 0.93344204 0.00000000 -0.35872825
vn 0.77690301 0.00000000 -0.62962030
vn 0.00000000 -1.00000000 0.00000000
vn 0.00000000 -1.00000000 0.00000000
vn 0.00000000 -1.00000000 0.00000000
vn 0.00000000 1.00000000 0.00000000
vn 0.00000000 1.00000000 0.00000000
vn 0.00000000 1.00000000 0.00000000
vn 0.62962030 0.00000000 -0.77690301
vn 0.83888072 0.00000000 -0.54431530
vn 0.77690301 0.00000000 -0.62962030
vn 0.54431530 0.00000000 -0.83888072
vn 0.00000000 -1.00000000 0.00000000
vn 0.00000000 -1.00000000 0.00000000
vn 0.00000000 -1.00000000 0.00000000
vn 0.00000000 1.00000000 0.00000000
vn 0.00000000 1.00000000 0.00000000
vn 0.00000000 1.00000000 0.00000000
vn 0.35872825 0.00000000 -0.93344204
vn 0.62962030 0.00000000 -0.77690301
vn 0.54431530 0.00000000 -0.83888072
vn 0.25844621 0.00000000 -0.96602565
vn 0.00000000 -1.00000000 0.00000000
vn 0.00000000 -1.00000000 0.00000000
vn 0.00000000 -1.00000000 0.00000000
vn 0.00000000 1.00000000 0.00000000
vn 0.00000000 1.00000000 0.00000000
vn 0.00000000 1.00000000 0.00000000
vn 0.05272139 0.00000000 -0.99860926
vn 0.35872825 0.00000000 -0.93344204
vn 0.25844621 0.00000000 -0.96602565
vn -0.05272139 0.00000000 -0.99860926
vn 0.00000000 -1.00000000 0.00000000
vn 0.00000000 -1.00000000 0.00000000
vn 0.00000000 -1.00000000 0.00000000

g Tiger-I_Sprocket_Collider_In
f 6/1/1 1/2/2 4/3/3
f 6/4/4 4/5/5 3/6/6 5/7/7
f 3/8/8 2/9/9 5/10/10
f 8/11/11 1/12/12 6/13/13
f 8/14/14 6/15/15 5/16/16 7/17/17
f 5/18/18 2/19/19 7/20/20
f 10/21/21 1/22/22 8/23/23
f 10/24/24 8/25/25 7/26/26 9/27/27
f 7/28/28 2/29/29 9/30/30
f 12/31/31 1/32/32 10/33/33
f 12/34/34 10/35/35 9/36/36 11/37/37
f 9/38/38 2/39/39 11/40/40
f 14/41/41 1/42/42 12/43/43
f 14/44/44 12/45/45 11/46/46 13/47/47
f 11/48/48 2/49/49 13/50/50
f 16/51/51 1/52/52 14/53/53
f 16/54/54 14/55/55 13/56/56 15/57/57
f 13/58/58 2/59/59 15/60/60
f 18/61/61 1/62/62 16/63/63
f 18/64/64 16/65/65 15/66/66 17/67/67
f 15/68/68 2/69/69 17/70/70
f 20/71/71 1/72/72 18/73/73
f 20/74/74 18/75/75 17/76/76 19/77/77
f 17/78/78 2/79/79 19/80/80
f 22/81/81 1/82/82 20/83/83
f 22/84/84 20/85/85 19/86/86 21/87/87
f 19/88/88 2/89/89 21/90/90
f 24/91/91 1/92/92 22/93/93
f 24/94/94 22/95/95 21/96/96 23/97/97
f 21/98/98 2/99/99 23/100/100
f 26/101/101 1/102/102 24/103/103
f 26/104/104 24/105/105 23/106/106 25/107/107
f 23/108/108 2/109/109 25/110/110
f 28/111/111 1/112/112 26/113/113
f 28/114/114 26/115/115 25/116/116 27/117/117
f 25/118/118 2/119/119 27/120/120
f 30/121/121 1/122/122 28/123/123
f 30/124/124 28/125/125 27/126/126 29/127/127
f 27/128/128 2/129/129 29/130/130
f 32/131/131 1/132/132 30/133/133
f 32/134/134 30/135/135 29/136/136 31/137/137
f 29/138/138 2/139/139 31/140/140
f 34/141/141 1/142/142 32/143/143
f 34/144/144 32/145/145 31/146/146 33/147/147
f 31/148/148 2/149/149 33/150/150
f 36/151/151 1/152/152 34/153/153
f 36/154/154 34/155/155 33/156/156 35/157/157
f 33/158/158 2/159/159 35/160/160
f 38/161/161 1/162/162 36/163/163
f 38/164/164 36/165/165 35/166/166 37/167/167
f 35/168/168 2/169/169 37/170/170
f 40/171/171 1/172/172 38/173/173
f 40/174/174 38/175/175 37/176/176 39/177/177
f 37/178/178 2/179/179 39/180/180
f 42/181/181 1/182/182 40/183/183
f 42/184/184 40/185/185 39/186/186 41/187/187
f 39/188/188 2/189/189 41/190/190
f 4/191/191 1/192/192 42/193/193
f 4/194/194 42/195/195 41/196/196 3/197/197
f 41/198/198 2/199/199 3/200/200

