# RokuSuper Output Ver6.0 for Wavefront Obj

v 0.64268953 1.92180003 -1.35584983
v -0.64268953 1.92180003 -1.35584983
v -0.64268953 1.08718002 -1.35584983
v 0.64268953 1.08718002 -1.35584983
v 0.44181942 1.08718002 -1.45428095
v -0.44181942 1.08718002 -1.45428095
v -0.00000000 1.08718002 -1.52425827
v -0.00000000 1.92180003 -1.52425827
v -0.44181942 1.92180003 -1.45428095
v 0.44181942 1.92180003 -1.45428095
v 0.84928330 1.76422646 1.26109777
v 1.09015582 1.92179942 0.35421250
v 1.09015582 1.08717913 -0.35421370
v 1.14625766 1.08717913 -0.00000060
v -1.09015582 1.08717913 0.35421250
v -1.14625766 1.08717913 -0.00000060
v -1.09015582 1.08717913 -0.35421370
v 1.09015582 1.08717913 0.35421250
v 0.00000000 1.92179942 -0.00000060
v -1.09015582 1.92179942 -0.35421370
v -1.14625766 1.92179942 -0.00000060
v -1.09015582 1.92179942 0.35421250
v 1.14625766 1.92179942 -0.00000060
v 1.09015582 1.92179942 -0.35421370
v 0.84928330 1.08718002 1.26109777
v -0.84928330 1.08718002 1.26109777
v -0.84928330 1.76422646 1.26109777

vt 0.10861168 0.42007002
vt 0.26926126 0.06046209
vt 0.26926126 0.06046209
vt 0.10861168 0.42007002
vt 0.73073874 0.06046209
vt 0.73073874 0.06046209
vt 0.89138832 0.42007002
vt 0.89138832 0.42007002
vt 0.73073874 0.06046209
vt 0.73073874 0.06046209
vt 0.65862224 0.02512329
vt 0.65862224 0.02512329
vt 0.34137776 0.02512329
vt 0.34137776 0.02512329
vt 0.26926126 0.06046209
vt 0.26926126 0.06046209
vt 0.50000000 0.00000000
vt 0.65862224 0.02512329
vt 0.65862224 0.02512329
vt 0.50000000 0.00000000
vt 0.34137776 0.02512329
vt 0.34137776 0.02512329
vt 0.50000000 0.00000000
vt 0.50000000 0.00000000
vt 0.19508986 1.00000000
vt 0.80491014 1.00000000
vt 0.80491014 1.00000000
vt 0.19508986 1.00000000
vt 0.80491014 1.00000000
vt 0.80491014 1.00000000
vt 0.89138832 0.67440957
vt 0.89138832 0.67440957
vt 0.10861168 0.67440957
vt 0.19508986 1.00000000
vt 0.19508986 1.00000000
vt 0.10861168 0.67440957
vt 0.10861168 0.67440957
vt 0.19508986 1.00000000
vt 0.80491014 1.00000000
vt 0.89138832 0.67440957
vt 0.50000000 0.54723980
vt 0.26926126 0.06046209
vt 0.34137776 0.02512329
vt 0.50000000 0.54723980
vt 0.65862224 0.02512329
vt 0.73073874 0.06046209
vt 0.89138832 0.67440957
vt 0.80491014 1.00000000
vt 0.19508986 1.00000000
vt 0.10861168 0.67440957
vt 0.89138832 0.67440957
vt 0.10861168 0.67440957
vt 0.50000000 0.54723980
vt 0.89138832 0.42007002
vt 0.91153003 0.54723980
vt 0.91153003 0.54723980
vt 0.89138832 0.42007002
vt 0.91153003 0.54723980
vt 0.89138832 0.67440957
vt 0.89138832 0.67440957
vt 0.91153003 0.54723980
vt 0.10861168 0.67440957
vt 0.08846997 0.54723980
vt 0.08846997 0.54723980
vt 0.10861168 0.67440957
vt 0.08846997 0.54723980
vt 0.10861168 0.42007002
vt 0.10861168 0.42007002
vt 0.08846997 0.54723980
vt 0.65862224 0.02512329
vt 0.50000000 0.54723980
vt 0.50000000 0.00000000
vt 0.89138832 0.42007002
vt 0.50000000 0.54723980
vt 0.73073874 0.06046209
vt 0.91153003 0.54723980
vt 0.50000000 0.54723980
vt 0.89138832 0.42007002
vt 0.89138832 0.67440957
vt 0.50000000 0.54723980
vt 0.91153003 0.54723980
vt 0.08846997 0.54723980
vt 0.50000000 0.54723980
vt 0.10861168 0.67440957
vt 0.10861168 0.42007002
vt 0.50000000 0.54723980
vt 0.08846997 0.54723980
vt 0.26926126 0.06046209
vt 0.50000000 0.54723980
vt 0.10861168 0.42007002
vt 0.50000000 0.00000000
vt 0.50000000 0.54723980
vt 0.34137776 0.02512329
vt 0.65862224 0.02512329
vt 0.50000000 0.00000000
vt 0.34137776 0.02512329
vt 0.26926126 0.06046209
vt 0.73073874 0.06046209
vt 0.65862224 0.02512329
vt 0.34137776 0.02512329
vt 0.26926126 0.06046209
vt 0.10861168 0.42007002
vt 0.89138832 0.42007002
vt 0.73073874 0.06046209
vt 0.89138832 0.67440957
vt 0.91153003 0.54723980
vt 0.08846997 0.54723980
vt 0.10861168 0.67440957
vt 0.08846997 0.54723980
vt 0.91153003 0.54723980
vt 0.89138832 0.42007002
vt 0.10861168 0.42007002

vn 0.94517169 0.00000000 -0.32657386
vn 0.91303358 0.00000000 -0.40788439
vn 0.91303358 0.00000000 -0.40788439
vn 0.97024905 0.00000000 -0.24210904
vn -0.91303358 0.00000000 -0.40788439
vn -0.91303358 0.00000000 -0.40788439
vn -0.95864108 0.00000000 -0.28461777
vn -0.95864108 0.00000000 -0.28461777
vn -0.44003241 0.00000000 -0.89798189
vn -0.44003241 0.00000000 -0.89798189
vn -0.30158746 0.00000000 -0.95343852
vn -0.30158746 0.00000000 -0.95343852
vn 0.34894714 0.00000000 -0.93714241
vn 0.25347125 0.00000000 -0.96734292
vn 0.44003241 0.00000000 -0.89798189
vn 0.44003241 0.00000000 -0.89798189
vn 0.00000000 0.00000000 -1.00000000
vn -0.30158746 0.00000000 -0.95343852
vn -0.30158746 0.00000000 -0.95343852
vn 0.00000000 0.00000000 -1.00000000
vn 0.25347125 0.00000000 -0.96734292
vn 0.34894714 0.00000000 -0.93714241
vn 0.00000000 0.00000000 -1.00000000
vn 0.00000000 0.00000000 -1.00000000
vn -0.00000000 -0.00000000 1.00000000
vn -0.00000000 -0.00000000 1.00000000
vn -0.00000000 -0.00000000 1.00000000
vn -0.00000000 -0.00000000 1.00000000
vn -0.96649012 0.00000000 0.25670382
vn -0.96649012 0.00000000 0.25670382
vn -0.97837459 0.00000000 0.20684089
vn -0.97837459 -0.00000000 0.20684089
vn 0.97469436 -0.00000000 0.22354174
vn 0.96649012 -0.00000000 0.25670382
vn 0.96649012 -0.00000000 0.25670382
vn 0.98176869 -0.00000000 0.19007954
vn 0.00000000 -1.00000000 0.00000098
vn 0.00000000 -1.00000000 0.00000098
vn 0.00000000 -1.00000000 0.00000098
vn 0.00000000 -1.00000000 0.00000098
vn 0.00000000 1.00000000 0.00000024
vn -0.00000000 1.00000000 0.00000045
vn -0.00000012 1.00000000 0.00000038
vn 0.00000000 1.00000000 0.00000024
vn 0.00000012 1.00000000 0.00000038
vn 0.00000000 1.00000000 0.00000045
vn -0.00000000 0.98523856 0.17118698
vn -0.00000000 0.98523856 0.17118698
vn -0.00000000 0.98523856 0.17118698
vn -0.00000000 0.98523856 0.17118698
vn 0.00000000 1.00000000 -0.00000000
vn 0.00000000 1.00000000 -0.00000000
vn 0.00000000 1.00000000 0.00000024
vn -0.95864108 0.00000000 -0.28461777
vn -0.99860926 0.00000000 0.05272139
vn -0.99860926 0.00000000 -0.05272139
vn -0.95864108 0.00000000 -0.28461777
vn -0.99860926 0.00000000 0.05272139
vn -0.97837459 -0.00000000 0.20684089
vn -0.97837459 0.00000000 0.20684089
vn -0.99860926 0.00000000 -0.05272139
vn 0.98176869 -0.00000000 0.19007954
vn 0.99860926 -0.00000000 -0.05272139
vn 0.99860926 -0.00000000 0.05272139
vn 0.97469436 -0.00000000 0.22354174
vn 0.99860926 -0.00000000 -0.05272139
vn 0.94517169 0.00000000 -0.32657386
vn 0.97024905 0.00000000 -0.24210904
vn 0.99860926 -0.00000000 0.05272139
vn 0.00000012 1.00000000 0.00000038
vn 0.00000000 1.00000000 0.00000024
vn 0.00000000 1.00000000 0.00000040
vn -0.00000009 1.00000000 0.00000027
vn 0.00000000 1.00000000 0.00000024
vn 0.00000000 1.00000000 0.00000045
vn 0.00000000 1.00000000 -0.00000000
vn 0.00000000 1.00000000 0.00000024
vn -0.00000009 1.00000000 0.00000027
vn 0.00000000 1.00000000 -0.00000000
vn 0.00000000 1.00000000 0.00000024
vn 0.00000000 1.00000000 -0.00000000
vn 0.00000000 1.00000000 -0.00000000
vn 0.00000000 1.00000000 0.00000024
vn 0.00000000 1.00000000 -0.00000000
vn 0.00000009 1.00000000 0.00000027
vn 0.00000000 1.00000000 0.00000024
vn 0.00000000 1.00000000 -0.00000000
vn -0.00000000 1.00000000 0.00000045
vn 0.00000000 1.00000000 0.00000024
vn 0.00000009 1.00000000 0.00000027
vn 0.00000000 1.00000000 0.00000040
vn 0.00000000 1.00000000 0.00000024
vn -0.00000012 1.00000000 0.00000038
vn 0.00000000 -1.00000000 0.00000000
vn 0.00000000 -1.00000000 0.00000000
vn 0.00000000 -1.00000000 0.00000000
vn 0.00000000 -1.00000000 -0.00000044
vn 0.00000000 -1.00000000 -0.00000044
vn 0.00000000 -1.00000000 0.00000000
vn 0.00000000 -1.00000000 0.00000000
vn 0.00000000 -1.00000000 -0.00000044
vn 0.00000000 -1.00000000 -0.00000044
vn 0.00000000 -1.00000000 -0.00000044
vn 0.00000000 -1.00000000 -0.00000044
vn 0.00000000 -1.00000000 0.00000000
vn 0.00000000 -1.00000000 0.00000000
vn 0.00000000 -1.00000000 0.00000000
vn 0.00000000 -1.00000000 0.00000000
vn 0.00000000 -1.00000000 0.00000000
vn 0.00000000 -1.00000000 0.00000000
vn 0.00000000 -1.00000000 -0.00000044
vn 0.00000000 -1.00000000 -0.00000044

g Tiger-I_Turret_Collider
f 13/1/1 4/2/2 1/3/3 24/4/4
f 2/5/5 3/6/6 17/7/7 20/8/8
f 3/9/9 2/10/10 9/11/11 6/12/12
f 5/13/13 10/14/14 1/15/15 4/16/16
f 7/17/17 6/18/18 9/19/19 8/20/20
f 10/21/21 5/22/22 7/23/23 8/24/24
f 11/25/25 27/26/26 26/27/27 25/28/28
f 26/29/29 27/30/30 22/31/31 15/32/32
f 12/33/33 11/34/34 25/35/35 18/36/36
f 18/37/37 25/38/38 26/39/39 15/40/40
f 19/41/41 1/42/42 10/43/43
f 19/44/44 9/45/45 2/46/46
f 22/47/47 27/48/48 11/49/49 12/50/50
f 22/51/51 12/52/52 19/53/53
f 17/54/54 16/55/55 21/56/56 20/57/57
f 16/58/58 15/59/59 22/60/60 21/61/61
f 18/62/62 14/63/63 23/64/64 12/65/65
f 14/66/66 13/67/67 24/68/68 23/69/69
f 9/70/70 19/71/71 8/72/72
f 20/73/73 19/74/74 2/75/75
f 21/76/76 19/77/77 20/78/78
f 22/79/79 19/80/80 21/81/81
f 23/82/82 19/83/83 12/84/84
f 24/85/85 19/86/86 23/87/87
f 1/88/88 19/89/89 24/90/90
f 8/91/91 19/92/92 10/93/93
f 6/94/94 7/95/95 5/96/96
f 4/97/97 3/98/98 6/99/99 5/100/100
f 4/101/101 13/102/102 17/103/103 3/104/104
f 15/105/105 16/106/106 14/107/107 18/108/108
f 14/109/109 16/110/110 17/111/111 13/112/112

