# RokuSuper Output Ver6.0 for Wavefront Obj

v 1.00000001 -0.25031457 -2.36605486
v 1.00000001 0.01798301 -2.62332652
v 1.00000001 0.51458003 -2.68069124
v 1.00000001 -0.01510262 2.97289781
v 1.00000001 0.48688433 3.15911484
v 1.00000001 -0.25031457 2.67569359
v 1.00000001 0.70272210 2.25888603
v -1.00000001 0.48688433 3.15911484
v -1.00000001 -0.01510262 2.97289781
v -1.00000001 -0.25031457 2.67569359
v -1.00000001 0.70272210 2.25888603
v -1.00000001 0.51458003 -2.68069124
v -1.00000001 0.01798301 -2.62332652
v -1.00000001 -0.25031457 -2.36605486

vt 0.67123857 0.84584611
vt 0.32876143 0.84584611
vt 0.32876143 0.00000000
vt 0.67123857 0.00000000
vt 0.32876143 0.00000000
vt 0.32876143 0.84584611
vt 0.32876143 0.91721964
vt 0.32876143 0.05387788
vt 0.32876143 0.00982305
vt 0.32876143 0.00000000
vt 0.32876143 0.91721964
vt 0.32876143 0.96811246
vt 0.32876143 0.91721964
vt 0.32876143 0.84584611
vt 0.32876143 1.00000000
vt 0.32876143 1.00000000
vt 0.32876143 0.84584611
vt 0.67123857 0.84584611
vt 0.67123857 1.00000000
vt 0.32876143 0.96811246
vt 0.32876143 1.00000000
vt 0.67123857 1.00000000
vt 0.67123857 0.96811246
vt 0.32876143 0.91721964
vt 0.32876143 0.96811246
vt 0.67123857 0.96811246
vt 0.67123857 0.91721964
vt 0.67123857 0.00982305
vt 0.67123857 0.00000000
vt 0.32876143 0.00000000
vt 0.32876143 0.00982305
vt 0.67123857 0.05387788
vt 0.67123857 0.00982305
vt 0.32876143 0.00982305
vt 0.32876143 0.05387788
vt 0.32876143 0.05387788
vt 0.32876143 0.91721964
vt 0.67123857 0.91721964
vt 0.67123857 0.05387788
vt 0.67123857 0.96811246
vt 0.67123857 1.00000000
vt 0.67123857 0.84584611
vt 0.67123857 0.91721964
vt 0.67123857 0.05387788
vt 0.67123857 0.91721964
vt 0.67123857 0.00000000
vt 0.67123857 0.00982305
vt 0.67123857 0.84584611
vt 0.67123857 0.00000000
vt 0.67123857 0.91721964

vn 0.00000000 0.99927541 -0.03806110
vn 0.00000000 0.99927541 -0.03806110
vn 0.00000000 0.99927541 -0.03806110
vn 0.00000000 0.99927541 -0.03806110
vn 1.00000000 -0.00000000 -0.00000000
vn 1.00000000 -0.00000000 0.00000000
vn 1.00000000 -0.00000000 0.00000000
vn 1.00000000 -0.00000000 -0.00000000
vn 1.00000000 -0.00000000 -0.00000000
vn 1.00000000 -0.00000000 -0.00000000
vn 1.00000000 -0.00000000 0.00000000
vn 1.00000000 -0.00000000 0.00000000
vn 1.00000000 -0.00000000 0.00000000
vn 1.00000000 -0.00000000 0.00000000
vn 1.00000000 -0.00000000 -0.00000000
vn 0.00000000 0.97244051 0.23315115
vn 0.00000000 0.97244051 0.23315115
vn 0.00000000 0.97244051 0.23315115
vn 0.00000000 0.97244051 0.23315115
vn 0.00000000 -0.34780036 0.93756862
vn 0.00000000 -0.34780036 0.93756862
vn 0.00000000 -0.34780036 0.93756862
vn 0.00000000 -0.34780036 0.93756862
vn 0.00000000 -0.78414176 0.62058175
vn 0.00000000 -0.78414176 0.62058175
vn 0.00000000 -0.78414176 0.62058175
vn 0.00000000 -0.78414176 0.62058175
vn 0.00000000 -0.11475254 -0.99339411
vn 0.00000000 -0.11475254 -0.99339411
vn 0.00000000 -0.11475254 -0.99339411
vn 0.00000000 -0.11475254 -0.99339411
vn 0.00000000 -0.69212010 -0.72178235
vn 0.00000000 -0.69212010 -0.72178235
vn 0.00000000 -0.69212010 -0.72178235
vn 0.00000000 -0.69212010 -0.72178235
vn 0.00000000 -1.00000000 -0.00000000
vn 0.00000000 -1.00000000 -0.00000000
vn 0.00000000 -1.00000000 -0.00000000
vn 0.00000000 -1.00000000 -0.00000000
vn -1.00000000 -0.00000000 0.00000000
vn -1.00000000 -0.00000000 -0.00000000
vn -1.00000000 -0.00000000 0.00000000
vn -1.00000000 -0.00000000 0.00000000
vn -1.00000000 -0.00000000 -0.00000000
vn -1.00000000 -0.00000000 0.00000000
vn -1.00000000 -0.00000000 -0.00000000
vn -1.00000000 -0.00000000 -0.00000000
vn -1.00000000 -0.00000000 0.00000000
vn -1.00000000 -0.00000000 -0.00000000
vn -1.00000000 -0.00000000 0.00000000

g Tiger-I_Body_Collider_Lower
f 11/1/1 7/2/2 3/3/3 12/4/4
f 3/5/5 7/6/6 6/7/7
f 1/8/8 2/9/9 3/10/10 6/11/11
f 4/12/12 6/13/13 7/14/14 5/15/15
f 5/16/16 7/17/17 11/18/18 8/19/19
f 4/20/20 5/21/21 8/22/22 9/23/23
f 6/24/24 4/25/25 9/26/26 10/27/27
f 13/28/28 12/29/29 3/30/30 2/31/31
f 14/32/32 13/33/33 2/34/34 1/35/35
f 1/36/36 6/37/37 10/38/38 14/39/39
f 9/40/40 8/41/41 11/42/42 10/43/43
f 14/44/44 10/45/45 12/46/46 13/47/47
f 11/48/48 12/49/49 10/50/50

