# RokuSuper Output Ver6.0 for Wavefront Obj

v 0.21822425 1.89051159 1.68803281
v -0.14822425 1.86051159 1.71803281
v 0.19822425 1.28774326 1.62602138
v 0.21822425 1.86051159 1.71803281
v -0.17822425 1.86051159 1.68803281
v -0.22822425 1.28774326 1.62602138
v 0.16822425 1.25774326 1.62602138
v 0.24822425 1.86051159 1.68803281
v -0.19822425 1.25774326 1.62602138
v -0.14822425 1.89051159 1.68803281
v 0.16822425 1.28774326 1.65602138
v -0.19822425 1.28774326 1.65602138
v -0.19822425 1.25774326 1.15420203
v 0.16822425 1.25774326 1.15420203
v 0.19822425 1.28774326 1.15420203
v 0.24822425 1.86051159 1.15420203
v 0.21822425 1.89051159 1.15420203
v -0.14822425 1.89051159 1.15420203
v -0.17822425 1.86051159 1.15420203
v -0.22822425 1.28774326 1.15420203
v 0.24822425 1.47117590 1.68803281
v 0.24822425 1.47117590 1.15420203
v 0.21822425 1.47117590 1.71803281
v -0.24822425 1.47117590 1.71803281
v -0.27822425 1.47117590 1.68803281
v -0.27822425 1.47117590 1.15420203
v 0.21822425 1.52407615 1.71803281
v 0.24822425 1.52407615 1.68803281
v -0.23463694 1.52407615 1.71803281
v -0.26463694 1.52407615 1.68803281
v -0.26463694 1.52407615 1.15420203
v 0.24822425 1.52407615 1.15420203
v 0.36000001 2.04801749 0.99799055
v -0.36000001 2.04801749 0.99799055
v -0.36000001 2.09201933 1.02041060
v 0.36000001 2.09201933 1.02041060
v -0.36000001 2.05473395 1.09358727
v -0.36000001 1.63000002 0.78500001
v 0.36000001 1.63000002 0.78500001
v -0.36000001 2.01428310 1.06419801
v -0.36000001 1.90919802 1.16928309
v -0.36000001 1.77678310 1.23675186
v -0.36000001 1.63000002 1.26000002
v -0.36000001 1.48321695 1.23675186
v -0.36000001 1.35080203 1.16928309
v -0.36000001 1.17824817 0.93178309
v -0.36000001 1.24571695 1.06419801
v 0.36000001 1.17824817 0.93178309
v 0.36000001 1.24571695 1.06419801
v 0.36000001 1.35080203 1.16928309
v 0.36000001 1.48321695 1.23675186
v 0.36000001 1.63000002 1.26000002
v 0.36000001 1.77678310 1.23675186
v 0.36000001 1.90919802 1.16928309
v 0.36000001 2.01428310 1.06419801
v -0.36000001 1.93858729 1.20973394
v -0.36000001 1.79223395 1.28430469
v -0.36000001 1.63000002 1.31000002
v -0.36000001 1.46776610 1.28430469
v -0.36000001 1.32141276 1.20973394
v -0.36000001 1.20526610 1.09358727
v 0.36000001 1.13069535 0.94723394
v 0.36000001 1.20526610 1.09358727
v 0.36000001 1.32141276 1.20973394
v 0.36000001 1.46776610 1.28430469
v 0.36000001 1.63000002 1.31000002
v 0.36000001 1.79223395 1.28430469
v 0.36000001 1.93858729 1.20973394
v 0.36000001 2.05473395 1.09358727
v -0.36000001 1.13069535 0.94723394

vt 0.57750002 0.53324114
vt 0.58254049 0.53324114
vt 0.58254049 0.53828160
vt 0.58254049 0.53828160
vt 0.58254049 0.53324114
vt 0.64410954 0.53324114
vt 0.64410954 0.53828160
vt 0.64410954 0.53828160
vt 0.64410954 0.53324114
vt 0.64915000 0.53324114
vt 0.64074923 0.43700715
vt 0.63570876 0.43700715
vt 0.63570876 0.43196668
vt 0.63570876 0.43196668
vt 0.63570876 0.43700715
vt 0.57413971 0.43700715
vt 0.57413971 0.43196668
vt 0.57413971 0.43700715
vt 0.56909925 0.43700715
vt 0.57413971 0.43196668
vt 0.93169510 0.43438553
vt 0.93783661 0.43438553
vt 0.93783661 0.51748633
vt 0.93169510 0.51748633
vt 0.93783661 0.51748633
vt 0.93783661 0.43438553
vt 0.99386799 0.43438553
vt 0.99386799 0.51748633
vt 0.66467043 0.43438553
vt 0.66467043 0.51748633
vt 0.65852892 0.51748633
vt 0.65852892 0.43438553
vt 0.75851305 0.43438553
vt 0.76428001 0.43438553
vt 0.76428001 0.53298184
vt 0.75851305 0.53298184
vt 0.76428001 0.53298184
vt 0.76428001 0.43438553
vt 0.81945367 0.43438553
vt 0.81945367 0.53298184
vt 0.81945367 0.53298184
vt 0.81945367 0.43438553
vt 0.82583046 0.43438553
vt 0.82583046 0.53298184
vt 0.69444999 0.53298184
vt 0.66467043 0.51748633
vt 0.66467043 0.43438553
vt 0.69444999 0.43438553
vt 0.90191555 0.43438553
vt 0.93169510 0.43438553
vt 0.93169510 0.51748633
vt 0.90191555 0.53298184
vt 0.56573894 0.46782669
vt 0.56069847 0.46782669
vt 0.56909925 0.43700715
vt 0.57413971 0.43700715
vt 0.57413971 0.43700715
vt 0.63570876 0.43700715
vt 0.64410954 0.46782669
vt 0.56573894 0.46782669
vt 0.63570876 0.43700715
vt 0.64074923 0.43700715
vt 0.64915000 0.46782669
vt 0.64410954 0.46782669
vt 0.64915000 0.46782669
vt 0.64915000 0.47671475
vt 0.64410954 0.47671475
vt 0.64410954 0.46782669
vt 0.64410954 0.47671475
vt 0.64915000 0.47671475
vt 0.64915000 0.53324114
vt 0.64410954 0.53324114
vt 0.64410954 0.46782669
vt 0.64410954 0.47671475
vt 0.56802182 0.47671475
vt 0.56573894 0.46782669
vt 0.56802182 0.47671475
vt 0.64410954 0.47671475
vt 0.64410954 0.53324114
vt 0.58254049 0.53324114
vt 0.56802182 0.47671475
vt 0.56298135 0.47671475
vt 0.56069847 0.46782669
vt 0.56573894 0.46782669
vt 0.56298135 0.47671475
vt 0.56802182 0.47671475
vt 0.58254049 0.53324114
vt 0.57750002 0.53324114
vt 0.89257817 0.53298184
vt 0.82583046 0.53298184
vt 0.82583046 0.43438553
vt 0.89257817 0.43438553
vt 0.89257817 0.53298184
vt 0.89257817 0.43438553
vt 0.90191555 0.43438553
vt 0.90191555 0.53298184
vt 0.70431942 0.43438553
vt 0.70431942 0.53298184
vt 0.69444999 0.53298184
vt 0.69444999 0.43438553
vt 0.70431942 0.53298184
vt 0.70431942 0.43438553
vt 0.75851305 0.43438553
vt 0.75851305 0.53298184
vt 0.00895275 0.32958535
vt 0.18134856 0.32958535
vt 0.18134856 0.22949582
vt 0.00895275 0.22949582
vt 0.18134856 0.34012109
vt 0.18134856 0.32958535
vt 0.00895275 0.32958535
vt 0.00895275 0.34012109
vt 0.27980778 0.26158534
vt 0.24306433 0.33369842
vt 0.23164274 0.32787883
vt 0.27980778 0.26158534
vt 0.23164274 0.32787883
vt 0.24306433 0.33369842
vt 0.23919660 0.34128928
vt 0.24306433 0.33369842
vt 0.23164274 0.32787883
vt 0.22657274 0.33485710
vt 0.18134856 0.34012109
vt 0.00895275 0.34012109
vt 0.00895275 0.33119353
vt 0.18134856 0.33119353
vt 0.22657274 0.33485710
vt 0.23164274 0.32787883
vt 0.24306433 0.33369842
vt 0.23919660 0.34128928
vt 0.00895275 0.12132898
vt 0.18134856 0.12132898
vt 0.18134856 0.10994299
vt 0.00895275 0.10994299
vt 0.18134856 0.12132898
vt 0.00895275 0.12132898
vt 0.00895275 0.22949582
vt 0.18134856 0.22949582
vt 0.23164274 0.32787883
vt 0.27980778 0.26158534
vt 0.21351429 0.30975038
vt 0.21351429 0.30975038
vt 0.27980778 0.26158534
vt 0.20187511 0.28690720
vt 0.20187511 0.28690720
vt 0.27980778 0.26158534
vt 0.19786452 0.26158534
vt 0.19786452 0.26158534
vt 0.27980778 0.26158534
vt 0.20187511 0.23626348
vt 0.20187511 0.23626348
vt 0.27980778 0.26158534
vt 0.21351429 0.21342030
vt 0.21351429 0.21342030
vt 0.27980778 0.26158534
vt 0.23164274 0.19529184
vt 0.23164274 0.19529184
vt 0.27980778 0.26158534
vt 0.25448592 0.18365266
vt 0.25448592 0.18365266
vt 0.27980778 0.26158534
vt 0.23164274 0.19529184
vt 0.23164274 0.19529184
vt 0.27980778 0.26158534
vt 0.21351429 0.21342030
vt 0.21351429 0.21342030
vt 0.27980778 0.26158534
vt 0.20187511 0.23626348
vt 0.20187511 0.23626348
vt 0.27980778 0.26158534
vt 0.19786452 0.26158534
vt 0.19786452 0.26158534
vt 0.27980778 0.26158534
vt 0.20187511 0.28690720
vt 0.20187511 0.28690720
vt 0.27980778 0.26158534
vt 0.21351429 0.30975038
vt 0.21351429 0.30975038
vt 0.27980778 0.26158534
vt 0.23164274 0.32787883
vt 0.23164274 0.32787883
vt 0.21351429 0.30975038
vt 0.20653603 0.31482039
vt 0.22657274 0.33485710
vt 0.21351429 0.30975038
vt 0.20187511 0.28690720
vt 0.19367167 0.28957266
vt 0.20653603 0.31482039
vt 0.20187511 0.28690720
vt 0.19786452 0.26158534
vt 0.18923891 0.26158534
vt 0.19367167 0.28957266
vt 0.19786452 0.26158534
vt 0.20187511 0.23626348
vt 0.19367167 0.23359802
vt 0.18923891 0.26158534
vt 0.20187511 0.23626348
vt 0.21351429 0.21342030
vt 0.20653603 0.20835029
vt 0.19367167 0.23359802
vt 0.21351429 0.21342030
vt 0.23164274 0.19529184
vt 0.22657274 0.18831358
vt 0.20653603 0.20835029
vt 0.23164274 0.19529184
vt 0.25448592 0.18365266
vt 0.25182046 0.17544922
vt 0.22657274 0.18831358
vt 0.25448592 0.18365266
vt 0.23164274 0.19529184
vt 0.22657274 0.18831358
vt 0.25182046 0.17544922
vt 0.23164274 0.19529184
vt 0.21351429 0.21342030
vt 0.20653603 0.20835029
vt 0.22657274 0.18831358
vt 0.21351429 0.21342030
vt 0.20187511 0.23626348
vt 0.19367167 0.23359802
vt 0.20653603 0.20835029
vt 0.20187511 0.23626348
vt 0.19786452 0.26158534
vt 0.18923891 0.26158534
vt 0.19367167 0.23359802
vt 0.19786452 0.26158534
vt 0.20187511 0.28690720
vt 0.19367167 0.28957266
vt 0.18923891 0.26158534
vt 0.20187511 0.28690720
vt 0.21351429 0.30975038
vt 0.20653603 0.31482039
vt 0.19367167 0.28957266
vt 0.21351429 0.30975038
vt 0.23164274 0.32787883
vt 0.22657274 0.33485710
vt 0.20653603 0.31482039
vt 0.00895275 0.10994299
vt 0.18134856 0.10994299
vt 0.18134856 0.12779811
vt 0.00895275 0.12779811
vt 0.00895275 0.12779811
vt 0.18134856 0.12779811
vt 0.18134856 0.15560811
vt 0.00895275 0.15560811
vt 0.00895275 0.15560811
vt 0.18134856 0.15560811
vt 0.18134856 0.19065075
vt 0.00895275 0.19065075
vt 0.00895275 0.19065075
vt 0.18134856 0.19065075
vt 0.18134856 0.22949582
vt 0.00895275 0.22949582
vt 0.00895275 0.22949582
vt 0.18134856 0.22949582
vt 0.18134856 0.26834089
vt 0.00895275 0.26834089
vt 0.00895275 0.26834089
vt 0.18134856 0.26834089
vt 0.18134856 0.30338353
vt 0.00895275 0.30338353
vt 0.00895275 0.30338353
vt 0.18134856 0.30338353
vt 0.18134856 0.33119353
vt 0.00895275 0.33119353

vn -0.81018926 0.47036417 0.34978695
vn -0.35803769 0.41149458 0.83814153
vn -0.36700100 0.85476344 0.36700100
vn -0.36700100 0.85476344 0.36700100
vn -0.35803769 0.41149458 0.83814153
vn 0.36700100 0.36700100 0.85476344
vn 0.36700100 0.85476344 0.36700100
vn 0.36700100 0.85476344 0.36700100
vn 0.36700100 0.36700100 0.85476344
vn 0.85476344 0.36700100 0.36700100
vn 0.78353622 -0.52548426 0.33156792
vn 0.33006412 -0.53851287 0.77528160
vn 0.36700100 -0.85476344 0.36700100
vn 0.36700100 -0.85476344 0.36700100
vn 0.33006412 -0.53851287 0.77528160
vn -0.33006412 -0.53851287 0.77528160
vn -0.36700100 -0.85476344 0.36700100
vn -0.33006412 -0.53851287 0.77528160
vn -0.78353622 -0.52548426 0.33156792
vn -0.36700100 -0.85476344 0.36700100
vn -0.81730848 -0.57620036 0.00000000
vn -0.38268343 -0.92387953 0.00000000
vn -0.36700100 -0.85476344 0.36700100
vn -0.78353622 -0.52548426 0.33156792
vn -0.36700100 -0.85476344 0.36700100
vn -0.38268343 -0.92387953 0.00000000
vn 0.25272473 -0.96753822 0.00000000
vn 0.36700100 -0.85476344 0.36700100
vn 0.86494458 -0.50186738 0.00000000
vn 0.78353622 -0.52548426 0.33156792
vn 0.36700100 -0.85476344 0.36700100
vn 0.25272473 -0.96753822 0.00000000
vn 0.92387953 0.38268343 -0.00000000
vn 0.38268343 0.92387953 -0.00000000
vn 0.36700100 0.85476344 0.36700100
vn 0.85476344 0.36700100 0.36700100
vn 0.36700100 0.85476344 0.36700100
vn 0.38268343 0.92387953 -0.00000000
vn -0.25272473 0.96753822 -0.00000000
vn -0.36700100 0.85476344 0.36700100
vn -0.36700100 0.85476344 0.36700100
vn -0.25272473 0.96753822 -0.00000000
vn -0.86861027 0.49549591 -0.00000000
vn -0.81018926 0.47036417 0.34978695
vn 0.91052159 -0.18078318 0.37184389
vn 0.78353622 -0.52548426 0.33156792
vn 0.86494458 -0.50186738 0.00000000
vn 0.99116093 -0.13266504 0.00000000
vn -0.99997298 -0.00735066 0.00000000
vn -0.81730848 -0.57620036 0.00000000
vn -0.78353622 -0.52548426 0.33156792
vn -0.92319589 -0.06531387 0.37873928
vn -0.37391600 -0.14956994 0.91532271
vn -0.92319589 -0.06531387 0.37873928
vn -0.78353622 -0.52548426 0.33156792
vn -0.33006412 -0.53851287 0.77528160
vn -0.33006412 -0.53851287 0.77528160
vn 0.33006412 -0.53851287 0.77528160
vn 0.37236088 -0.19675800 0.90699154
vn -0.37391600 -0.14956994 0.91532271
vn 0.33006412 -0.53851287 0.77528160
vn 0.78353622 -0.52548426 0.33156792
vn 0.91052159 -0.18078318 0.37184389
vn 0.37236088 -0.19675800 0.90699154
vn 0.91052159 -0.18078318 0.37184389
vn 0.92387953 -0.00000000 0.38268343
vn 0.38268343 -0.00000000 0.92387953
vn 0.37236088 -0.19675800 0.90699154
vn 0.38268343 -0.00000000 0.92387953
vn 0.92387953 -0.00000000 0.38268343
vn 0.85476344 0.36700100 0.36700100
vn 0.36700100 0.36700100 0.85476344
vn 0.37236088 -0.19675800 0.90699154
vn 0.38268343 -0.00000000 0.92387953
vn -0.37778538 0.09703333 0.92079463
vn -0.37391600 -0.14956994 0.91532271
vn -0.37778538 0.09703333 0.92079463
vn 0.38268343 -0.00000000 0.92387953
vn 0.36700100 0.36700100 0.85476344
vn -0.35803769 0.41149458 0.83814153
vn -0.37778538 0.09703333 0.92079463
vn -0.89776533 0.23058902 0.37529471
vn -0.92319589 -0.06531387 0.37873928
vn -0.37391600 -0.14956994 0.91532271
vn -0.89776533 0.23058902 0.37529471
vn -0.37778538 0.09703333 0.92079463
vn -0.35803769 0.41149458 0.83814153
vn -0.81018926 0.47036417 0.34978695
vn -0.89776533 0.23058902 0.37529471
vn -0.81018926 0.47036417 0.34978695
vn -0.86861027 0.49549591 -0.00000000
vn -0.96856183 0.24877295 -0.00000000
vn -0.89776533 0.23058902 0.37529471
vn -0.96856183 0.24877295 -0.00000000
vn -0.99997298 -0.00735066 0.00000000
vn -0.92319589 -0.06531387 0.37873928
vn 1.00000000 -0.00000000 0.00000000
vn 0.92387953 -0.00000000 0.38268343
vn 0.91052159 -0.18078318 0.37184389
vn 0.99116093 -0.13266504 0.00000000
vn 0.92387953 -0.00000000 0.38268343
vn 1.00000000 -0.00000000 0.00000000
vn 0.92387953 0.38268343 -0.00000000
vn 0.85476344 0.36700100 0.36700100
vn 0.00000000 0.45399050 -0.89100652
vn -0.00000000 0.45399050 -0.89100652
vn -0.00000000 0.45399050 -0.89100652
vn -0.00000000 0.45399050 -0.89100652
vn 0.00000000 0.45399050 -0.89100652
vn -0.00000000 0.45399050 -0.89100652
vn 0.00000000 0.45399050 -0.89100652
vn 0.00000000 0.45399050 -0.89100652
vn 1.00000000 0.00000000 0.00000000
vn 1.00000000 0.00000000 0.00000000
vn 1.00000000 0.00000000 0.00000000
vn -1.00000000 0.00000000 0.00000000
vn -1.00000000 0.00000000 0.00000000
vn -1.00000000 0.00000000 0.00000000
vn -1.00000000 0.00000000 0.00000000
vn -1.00000000 0.00000000 0.00000000
vn -1.00000000 0.00000000 0.00000000
vn -1.00000000 0.00000000 0.00000000
vn -0.00000000 0.89100652 0.45399050
vn -0.00000000 0.89100652 0.45399050
vn -0.00000000 0.83888072 0.54431530
vn -0.00000000 0.77690301 0.62962030
vn 1.00000000 0.00000000 0.00000000
vn 1.00000000 0.00000000 0.00000000
vn 1.00000000 0.00000000 0.00000000
vn 1.00000000 0.00000000 0.00000000
vn 0.00000000 -0.30901699 -0.95105652
vn 0.00000000 -0.30901699 -0.95105652
vn 0.00000000 -0.30901699 -0.95105652
vn 0.00000000 -0.30901699 -0.95105652
vn 0.00000000 -0.30901699 -0.95105652
vn 0.00000000 -0.30901699 -0.95105652
vn 0.00000000 -0.30901699 -0.95105652
vn 0.00000000 -0.30901699 -0.95105652
vn -1.00000000 0.00000000 0.00000000
vn -1.00000000 0.00000000 0.00000000
vn -1.00000000 0.00000000 0.00000000
vn -1.00000000 0.00000000 0.00000000
vn -1.00000000 0.00000000 0.00000000
vn -1.00000000 0.00000000 0.00000000
vn -1.00000000 0.00000000 0.00000000
vn -1.00000000 0.00000000 0.00000000
vn -1.00000000 0.00000000 0.00000000
vn -1.00000000 0.00000000 0.00000000
vn -1.00000000 0.00000000 0.00000000
vn -1.00000000 0.00000000 0.00000000
vn -1.00000000 0.00000000 0.00000000
vn -1.00000000 0.00000000 0.00000000
vn -1.00000000 -0.00000000 0.00000000
vn -1.00000000 -0.00000000 0.00000000
vn -1.00000000 0.00000000 0.00000000
vn -1.00000000 -0.00000000 0.00000000
vn -1.00000000 -0.00000000 0.00000000
vn -1.00000000 0.00000000 0.00000000
vn -1.00000000 -0.00000000 0.00000000
vn 1.00000000 -0.00000000 0.00000000
vn 1.00000000 0.00000000 0.00000000
vn 1.00000000 -0.00000000 0.00000000
vn 1.00000000 -0.00000000 0.00000000
vn 1.00000000 0.00000000 0.00000000
vn 1.00000000 -0.00000000 0.00000000
vn 1.00000000 -0.00000000 0.00000000
vn 1.00000000 0.00000000 0.00000000
vn 1.00000000 0.00000000 0.00000000
vn 1.00000000 0.00000000 0.00000000
vn 1.00000000 0.00000000 0.00000000
vn 1.00000000 0.00000000 0.00000000
vn 1.00000000 0.00000000 0.00000000
vn 1.00000000 0.00000000 0.00000000
vn 1.00000000 0.00000000 0.00000000
vn 1.00000000 0.00000000 0.00000000
vn 1.00000000 0.00000000 0.00000000
vn 1.00000000 0.00000000 0.00000000
vn 1.00000000 0.00000000 0.00000000
vn 1.00000000 0.00000000 0.00000000
vn 1.00000000 0.00000000 0.00000000
vn -1.00000000 0.00000000 0.00000000
vn -1.00000000 0.00000000 0.00000000
vn -1.00000000 0.00000000 0.00000000
vn -1.00000000 0.00000000 0.00000000
vn -1.00000000 0.00000000 0.00000000
vn -1.00000000 0.00000000 0.00000000
vn -1.00000000 0.00000000 0.00000000
vn -1.00000000 0.00000000 0.00000000
vn -1.00000000 0.00000000 0.00000000
vn -1.00000000 0.00000000 0.00000000
vn -1.00000000 0.00000000 0.00000000
vn -1.00000000 0.00000000 0.00000000
vn -1.00000000 0.00000000 0.00000000
vn -1.00000000 0.00000000 0.00000000
vn -1.00000000 -0.00000000 0.00000000
vn -1.00000000 0.00000000 0.00000000
vn -1.00000000 0.00000000 0.00000000
vn -1.00000000 -0.00000000 0.00000000
vn -1.00000000 -0.00000000 0.00000000
vn -1.00000000 -0.00000000 0.00000000
vn -1.00000000 -0.00000000 0.00000000
vn -1.00000000 -0.00000000 0.00000000
vn -1.00000000 -0.00000000 0.00000000
vn -1.00000000 -0.00000000 0.00000000
vn -1.00000000 -0.00000000 0.00000000
vn -1.00000000 -0.00000000 0.00000000
vn -1.00000000 -0.00000000 0.00000000
vn -1.00000000 -0.00000000 0.00000000
vn 1.00000000 -0.00000000 0.00000000
vn 1.00000000 -0.00000000 0.00000000
vn 1.00000000 -0.00000000 0.00000000
vn 1.00000000 -0.00000000 0.00000000
vn 1.00000000 -0.00000000 0.00000000
vn 1.00000000 -0.00000000 0.00000000
vn 1.00000000 -0.00000000 0.00000000
vn 1.00000000 -0.00000000 0.00000000
vn 1.00000000 -0.00000000 0.00000000
vn 1.00000000 0.00000000 0.00000000
vn 1.00000000 -0.00000000 0.00000000
vn 1.00000000 -0.00000000 0.00000000
vn 1.00000000 0.00000000 0.00000000
vn 1.00000000 0.00000000 0.00000000
vn 1.00000000 0.00000000 0.00000000
vn 1.00000000 -0.00000000 0.00000000
vn 1.00000000 0.00000000 0.00000000
vn 1.00000000 0.00000000 0.00000000
vn 1.00000000 0.00000000 0.00000000
vn 1.00000000 0.00000000 0.00000000
vn 1.00000000 0.00000000 0.00000000
vn 1.00000000 0.00000000 0.00000000
vn 1.00000000 0.00000000 0.00000000
vn 1.00000000 0.00000000 0.00000000
vn 1.00000000 0.00000000 0.00000000
vn 1.00000000 0.00000000 0.00000000
vn 1.00000000 0.00000000 0.00000000
vn 1.00000000 0.00000000 0.00000000
vn 0.00000000 -0.89100652 0.45399050
vn 0.00000000 -0.89100652 0.45399050
vn 0.00000000 -0.83888072 0.54431530
vn 0.00000000 -0.77690301 0.62962030
vn 0.00000000 -0.77690301 0.62962030
vn 0.00000000 -0.83888072 0.54431530
vn 0.00000000 -0.62962030 0.77690301
vn -0.00000000 -0.54431530 0.83888072
vn -0.00000000 -0.54431530 0.83888072
vn 0.00000000 -0.62962030 0.77690301
vn -0.00000000 -0.35872825 0.93344204
vn -0.00000000 -0.25844621 0.96602565
vn -0.00000000 -0.25844621 0.96602565
vn -0.00000000 -0.35872825 0.93344204
vn -0.00000000 -0.05272139 0.99860926
vn 0.00000000 0.05272139 0.99860926
vn 0.00000000 0.05272139 0.99860926
vn -0.00000000 -0.05272139 0.99860926
vn 0.00000000 0.25844621 0.96602565
vn 0.00000000 0.35872825 0.93344204
vn 0.00000000 0.35872825 0.93344204
vn 0.00000000 0.25844621 0.96602565
vn 0.00000000 0.54431530 0.83888072
vn -0.00000000 0.62962030 0.77690301
vn -0.00000000 0.62962030 0.77690301
vn 0.00000000 0.54431530 0.83888072
vn -0.00000000 0.77690301 0.62962030
vn -0.00000000 0.83888072 0.54431530

g KV-II_Cannon
f 5/1/1 2/2/2 10/3/3
f 10/4/4 2/5/5 4/6/6 1/7/7
f 1/8/8 4/9/9 8/10/10
f 3/11/11 11/12/12 7/13/13
f 7/14/14 11/15/15 12/16/16 9/17/17
f 12/18/18 6/19/19 9/20/20
f 20/21/21 13/22/22 9/23/23 6/24/24
f 9/25/25 13/26/26 14/27/27 7/28/28
f 15/29/29 3/30/30 7/31/31 14/32/32
f 16/33/33 17/34/34 1/35/35 8/36/36
f 1/37/37 17/38/38 18/39/39 10/40/40
f 10/41/41 18/42/42 19/43/43 5/44/44
f 21/45/45 3/46/46 15/47/47 22/48/48
f 26/49/49 20/50/50 6/51/51 25/52/52
f 24/53/53 25/54/54 6/55/55 12/56/56
f 12/57/57 11/58/58 23/59/59 24/60/60
f 11/61/61 3/62/62 21/63/63 23/64/64
f 21/65/65 28/66/66 27/67/67 23/68/68
f 27/69/69 28/70/70 8/71/71 4/72/72
f 23/73/73 27/74/74 29/75/75 24/76/76
f 29/77/77 27/78/78 4/79/79 2/80/80
f 29/81/81 30/82/82 25/83/83 24/84/84
f 30/85/85 29/86/86 2/87/87 5/88/88
f 30/89/89 5/90/90 19/91/91 31/92/92
f 30/93/93 31/94/94 26/95/95 25/96/96
f 32/97/97 28/98/98 21/99/99 22/100/100
f 28/101/101 32/102/102 16/103/103 8/104/104
f 34/105/105 33/106/106 39/107/107 38/108/108
f 36/109/109 33/110/110 34/111/111 35/112/112
f 39/113/113 33/114/114 55/115/115
f 38/116/116 40/117/117 34/118/118
f 35/119/119 34/120/120 40/121/121 37/122/122
f 36/123/123 35/124/124 37/125/125 69/126/126
f 69/127/127 55/128/128 33/129/129 36/130/130
f 46/131/131 48/132/132 62/133/133 70/134/134
f 48/135/135 46/136/136 38/137/137 39/138/138
f 40/139/139 38/140/140 41/141/141
f 41/142/142 38/143/143 42/144/144
f 42/145/145 38/146/146 43/147/147
f 43/148/148 38/149/149 44/150/150
f 44/151/151 38/152/152 45/153/153
f 45/154/154 38/155/155 47/156/156
f 47/157/157 38/158/158 46/159/159
f 48/160/160 39/161/161 49/162/162
f 49/163/163 39/164/164 50/165/165
f 50/166/166 39/167/167 51/168/168
f 51/169/169 39/170/170 52/171/171
f 52/172/172 39/173/173 53/174/174
f 53/175/175 39/176/176 54/177/177
f 54/178/178 39/179/179 55/180/180
f 40/181/181 41/182/182 56/183/183 37/184/184
f 41/185/185 42/186/186 57/187/187 56/188/188
f 42/189/189 43/190/190 58/191/191 57/192/192
f 43/193/193 44/194/194 59/195/195 58/196/196
f 44/197/197 45/198/198 60/199/199 59/200/200
f 45/201/201 47/202/202 61/203/203 60/204/204
f 47/205/205 46/206/206 70/207/207 61/208/208
f 48/209/209 49/210/210 63/211/211 62/212/212
f 49/213/213 50/214/214 64/215/215 63/216/216
f 50/217/217 51/218/218 65/219/219 64/220/220
f 51/221/221 52/222/222 66/223/223 65/224/224
f 52/225/225 53/226/226 67/227/227 66/228/228
f 53/229/229 54/230/230 68/231/231 67/232/232
f 54/233/233 55/234/234 69/235/235 68/236/236
f 70/237/237 62/238/238 63/239/239 61/240/240
f 61/241/241 63/242/242 64/243/243 60/244/244
f 60/245/245 64/246/246 65/247/247 59/248/248
f 59/249/249 65/250/250 66/251/251 58/252/252
f 58/253/253 66/254/254 67/255/255 57/256/256
f 57/257/257 67/258/258 68/259/259 56/260/260
f 56/261/261 68/262/262 69/263/263 37/264/264

