# RokuSuper Output Ver6.0 for Wavefront Obj

v -0.79500001 0.82000001 -1.70109118
v -1.00000001 0.82000001 -0.10000000
v -0.63750001 0.82000001 0.85000001
v 0.00000000 0.82000001 -0.10000000
v 1.00000001 0.82000001 -0.10000000
v 1.00000001 2.17000003 -0.10000000
v 0.79500001 0.82000001 -1.70109118
v -1.00000001 2.17000003 -0.10000000
v -0.79500001 2.17000003 -1.70109118
v 0.79500001 2.17000003 -1.70109118
v 0.63750001 2.17000003 0.85000001
v 0.63750001 0.82000001 0.85000001
v -0.63750001 2.17000003 0.85000001

vt 0.74989307 1.00000000
vt 0.50000000 0.62761033
vt 0.25010693 1.00000000
vt 0.74989307 1.00000000
vt 0.74989307 1.00000000
vt 0.25010693 1.00000000
vt 0.25010693 1.00000000
vt 0.89198913 0.62761033
vt 0.74989307 1.00000000
vt 0.25010693 1.00000000
vt 0.10801087 0.62761033
vt 0.18836864 0.00000000
vt 0.81163136 0.00000000
vt 0.89198913 0.62761033
vt 0.10801087 0.62761033
vt 0.81163136 0.00000000
vt 0.18836864 0.00000000
vt 0.18836864 0.00000000
vt 0.81163136 0.00000000
vt 0.74989307 1.00000000
vt 0.74989307 1.00000000
vt 0.89198913 0.62761033
vt 0.89198913 0.62761033
vt 0.89198913 0.62761033
vt 0.50000000 0.62761033
vt 0.74989307 1.00000000
vt 0.25010693 1.00000000
vt 0.50000000 0.62761033
vt 0.10801087 0.62761033
vt 0.10801087 0.62761033
vt 0.25010693 1.00000000
vt 0.25010693 1.00000000
vt 0.10801087 0.62761033
vt 0.89198913 0.62761033
vt 0.89198913 0.62761033
vt 0.81163136 0.00000000
vt 0.81163136 0.00000000
vt 0.50000000 0.62761033
vt 0.89198913 0.62761033
vt 0.81163136 0.00000000
vt 0.18836864 0.00000000
vt 0.10801087 0.62761033
vt 0.50000000 0.62761033
vt 0.18836864 0.00000000
vt 0.10801087 0.62761033
vt 0.10801087 0.62761033
vt 0.18836864 0.00000000
vt 0.81163136 0.00000000
vt 0.18836864 0.00000000
vt 0.50000000 0.62761033

vn -0.00000000 -1.00000000 0.00000000
vn 0.00000000 -1.00000000 0.00000000
vn 0.00000000 -1.00000000 0.00000000
vn -0.00000000 -0.00000000 1.00000000
vn -0.00000000 -0.00000000 1.00000000
vn -0.00000000 -0.00000000 1.00000000
vn 0.00000000 -0.00000000 1.00000000
vn 0.00000000 1.00000000 0.00000000
vn 0.00000000 1.00000000 0.00000000
vn 0.00000000 1.00000000 0.00000000
vn 0.00000000 1.00000000 0.00000000
vn 0.00000000 1.00000000 -0.00000000
vn -0.00000000 1.00000000 -0.00000000
vn 0.00000000 1.00000000 0.00000000
vn 0.00000000 1.00000000 0.00000000
vn -0.00000000 0.00000000 -1.00000000
vn -0.00000000 0.00000000 -1.00000000
vn -0.00000000 0.00000000 -1.00000000
vn 0.00000000 0.00000000 -1.00000000
vn -0.93429285 -0.00000000 0.35650648
vn -0.93429285 -0.00000000 0.35650648
vn -0.93429285 -0.00000000 0.35650648
vn -0.93429285 -0.00000000 0.35650648
vn -0.00000000 -1.00000000 0.00000000
vn 0.00000000 -1.00000000 0.00000000
vn -0.00000000 -1.00000000 0.00000000
vn 0.00000000 -1.00000000 0.00000000
vn 0.00000000 -1.00000000 0.00000000
vn 0.00000000 -1.00000000 0.00000000
vn 0.93429285 -0.00000000 0.35650648
vn 0.93429285 -0.00000000 0.35650648
vn 0.93429285 -0.00000000 0.35650648
vn 0.93429285 -0.00000000 0.35650648
vn -0.99190260 0.00000000 -0.12700091
vn -0.99190260 -0.00000000 -0.12700091
vn -0.99190260 0.00000000 -0.12700091
vn -0.99190260 0.00000000 -0.12700091
vn 0.00000000 -1.00000000 0.00000000
vn -0.00000000 -1.00000000 0.00000000
vn -0.00000000 -1.00000000 -0.00000000
vn 0.00000000 -1.00000000 -0.00000000
vn 0.00000000 -1.00000000 0.00000000
vn 0.00000000 -1.00000000 0.00000000
vn 0.99190260 0.00000000 -0.12700091
vn 0.99190260 -0.00000000 -0.12700091
vn 0.99190260 0.00000000 -0.12700091
vn 0.99190260 0.00000000 -0.12700091
vn -0.00000000 -1.00000000 -0.00000000
vn 0.00000000 -1.00000000 -0.00000000
vn 0.00000000 -1.00000000 0.00000000

g KV-II_Turret_Collider
f 3/1/1 4/2/2 12/3/3
f 13/4/4 3/5/5 12/6/6 11/7/7
f 8/8/8 13/9/9 11/10/10 6/11/11
f 10/12/12 9/13/13 8/14/14 6/15/15
f 9/16/16 10/17/17 7/18/18 1/19/19
f 3/20/20 13/21/21 8/22/22 2/23/23
f 2/24/24 4/25/25 3/26/26
f 12/27/27 4/28/28 5/29/29
f 6/30/30 11/31/31 12/32/32 5/33/33
f 2/34/34 8/35/35 9/36/36 1/37/37
f 4/38/38 2/39/39 1/40/40
f 7/41/41 5/42/42 4/43/43
f 10/44/44 6/45/45 5/46/46 7/47/47
f 1/48/48 7/49/49 4/50/50

