# RokuSuper Output Ver6.0 for Wavefront Obj

v 0.00000000 1.22303975 0.00000000
v -0.95000001 1.22303975 -1.05000002
v -0.95000001 1.46453285 -1.05000002
v -0.95000001 1.22303975 0.95000001
v 0.95000001 1.46453285 -1.05000002
v 0.95000001 1.46453285 -1.55291291
v 0.95000001 2.60741004 0.95000001
v 0.95000001 2.60741004 -1.55291291
v -0.95000001 2.60741004 -1.55291291
v -0.95000001 2.60741004 0.95000001
v 0.95000001 1.22303975 0.95000001
v -0.95000001 1.46453285 -1.55291291
v 0.95000001 1.22303975 -1.05000002
v -0.47500001 2.60741004 -0.16730000
v 0.47500001 2.60741004 -0.16730000
v 0.47500001 2.60741004 -1.11730002
v -0.47500001 2.60741004 -1.11730002
v -0.47500001 3.07404005 -0.16730000
v 0.47500001 3.07404005 -0.16730000
v 0.47500001 3.07404005 -1.11730002
v -0.47500001 3.07404005 -1.11730002

vt 0.87955776 0.20093104
vt 0.87955776 0.20093104
vt 0.12044224 0.20093104
vt 0.12044224 0.20093104
vt 0.12044224 0.20093104
vt 0.50000000 0.62044224
vt 0.87955776 0.20093104
vt 0.87955776 0.20093104
vt 0.50000000 0.62044224
vt 0.87955776 1.00000000
vt 0.12044224 1.00000000
vt 0.12044224 0.20093104
vt 0.12044224 0.20093104
vt 0.12044224 1.00000000
vt 0.50000000 0.62044224
vt 0.12044224 0.20093104
vt 0.87955776 0.20093104
vt 0.87955776 0.20093104
vt 0.87955776 1.00000000
vt 0.12044224 1.00000000
vt 0.12044224 0.00000000
vt 0.87955776 0.00000000
vt 0.87955776 1.00000000
vt 0.87955776 0.00000000
vt 0.87955776 0.20093104
vt 0.87955776 1.00000000
vt 0.87955776 1.00000000
vt 0.12044224 1.00000000
vt 0.12044224 0.20093104
vt 0.12044224 0.00000000
vt 0.12044224 1.00000000
vt 0.12044224 0.00000000
vt 0.87955776 0.00000000
vt 0.87955776 0.00000000
vt 0.12044224 0.00000000
vt 0.12044224 1.00000000
vt 0.12044224 1.00000000
vt 0.87955776 1.00000000
vt 0.87955776 1.00000000
vt 0.50000000 0.62044224
vt 0.12044224 1.00000000
vt 0.87955776 1.00000000
vt 0.87955776 0.00000000
vt 0.87955776 0.00000000
vt 0.87955776 0.20093104
vt 0.87955776 0.00000000
vt 0.12044224 0.00000000
vt 0.12044224 0.20093104
vt 0.87955776 0.20093104
vt 0.12044224 0.00000000
vt 0.12044224 0.20093104
vt 0.12044224 0.00000000
vt 0.31022112 0.55360012
vt 0.31022112 0.55360012
vt 0.31022112 0.17404237
vt 0.31022112 0.17404237
vt 0.68977888 0.17404237
vt 0.31022112 0.17404237
vt 0.31022112 0.17404237
vt 0.68977888 0.17404237
vt 0.68977888 0.55360012
vt 0.68977888 0.17404237
vt 0.68977888 0.17404237
vt 0.68977888 0.55360012
vt 0.31022112 0.55360012
vt 0.68977888 0.55360012
vt 0.68977888 0.55360012
vt 0.31022112 0.55360012
vt 0.68977888 0.17404237
vt 0.68977888 0.55360012
vt 0.31022112 0.55360012
vt 0.31022112 0.17404237

vn 0.00000000 0.00000000 -1.00000000
vn 0.00000000 0.00000000 -1.00000000
vn 0.00000000 0.00000000 -1.00000000
vn 0.00000000 0.00000000 -1.00000000
vn 0.00000000 -1.00000000 0.00000000
vn 0.00000000 -1.00000000 0.00000000
vn 0.00000000 -1.00000000 0.00000000
vn 0.00000000 -1.00000000 0.00000000
vn 0.00000000 -1.00000000 0.00000000
vn 0.00000000 -1.00000000 0.00000000
vn 1.00000000 -0.00000000 0.00000000
vn 1.00000000 0.00000000 0.00000000
vn 1.00000000 -0.00000000 -0.00000000
vn 0.00000000 -1.00000000 0.00000000
vn 0.00000000 -1.00000000 0.00000000
vn 0.00000000 -1.00000000 0.00000000
vn -1.00000000 0.00000000 0.00000000
vn -1.00000000 0.00000000 0.00000000
vn -1.00000000 0.00000000 -0.00000000
vn -0.00000000 1.00000000 0.00000000
vn -0.00000000 1.00000000 0.00000000
vn -0.00000000 1.00000000 0.00000000
vn -0.00000000 1.00000000 0.00000000
vn -1.00000000 0.00000000 0.00000000
vn -1.00000000 0.00000000 0.00000000
vn -1.00000000 0.00000000 -0.00000000
vn -1.00000000 -0.00000000 -0.00000000
vn 1.00000000 -0.00000000 0.00000000
vn 1.00000000 -0.00000000 -0.00000000
vn 1.00000000 -0.00000000 -0.00000000
vn 1.00000000 -0.00000000 0.00000000
vn 0.00000000 0.00000000 -1.00000000
vn 0.00000000 0.00000000 -1.00000000
vn 0.00000000 0.00000000 -1.00000000
vn -0.00000000 0.00000000 -1.00000000
vn -0.00000000 -0.00000000 1.00000000
vn 0.00000000 -0.00000000 1.00000000
vn -0.00000000 -0.00000000 1.00000000
vn -0.00000000 -0.00000000 1.00000000
vn 0.00000000 -1.00000000 0.00000000
vn 0.00000000 -1.00000000 0.00000000
vn 0.00000000 -1.00000000 0.00000000
vn -1.00000000 0.00000000 0.00000000
vn -1.00000000 0.00000000 0.00000000
vn -1.00000000 0.00000000 0.00000000
vn 0.00000000 -1.00000000 0.00000000
vn 0.00000000 -1.00000000 -0.00000000
vn 0.00000000 -1.00000000 0.00000000
vn 0.00000000 -1.00000000 0.00000000
vn 1.00000000 -0.00000000 -0.00000000
vn 1.00000000 -0.00000000 -0.00000000
vn 1.00000000 -0.00000000 -0.00000000
vn 1.00000000 0.00000000 0.00000000
vn 1.00000000 0.00000000 0.00000000
vn 1.00000000 0.00000000 0.00000000
vn 1.00000000 0.00000000 0.00000000
vn -0.00000000 0.00000000 -1.00000000
vn -0.00000000 0.00000000 -1.00000000
vn -0.00000000 0.00000000 -1.00000000
vn -0.00000000 0.00000000 -1.00000000
vn -1.00000000 0.00000000 0.00000000
vn -1.00000000 0.00000000 0.00000000
vn -1.00000000 0.00000000 0.00000000
vn -1.00000000 0.00000000 0.00000000
vn 0.00000000 0.00000000 1.00000000
vn 0.00000000 0.00000000 1.00000000
vn 0.00000000 0.00000000 1.00000000
vn 0.00000000 0.00000000 1.00000000
vn 0.00000000 1.00000000 0.00000000
vn 0.00000000 1.00000000 0.00000000
vn 0.00000000 1.00000000 0.00000000
vn 0.00000000 1.00000000 0.00000000

g KV-VI_Turret_Center_Collider
f 2/1/1 3/2/2 5/3/3 13/4/4
f 13/5/5 1/6/6 2/7/7
f 2/8/8 1/9/9 4/10/10
f 11/11/11 13/12/12 5/13/13
f 11/14/14 1/15/15 13/16/16
f 3/17/17 2/18/18 4/19/19
f 7/20/20 8/21/21 9/22/22 10/23/23
f 9/24/24 3/25/25 4/26/26 10/27/27
f 11/28/28 5/29/29 8/30/30 7/31/31
f 6/32/32 12/33/33 9/34/34 8/35/35
f 11/36/36 7/37/37 10/38/38 4/39/39
f 1/40/40 11/41/41 4/42/42
f 9/43/43 12/44/44 3/45/45
f 12/46/46 6/47/47 5/48/48 3/49/49
f 8/50/50 5/51/51 6/52/52
f 19/53/53 15/54/54 16/55/55 20/56/56
f 21/57/57 20/58/58 16/59/59 17/60/60
f 18/61/61 21/62/62 17/63/63 14/64/64
f 19/65/65 18/66/66 14/67/67 15/68/68
f 21/69/69 18/70/70 19/71/71 20/72/72

