# RokuSuper Output Ver6.0 for Wavefront Obj

v -0.09695421 1.80240837 4.96798189
v -0.06963529 1.80240837 4.96798189
v -0.11061367 1.77874949 4.96798189
v -0.05597583 1.77874949 4.96798189
v -0.06963529 1.75509061 4.96798189
v -0.09695421 1.75509061 4.96798189
v -0.08329475 1.77874949 4.96798189
v -0.11971998 1.77874949 4.16852077
v -0.10150737 1.74720431 4.16852077
v -0.06508213 1.74720431 4.16852077
v -0.04686952 1.77874949 4.16852077
v -0.06508213 1.81029467 4.16852077
v -0.10150737 1.81029467 4.16852077
v -0.10150737 1.81029467 4.39514386
v -0.06508213 1.81029467 4.39514386
v -0.04686952 1.77874949 4.39514386
v -0.06508213 1.74720431 4.39514386
v -0.10150737 1.74720431 4.39514386
v -0.11971998 1.77874949 4.39514386
v -0.09695421 1.75509061 4.39514386
v -0.06963529 1.75509061 4.39514386
v -0.05597583 1.77874949 4.39514386
v -0.11061367 1.77874949 4.39514386
v -0.06963529 1.80240837 4.39514386
v -0.09695421 1.80240837 4.39514386

vt 0.67743800 0.49763155
vt 0.68821256 0.47896947
vt 0.69898712 0.49763155
vt 0.66666345 0.47896947
vt 0.68821256 0.47896947
vt 0.67743800 0.49763155
vt 0.69898712 0.49763155
vt 0.68821256 0.47896947
vt 0.70976168 0.47896947
vt 0.70976168 0.47896947
vt 0.68821256 0.47896947
vt 0.69898712 0.46030738
vt 0.67743800 0.46030738
vt 0.68821256 0.47896947
vt 0.66666345 0.47896947
vt 0.69898712 0.46030738
vt 0.68821256 0.47896947
vt 0.67743800 0.46030738
vt 0.95347414 0.48906078
vt 0.95347414 0.48020759
vt 0.88987211 0.48020759
vt 0.88987211 0.48906078
vt 0.88987211 0.48906078
vt 0.95347414 0.48906078
vt 0.95347414 0.48906078
vt 0.88987211 0.48906078
vt 0.88987211 0.48020759
vt 0.95347414 0.48020759
vt 0.95347414 0.48906078
vt 0.88987211 0.48906078
vt 0.88987211 0.47135440
vt 0.95347414 0.47135440
vt 0.95347414 0.48020759
vt 0.88987211 0.48020759
vt 0.88987211 0.47135440
vt 0.95347414 0.47135440
vt 0.95347414 0.47135440
vt 0.88987211 0.47135440
vt 0.88987211 0.48020759
vt 0.95347414 0.48020759
vt 0.95347414 0.47135440
vt 0.88987211 0.47135440
vt 0.88987211 0.47135440
vt 0.88987211 0.47356769
vt 0.88987211 0.47356769
vt 0.88987211 0.47135440
vt 0.88987211 0.47135440
vt 0.88987211 0.47356769
vt 0.88987211 0.48020759
vt 0.88987211 0.48020759
vt 0.88987211 0.48020759
vt 0.88987211 0.48020759
vt 0.88987211 0.47356769
vt 0.88987211 0.47135440
vt 0.88987211 0.48906078
vt 0.88987211 0.48684748
vt 0.88987211 0.48020759
vt 0.88987211 0.48020759
vt 0.88987211 0.48020759
vt 0.88987211 0.48020759
vt 0.88987211 0.48684748
vt 0.88987211 0.48906078
vt 0.88987211 0.48906078
vt 0.88987211 0.48684748
vt 0.88987211 0.48684748
vt 0.88987211 0.48906078
vt 0.72910446 0.48684748
vt 0.72910446 0.48684748
vt 0.88987211 0.48684748
vt 0.88987211 0.48684748
vt 0.88987211 0.48020759
vt 0.72910446 0.48020759
vt 0.72910446 0.48684748
vt 0.88987211 0.48684748
vt 0.72910446 0.48684748
vt 0.72910446 0.48020759
vt 0.88987211 0.48020759
vt 0.88987211 0.48684748
vt 0.72910446 0.48020759
vt 0.72910446 0.47356769
vt 0.88987211 0.47356769
vt 0.88987211 0.48020759
vt 0.88987211 0.47356769
vt 0.72910446 0.47356769
vt 0.72910446 0.48020759
vt 0.88987211 0.48020759
vt 0.72910446 0.47356769
vt 0.72910446 0.47356769
vt 0.88987211 0.47356769
vt 0.88987211 0.47356769

vn -0.00000000 0.00000000 1.00000000
vn -0.00000000 0.00000000 1.00000000
vn -0.00000000 0.00000000 1.00000000
vn -0.00000000 0.00000000 1.00000000
vn -0.00000000 0.00000000 1.00000000
vn -0.00000000 0.00000000 1.00000000
vn -0.00000000 0.00000000 1.00000000
vn -0.00000000 0.00000000 1.00000000
vn -0.00000000 0.00000000 1.00000000
vn -0.00000000 0.00000000 1.00000000
vn -0.00000000 0.00000000 1.00000000
vn -0.00000000 0.00000000 1.00000000
vn -0.00000000 0.00000000 1.00000000
vn -0.00000000 0.00000000 1.00000000
vn -0.00000000 0.00000000 1.00000000
vn -0.00000000 0.00000000 1.00000000
vn -0.00000000 0.00000000 1.00000000
vn -0.00000000 0.00000000 1.00000000
vn -0.50000000 0.86602540 0.00000000
vn -1.00000000 0.00000000 -0.00000000
vn -1.00000000 0.00000000 -0.00000000
vn -0.50000000 0.86602540 0.00000000
vn 0.32732684 0.94491118 0.00000000
vn 0.65465367 0.75592895 0.00000000
vn -0.50000000 0.86602540 0.00000000
vn -0.50000000 0.86602540 0.00000000
vn 0.98198051 0.18898224 0.00000000
vn 0.98198051 -0.18898224 0.00000000
vn 0.65465367 0.75592895 0.00000000
vn 0.32732684 0.94491118 0.00000000
vn 0.65465367 -0.75592895 -0.00000000
vn 0.32732684 -0.94491118 -0.00000000
vn 0.98198051 -0.18898224 0.00000000
vn 0.98198051 0.18898224 0.00000000
vn -0.32732684 -0.94491118 -0.00000000
vn -0.65465367 -0.75592895 -0.00000000
vn 0.32732684 -0.94491118 -0.00000000
vn 0.65465367 -0.75592895 -0.00000000
vn -1.00000000 0.00000000 -0.00000000
vn -1.00000000 0.00000000 -0.00000000
vn -0.65465367 -0.75592895 -0.00000000
vn -0.32732684 -0.94491118 -0.00000000
vn -0.00000000 0.00000000 1.00000000
vn -0.00000000 0.00000000 1.00000000
vn 0.00000000 0.00000000 1.00000000
vn 0.00000000 0.00000000 1.00000000
vn 0.00000000 0.00000000 1.00000000
vn 0.00000000 0.00000000 1.00000000
vn 0.00000000 0.00000000 1.00000000
vn 0.00000000 -0.00000000 1.00000000
vn -0.00000000 0.00000000 1.00000000
vn -0.00000000 -0.00000000 1.00000000
vn -0.00000000 0.00000000 1.00000000
vn -0.00000000 0.00000000 1.00000000
vn -0.00000000 -0.00000000 1.00000000
vn -0.00000000 -0.00000000 1.00000000
vn -0.00000000 -0.00000000 1.00000000
vn -0.00000000 0.00000000 1.00000000
vn 0.00000000 -0.00000000 1.00000000
vn 0.00000000 0.00000000 1.00000000
vn 0.00000000 -0.00000000 1.00000000
vn 0.00000000 -0.00000000 1.00000000
vn 0.00000000 -0.00000000 1.00000000
vn 0.00000000 -0.00000000 1.00000000
vn -0.00000000 -0.00000000 1.00000000
vn -0.00000000 -0.00000000 1.00000000
vn -0.50000000 0.86602540 0.00000000
vn 0.65465367 0.75592895 0.00000000
vn 0.32732684 0.94491118 0.00000000
vn -0.50000000 0.86602540 0.00000000
vn -0.98198051 0.18898224 0.00000000
vn -0.98198051 -0.18898224 -0.00000000
vn -0.50000000 0.86602540 0.00000000
vn -0.50000000 0.86602540 0.00000000
vn 0.65465367 0.75592895 0.00000000
vn 0.98198051 -0.18898224 -0.00000000
vn 0.98198051 0.18898224 0.00000000
vn 0.32732684 0.94491118 0.00000000
vn 0.98198051 -0.18898224 -0.00000000
vn 0.32732684 -0.94491118 -0.00000000
vn 0.65465367 -0.75592895 -0.00000000
vn 0.98198051 0.18898224 0.00000000
vn -0.50000000 -0.86602540 -0.00000000
vn -0.50000000 -0.86602540 -0.00000000
vn -0.98198051 -0.18898224 -0.00000000
vn -0.98198051 0.18898224 0.00000000
vn 0.32732684 -0.94491118 -0.00000000
vn -0.50000000 -0.86602540 -0.00000000
vn -0.50000000 -0.86602540 -0.00000000
vn 0.65465367 -0.75592895 -0.00000000

g KV-VI_ChildBarrel_Front_R
f 1/1/1 7/2/2 2/3/3
f 3/4/4 7/5/5 1/6/6
f 2/7/7 7/8/8 4/9/9
f 4/10/10 7/11/11 5/12/12
f 6/13/13 7/14/14 3/15/15
f 5/16/16 7/17/17 6/18/18
f 13/19/19 8/20/20 19/21/21 14/22/22
f 15/23/23 12/24/24 13/25/25 14/26/26
f 16/27/27 11/28/28 12/29/29 15/30/30
f 17/31/31 10/32/32 11/33/33 16/34/34
f 18/35/35 9/36/36 10/37/37 17/38/38
f 19/39/39 8/40/40 9/41/41 18/42/42
f 17/43/43 21/44/44 20/45/45 18/46/46
f 18/47/47 20/48/48 23/49/49 19/50/50
f 16/51/51 22/52/52 21/53/53 17/54/54
f 15/55/55 24/56/56 22/57/57 16/58/58
f 19/59/59 23/60/60 25/61/61 14/62/62
f 14/63/63 25/64/64 24/65/65 15/66/66
f 1/67/67 2/68/68 24/69/69 25/70/70
f 23/71/71 3/72/72 1/73/73 25/74/74
f 2/75/75 4/76/76 22/77/77 24/78/78
f 4/79/79 5/80/80 21/81/81 22/82/82
f 20/83/83 6/84/84 3/85/85 23/86/86
f 5/87/87 6/88/88 20/89/89 21/90/90

