# RokuSuper Output Ver6.0 for Wavefront Obj

v -0.05196153 1.10052137 5.40432846
v -0.06000000 1.13052137 5.40432846
v -0.05196153 1.16052137 5.40432846
v -0.03000000 1.18248290 5.40432846
v -0.00000000 1.19052137 5.40432846
v 0.03000000 1.18248290 5.40432846
v 0.05196153 1.16052137 5.40432846
v 0.06000000 1.13052137 5.40432846
v 0.05196153 1.10052137 5.40432846
v 0.03000000 1.07855985 5.40432846
v -0.00000000 1.07052137 5.40432846
v -0.03000000 1.07855985 5.40432846
v -0.00000000 1.13052137 5.85272463
v -0.02277611 1.09107199 5.85272463
v -0.03944939 1.10774526 5.85272463
v -0.04555223 1.13052137 5.85272463
v -0.03944939 1.15329749 5.85272463
v -0.02277611 1.16997076 5.85272463
v -0.00000000 1.17607360 5.85272463
v 0.02277611 1.16997076 5.85272463
v 0.03944939 1.15329749 5.85272463
v 0.04555223 1.13052137 5.85272463
v 0.03944939 1.10774526 5.85272463
v 0.02277611 1.09107199 5.85272463
v -0.00000000 1.08496914 5.85272463
v -0.03000000 1.07855985 6.71356256
v -0.05196153 1.10052137 6.71356256
v -0.06000000 1.13052137 6.71356256
v -0.05196153 1.16052137 6.71356256
v -0.03000000 1.18248290 6.71356256
v -0.00000000 1.19052137 6.71356256
v 0.03000000 1.18248290 6.71356256
v 0.05196153 1.16052137 6.71356256
v 0.06000000 1.13052137 6.71356256
v 0.05196153 1.10052137 6.71356256
v 0.03000000 1.07855985 6.71356256
v -0.00000000 1.07052137 6.71356256
v -0.00000000 1.08496914 6.71356256
v 0.02277611 1.09107199 6.71356256
v 0.03944939 1.10774526 6.71356256
v 0.04555223 1.13052137 6.71356256
v 0.03944939 1.15329749 6.71356256
v 0.02277611 1.16997076 6.71356256
v -0.00000000 1.17607360 6.71356256
v -0.02277611 1.16997076 6.71356256
v -0.03944939 1.15329749 6.71356256
v -0.04555223 1.13052137 6.71356256
v -0.03944939 1.10774526 6.71356256
v -0.02277611 1.09107199 6.71356256

vt 0.54622219 0.02581032
vt 0.73452006 0.02581032
vt 0.73452006 0.03120368
vt 0.54622219 0.03120368
vt 0.54622219 0.01502360
vt 0.73452006 0.01502360
vt 0.73452006 0.01646875
vt 0.54622219 0.01646875
vt 0.54622219 0.01646875
vt 0.73452006 0.01646875
vt 0.73452006 0.02041696
vt 0.54622219 0.02041696
vt 0.54622219 0.02041696
vt 0.73452006 0.02041696
vt 0.73452006 0.02581032
vt 0.54622219 0.02581032
vt 0.54622219 0.03120368
vt 0.73452006 0.03120368
vt 0.73452006 0.03515190
vt 0.54622219 0.03515190
vt 0.54622219 0.03515190
vt 0.73452006 0.03515190
vt 0.73452006 0.03659704
vt 0.54622219 0.03659704
vt 0.54622219 0.03515190
vt 0.54622219 0.03659704
vt 0.73452006 0.03659704
vt 0.73452006 0.03515190
vt 0.54622219 0.03120368
vt 0.54622219 0.03515190
vt 0.73452006 0.03515190
vt 0.73452006 0.03120368
vt 0.54622219 0.02581032
vt 0.54622219 0.03120368
vt 0.73452006 0.03120368
vt 0.73452006 0.02581032
vt 0.54622219 0.02041696
vt 0.54622219 0.02581032
vt 0.73452006 0.02581032
vt 0.73452006 0.02041696
vt 0.54622219 0.01646875
vt 0.54622219 0.02041696
vt 0.73452006 0.02041696
vt 0.73452006 0.01646875
vt 0.54622219 0.01502360
vt 0.54622219 0.01646875
vt 0.73452006 0.01646875
vt 0.73452006 0.01502360
vt 0.55461493 0.04865196
vt 0.56161137 0.06077016
vt 0.54949318 0.05377371
vt 0.54949318 0.05377371
vt 0.56161137 0.06077016
vt 0.54761848 0.06077016
vt 0.54761848 0.06077016
vt 0.56161137 0.06077016
vt 0.54949318 0.06776660
vt 0.54949318 0.06776660
vt 0.56161137 0.06077016
vt 0.55461493 0.07288836
vt 0.55461493 0.07288836
vt 0.56161137 0.06077016
vt 0.56161137 0.07476305
vt 0.56161137 0.07476305
vt 0.56161137 0.06077016
vt 0.56860782 0.07288836
vt 0.56860782 0.07288836
vt 0.56161137 0.06077016
vt 0.57372957 0.06776660
vt 0.57372957 0.06776660
vt 0.56161137 0.06077016
vt 0.57560427 0.06077016
vt 0.57560427 0.06077016
vt 0.56161137 0.06077016
vt 0.57372957 0.05377371
vt 0.57372957 0.05377371
vt 0.56161137 0.06077016
vt 0.56860782 0.04865196
vt 0.56161137 0.04677727
vt 0.56161137 0.06077016
vt 0.55461493 0.04865196
vt 0.56860782 0.04865196
vt 0.56161137 0.06077016
vt 0.56161137 0.04677727
vt 0.54622219 0.01646875
vt 0.54622219 0.01871817
vt 0.54622219 0.01762101
vt 0.54622219 0.01502360
vt 0.54622219 0.01502360
vt 0.54622219 0.01762101
vt 0.54622219 0.01871817
vt 0.54622219 0.01646875
vt 0.54622219 0.02041696
vt 0.54622219 0.02171566
vt 0.54622219 0.01871817
vt 0.54622219 0.01646875
vt 0.54622219 0.02581032
vt 0.54622219 0.02581032
vt 0.54622219 0.02171566
vt 0.54622219 0.02041696
vt 0.54622219 0.03120368
vt 0.54622219 0.02990498
vt 0.54622219 0.02581032
vt 0.54622219 0.02581032
vt 0.54622219 0.03515190
vt 0.54622219 0.03290248
vt 0.54622219 0.02990498
vt 0.54622219 0.03120368
vt 0.54622219 0.03659704
vt 0.54622219 0.03399964
vt 0.54622219 0.03290248
vt 0.54622219 0.03515190
vt 0.54622219 0.03515190
vt 0.54622219 0.03290248
vt 0.54622219 0.03399964
vt 0.54622219 0.03659704
vt 0.54622219 0.03120368
vt 0.54622219 0.02990498
vt 0.54622219 0.03290248
vt 0.54622219 0.03515190
vt 0.54622219 0.02581032
vt 0.54622219 0.02581032
vt 0.54622219 0.02990498
vt 0.54622219 0.03120368
vt 0.54622219 0.02041696
vt 0.54622219 0.02171566
vt 0.54622219 0.02581032
vt 0.54622219 0.02581032
vt 0.54622219 0.01646875
vt 0.54622219 0.01871817
vt 0.54622219 0.02171566
vt 0.54622219 0.02041696
vt 0.55461493 0.04865196
vt 0.54949318 0.05377371
vt 0.54949318 0.05377371
vt 0.55461493 0.04865196
vt 0.54949318 0.05377371
vt 0.54761848 0.06077016
vt 0.54761848 0.06077016
vt 0.54949318 0.05377371
vt 0.54761848 0.06077016
vt 0.54949318 0.06776660
vt 0.54949318 0.06776660
vt 0.54761848 0.06077016
vt 0.54949318 0.06776660
vt 0.55461493 0.07288836
vt 0.55461493 0.07288836
vt 0.54949318 0.06776660
vt 0.55461493 0.07288836
vt 0.56161137 0.07476305
vt 0.56161137 0.07476305
vt 0.55461493 0.07288836
vt 0.56161137 0.07476305
vt 0.56860782 0.07288836
vt 0.56860782 0.07288836
vt 0.56161137 0.07476305
vt 0.56860782 0.07288836
vt 0.57372957 0.06776660
vt 0.57372957 0.06776660
vt 0.56860782 0.07288836
vt 0.57372957 0.06776660
vt 0.57560427 0.06077016
vt 0.57560427 0.06077016
vt 0.57372957 0.06776660
vt 0.57560427 0.06077016
vt 0.57372957 0.05377371
vt 0.57372957 0.05377371
vt 0.57560427 0.06077016
vt 0.57372957 0.05377371
vt 0.56860782 0.04865196
vt 0.56860782 0.04865196
vt 0.57372957 0.05377371
vt 0.56161137 0.04677727
vt 0.56161137 0.04677727
vt 0.55461493 0.04865196
vt 0.55461493 0.04865196
vt 0.56860782 0.04865196
vt 0.56161137 0.04677727
vt 0.56161137 0.04677727
vt 0.56860782 0.04865196

vn 0.99603500 0.08896226 -0.00000000
vn 0.99603500 -0.08896226 0.00000000
vn 0.90707274 0.42097392 -0.00000000
vn 0.81811048 0.57506107 -0.00000000
vn -0.00000000 -1.00000000 0.00000000
vn -0.00000000 -1.00000000 0.00000000
vn 0.42097392 -0.90707274 0.00000000
vn 0.57506107 -0.81811048 0.00000000
vn 0.57506107 -0.81811048 0.00000000
vn 0.42097392 -0.90707274 0.00000000
vn 0.81811048 -0.57506107 0.00000000
vn 0.90707274 -0.42097392 0.00000000
vn 0.90707274 -0.42097392 0.00000000
vn 0.81811048 -0.57506107 0.00000000
vn 0.99603500 -0.08896226 0.00000000
vn 0.99603500 0.08896226 -0.00000000
vn 0.81811048 0.57506107 -0.00000000
vn 0.90707274 0.42097392 -0.00000000
vn 0.57506107 0.81811048 -0.00000000
vn 0.42097392 0.90707274 -0.00000000
vn 0.42097392 0.90707274 -0.00000000
vn 0.57506107 0.81811048 -0.00000000
vn 0.00000000 1.00000000 -0.00000000
vn 0.00000000 1.00000000 -0.00000000
vn -0.42097392 0.90707274 -0.00000000
vn 0.00000000 1.00000000 -0.00000000
vn 0.00000000 1.00000000 -0.00000000
vn -0.57506107 0.81811048 -0.00000000
vn -0.81811048 0.57506107 -0.00000000
vn -0.42097392 0.90707274 -0.00000000
vn -0.57506107 0.81811048 -0.00000000
vn -0.90707274 0.42097392 -0.00000000
vn -0.99603500 0.08896226 -0.00000000
vn -0.81811048 0.57506107 -0.00000000
vn -0.90707274 0.42097392 -0.00000000
vn -0.99603500 -0.08896226 0.00000000
vn -0.90707274 -0.42097392 0.00000000
vn -0.99603500 0.08896226 -0.00000000
vn -0.99603500 -0.08896226 0.00000000
vn -0.81811048 -0.57506107 0.00000000
vn -0.57506107 -0.81811048 0.00000000
vn -0.90707274 -0.42097392 0.00000000
vn -0.81811048 -0.57506107 0.00000000
vn -0.42097392 -0.90707274 0.00000000
vn -0.00000000 -1.00000000 0.00000000
vn -0.57506107 -0.81811048 0.00000000
vn -0.42097392 -0.90707274 0.00000000
vn -0.00000000 -1.00000000 0.00000000
vn 0.00000000 -0.00000000 1.00000000
vn -0.00000000 -0.00000000 1.00000000
vn -0.00000000 -0.00000000 1.00000000
vn -0.00000000 -0.00000000 1.00000000
vn 0.00000000 -0.00000000 1.00000000
vn 0.00000000 -0.00000000 1.00000000
vn 0.00000000 -0.00000000 1.00000000
vn 0.00000000 -0.00000000 1.00000000
vn 0.00000000 -0.00000000 1.00000000
vn 0.00000000 -0.00000000 1.00000000
vn 0.00000000 -0.00000000 1.00000000
vn 0.00000000 -0.00000000 1.00000000
vn 0.00000000 -0.00000000 1.00000000
vn 0.00000000 -0.00000000 1.00000000
vn 0.00000000 -0.00000000 1.00000000
vn 0.00000000 -0.00000000 1.00000000
vn -0.00000000 -0.00000000 1.00000000
vn -0.00000000 -0.00000000 1.00000000
vn -0.00000000 -0.00000000 1.00000000
vn -0.00000000 -0.00000000 1.00000000
vn -0.00000000 -0.00000000 1.00000000
vn -0.00000000 -0.00000000 1.00000000
vn 0.00000000 -0.00000000 1.00000000
vn 0.00000000 -0.00000000 1.00000000
vn 0.00000000 -0.00000000 1.00000000
vn 0.00000000 -0.00000000 1.00000000
vn 0.00000000 -0.00000000 1.00000000
vn 0.00000000 -0.00000000 1.00000000
vn 0.00000000 -0.00000000 1.00000000
vn -0.00000000 -0.00000000 1.00000000
vn 0.00000000 -0.00000000 1.00000000
vn 0.00000000 -0.00000000 1.00000000
vn 0.00000000 -0.00000000 1.00000000
vn -0.00000000 -0.00000000 1.00000000
vn -0.00000000 -0.00000000 1.00000000
vn 0.00000000 -0.00000000 1.00000000
vn -0.00000000 -0.00000000 1.00000000
vn -0.00000000 -0.00000000 1.00000000
vn -0.00000000 -0.00000000 1.00000000
vn 0.00000000 -0.00000000 1.00000000
vn 0.00000000 -0.00000000 1.00000000
vn -0.00000000 -0.00000000 1.00000000
vn 0.00000000 -0.00000000 1.00000000
vn 0.00000000 -0.00000000 1.00000000
vn -0.00000000 -0.00000000 1.00000000
vn -0.00000000 -0.00000000 1.00000000
vn -0.00000000 -0.00000000 1.00000000
vn -0.00000000 -0.00000000 1.00000000
vn -0.00000000 -0.00000000 1.00000000
vn 0.00000000 -0.00000000 1.00000000
vn -0.00000000 -0.00000000 1.00000000
vn -0.00000000 -0.00000000 1.00000000
vn 0.00000000 -0.00000000 1.00000000
vn -0.00000000 -0.00000000 1.00000000
vn 0.00000000 -0.00000000 1.00000000
vn -0.00000000 -0.00000000 1.00000000
vn -0.00000000 -0.00000000 1.00000000
vn -0.00000000 -0.00000000 1.00000000
vn -0.00000000 -0.00000000 1.00000000
vn 0.00000000 -0.00000000 1.00000000
vn 0.00000000 -0.00000000 1.00000000
vn 0.00000000 -0.00000000 1.00000000
vn -0.00000000 -0.00000000 1.00000000
vn -0.00000000 -0.00000000 1.00000000
vn 0.00000000 -0.00000000 1.00000000
vn 0.00000000 -0.00000000 1.00000000
vn 0.00000000 -0.00000000 1.00000000
vn 0.00000000 -0.00000000 1.00000000
vn 0.00000000 -0.00000000 1.00000000
vn -0.00000000 -0.00000000 1.00000000
vn 0.00000000 -0.00000000 1.00000000
vn 0.00000000 -0.00000000 1.00000000
vn -0.00000000 -0.00000000 1.00000000
vn 0.00000000 -0.00000000 1.00000000
vn -0.00000000 -0.00000000 1.00000000
vn 0.00000000 -0.00000000 1.00000000
vn 0.00000000 -0.00000000 1.00000000
vn 0.00000000 -0.00000000 1.00000000
vn 0.00000000 -0.00000000 1.00000000
vn -0.00000000 -0.00000000 1.00000000
vn 0.00000000 -0.00000000 1.00000000
vn 0.00000000 -0.00000000 1.00000000
vn 0.00000000 -0.00000000 1.00000000
vn 0.00000000 -0.00000000 1.00000000
vn 0.50000000 0.86602540 -0.00000000
vn 0.90707274 0.42097392 -0.00000000
vn 0.81811048 0.57506107 -0.00000000
vn 0.50000000 0.86602540 -0.00000000
vn 0.90707274 0.42097392 -0.00000000
vn 0.99603500 -0.08896226 0.00000000
vn 0.99603500 0.08896226 -0.00000000
vn 0.81811048 0.57506107 -0.00000000
vn 0.99603500 -0.08896226 0.00000000
vn 0.81811048 -0.57506107 0.00000000
vn 0.90707274 -0.42097392 0.00000000
vn 0.99603500 0.08896226 -0.00000000
vn 0.81811048 -0.57506107 0.00000000
vn 0.42097392 -0.90707274 0.00000000
vn 0.57506107 -0.81811048 0.00000000
vn 0.90707274 -0.42097392 0.00000000
vn 0.42097392 -0.90707274 0.00000000
vn -0.08896226 -0.99603500 0.00000000
vn 0.08896226 -0.99603500 0.00000000
vn 0.57506107 -0.81811048 0.00000000
vn -0.08896226 -0.99603500 0.00000000
vn -0.57506107 -0.81811048 0.00000000
vn -0.42097392 -0.90707274 0.00000000
vn 0.08896226 -0.99603500 0.00000000
vn -0.57506107 -0.81811048 0.00000000
vn -0.90707274 -0.42097392 0.00000000
vn -0.81811048 -0.57506107 0.00000000
vn -0.42097392 -0.90707274 0.00000000
vn -0.90707274 -0.42097392 0.00000000
vn -0.99603500 0.08896226 -0.00000000
vn -0.99603500 -0.08896226 0.00000000
vn -0.81811048 -0.57506107 0.00000000
vn -0.99603500 0.08896226 -0.00000000
vn -0.81811048 0.57506107 -0.00000000
vn -0.90707274 0.42097392 -0.00000000
vn -0.99603500 -0.08896226 0.00000000
vn -0.81811048 0.57506107 -0.00000000
vn -0.42097392 0.90707274 -0.00000000
vn -0.57506107 0.81811048 -0.00000000
vn -0.90707274 0.42097392 -0.00000000
vn 0.00000000 1.00000000 -0.00000000
vn 0.00000000 1.00000000 -0.00000000
vn 0.50000000 0.86602540 -0.00000000
vn 0.50000000 0.86602540 -0.00000000
vn -0.42097392 0.90707274 -0.00000000
vn 0.00000000 1.00000000 -0.00000000
vn 0.00000000 1.00000000 -0.00000000
vn -0.57506107 0.81811048 -0.00000000

g KV-VI_Barrel_Front
f 34/1/1 8/2/2 7/3/3 33/4/4
f 37/5/5 11/6/6 10/7/7 36/8/8
f 36/9/9 10/10/10 9/11/11 35/12/12
f 35/13/13 9/14/14 8/15/15 34/16/16
f 33/17/17 7/18/18 6/19/19 32/20/20
f 32/21/21 6/22/22 5/23/23 31/24/24
f 30/25/25 31/26/26 5/27/27 4/28/28
f 29/29/29 30/30/30 4/31/31 3/32/32
f 28/33/33 29/34/34 3/35/35 2/36/36
f 27/37/37 28/38/38 2/39/39 1/40/40
f 26/41/41 27/42/42 1/43/43 12/44/44
f 37/45/45 26/46/46 12/47/47 11/48/48
f 14/49/49 13/50/50 15/51/51
f 15/52/52 13/53/53 16/54/54
f 16/55/55 13/56/56 17/57/57
f 17/58/58 13/59/59 18/60/60
f 18/61/61 13/62/62 19/63/63
f 19/64/64 13/65/65 20/66/66
f 20/67/67 13/68/68 21/69/69
f 21/70/70 13/71/71 22/72/72
f 22/73/73 13/74/74 23/75/75
f 23/76/76 13/77/77 24/78/78
f 25/79/79 13/80/80 14/81/81
f 24/82/82 13/83/83 25/84/84
f 36/85/85 39/86/86 38/87/87 37/88/88
f 37/89/89 38/90/90 49/91/91 26/92/92
f 35/93/93 40/94/94 39/95/95 36/96/96
f 34/97/97 41/98/98 40/99/99 35/100/100
f 33/101/101 42/102/102 41/103/103 34/104/104
f 32/105/105 43/106/106 42/107/107 33/108/108
f 31/109/109 44/110/110 43/111/111 32/112/112
f 30/113/113 45/114/114 44/115/115 31/116/116
f 29/117/117 46/118/118 45/119/119 30/120/120
f 28/121/121 47/122/122 46/123/123 29/124/124
f 27/125/125 48/126/126 47/127/127 28/128/128
f 26/129/129 49/130/130 48/131/131 27/132/132
f 14/133/133 15/134/134 48/135/135 49/136/136
f 15/137/137 16/138/138 47/139/139 48/140/140
f 16/141/141 17/142/142 46/143/143 47/144/144
f 17/145/145 18/146/146 45/147/147 46/148/148
f 18/149/149 19/150/150 44/151/151 45/152/152
f 19/153/153 20/154/154 43/155/155 44/156/156
f 20/157/157 21/158/158 42/159/159 43/160/160
f 21/161/161 22/162/162 41/163/163 42/164/164
f 22/165/165 23/166/166 40/167/167 41/168/168
f 23/169/169 24/170/170 39/171/171 40/172/172
f 38/173/173 25/174/174 14/175/175 49/176/176
f 24/177/177 25/178/178 38/179/179 39/180/180

