# RokuSuper Output Ver6.0 for Wavefront Obj

v 0.16715848 1.25496099 -2.92400802
v 0.22107682 0.98543059 -2.92400802
v -0.36000001 1.04990284 -2.87545141
v -0.36000001 1.22084252 -2.87545141
v -0.36000001 0.81939191 -3.10172392
v 0.36000001 0.81939191 -3.10172392
v -0.03000000 1.07855985 -2.53211105
v -0.05196153 1.10052137 -2.53211105
v -0.08227241 1.08302137 -2.66714171
v -0.08227241 1.08302137 -2.53211105
v -0.06000000 1.13052137 -2.53211105
v -0.09500000 1.13052137 -2.66714171
v -0.09500000 1.13052137 -2.53211105
v -0.05196153 1.16052137 -2.53211105
v -0.08227241 1.17802137 -2.66714171
v -0.08227241 1.17802137 -2.53211105
v -0.03000000 1.18248290 -2.53211105
v -0.00000000 1.19052137 -2.53211105
v -0.04750000 1.21279379 -2.66714171
v -0.04750000 1.21279379 -2.53211105
v 0.03000000 1.18248290 -2.53211105
v -0.00000000 1.22552137 -2.66714171
v 0.05196153 1.10052137 -2.53211105
v -0.04750000 1.04824896 -2.53211105
v 0.03000000 1.07855985 -2.53211105
v -0.00000000 1.07052137 -2.53211105
v 0.08227241 1.08302137 -2.53211105
v 0.05196153 1.16052137 -2.53211105
v 0.06000000 1.13052137 -2.53211105
v 0.04750000 1.21279379 -2.66714171
v 0.09500000 1.13052137 -2.53211105
v -0.20500000 0.96581915 -2.92400802
v 0.20500000 0.96581915 -2.92400802
v -0.16715848 1.25496099 -2.92400802
v -0.22107682 0.98543059 -2.92400802
v -0.20060284 0.98581915 -2.66241563
v 0.20060284 0.98581915 -2.66241563
v -0.14323530 1.27457243 -2.92400802
v -0.14323530 1.27457243 -2.68241563
v -0.36000001 1.45537269 -3.27213446
v -0.36000001 1.36888062 -2.96092125
v -0.36000001 1.45435046 -3.10895935
v -0.36000001 0.90186474 -2.96092125
v 0.36000001 1.22084252 -2.87545141
v 0.36000001 1.36888062 -2.96092125
v 0.36000001 1.04990284 -2.87545141
v 0.36000001 0.90186474 -2.96092125
v 0.36000001 1.45435046 -3.10895935
v 0.36000001 1.45537269 -3.27213446
v -0.00000000 1.03552137 -2.53211105
v -0.04750000 1.04824896 -2.66714171
v -0.00000000 1.22552137 -2.53211105
v 0.04750000 1.21279379 -2.53211105
v 0.08227241 1.08302137 -2.66714171
v 0.04750000 1.04824896 -2.53211105
v 0.04750000 1.04824896 -2.66714171
v -0.00000000 1.03552137 -2.66714171
v 0.08227241 1.17802137 -2.53211105
v 0.08227241 1.17802137 -2.66714171
v 0.09500000 1.13052137 -2.66714171
v -0.16715848 1.25496099 -2.68241563
v -0.20500000 0.96581915 -2.68241563
v 0.14323530 1.27457243 -2.92400802
v 0.22107682 0.98543059 -2.68241563
v 0.16715848 1.25496099 -2.68241563
v 0.20500000 0.96581915 -2.68241563
v -0.22107682 0.98543059 -2.68241563
v 0.14683995 1.25457243 -2.66241563
v -0.14683995 1.25457243 -2.66241563
v 0.14323530 1.27457243 -2.68241563

vt 0.45702906 0.08661476
vt 0.45702906 0.08366722
vt 0.49333966 0.08366722
vt 0.49333966 0.08661476
vt 0.49333966 0.08366722
vt 0.45702906 0.08366722
vt 0.45702906 0.04315762
vt 0.49333966 0.04315762
vt 0.48604175 0.05284760
vt 0.48604175 0.07853932
vt 0.49888761 0.10078900
vt 0.52113729 0.11363486
vt 0.49888761 0.03059792
vt 0.48604175 0.05284760
vt 0.49888761 0.10078900
vt 0.52113729 0.11363486
vt 0.54566201 0.11378849
vt 0.52004982 0.01820251
vt 0.49888761 0.03059792
vt 0.42938981 0.07866475
vt 0.33437794 0.07866475
vt 0.33437794 0.05610739
vt 0.42938981 0.05610739
vt 0.42938981 0.09819999
vt 0.33437794 0.09819999
vt 0.33437794 0.07866475
vt 0.42938981 0.07866475
vt 0.42938981 0.10947867
vt 0.33437794 0.10947867
vt 0.33437794 0.09819999
vt 0.42938981 0.09819999
vt 0.42938981 0.05610739
vt 0.33437794 0.05610739
vt 0.33437794 0.03657214
vt 0.42938981 0.03657214
vt 0.49888761 0.10078900
vt 0.48604175 0.07853932
vt 0.48604175 0.05284760
vt 0.42938981 0.03657214
vt 0.33437794 0.03657214
vt 0.33437794 0.02568895
vt 0.42938981 0.02568895
vt 0.52113729 0.11363486
vt 0.49888761 0.10078900
vt 0.48604175 0.05284760
vt 0.49888761 0.03059792
vt 0.42938981 0.10961357
vt 0.33437794 0.10961357
vt 0.33437794 0.10947867
vt 0.42938981 0.10947867
vt 0.52113729 0.11363486
vt 0.49888761 0.03059792
vt 0.52004982 0.01820251
vt 0.54566201 0.11378849
vt 0.38188388 0.05420959
vt 0.38188388 0.05882823
vt 0.37792505 0.05988899
vt 0.37561573 0.05588914
vt 0.37102713 0.06047774
vt 0.37561573 0.05588914
vt 0.37792505 0.05988899
vt 0.37502698 0.06278705
vt 0.43443873 0.05782522
vt 0.45473343 0.05782522
vt 0.45473343 0.05259903
vt 0.43443873 0.05259903
vt 0.36934759 0.06674588
vt 0.37102713 0.06047774
vt 0.37502698 0.06278705
vt 0.37396622 0.06674588
vt 0.43443873 0.06496432
vt 0.45473343 0.06496432
vt 0.45473343 0.05782522
vt 0.43443873 0.05782522
vt 0.37102713 0.07301403
vt 0.36934759 0.06674588
vt 0.37396622 0.06674588
vt 0.37502698 0.07070471
vt 0.43443873 0.07210343
vt 0.45473343 0.07210343
vt 0.45473343 0.06496432
vt 0.43443873 0.06496432
vt 0.37561573 0.07760263
vt 0.37102713 0.07301403
vt 0.37502698 0.07070471
vt 0.37792505 0.07360277
vt 0.43443873 0.07732962
vt 0.45473343 0.07732962
vt 0.45473343 0.07210343
vt 0.43443873 0.07210343
vt 0.38188388 0.07928217
vt 0.37561573 0.07760263
vt 0.37792505 0.07360277
vt 0.38188388 0.07466354
vt 0.38815202 0.07760263
vt 0.38188388 0.07928217
vt 0.38188388 0.07466354
vt 0.38584270 0.07360277
vt 0.43443873 0.07924254
vt 0.45473343 0.07924254
vt 0.45473343 0.07732962
vt 0.43443873 0.07732962
vt 0.39274062 0.07301403
vt 0.38815202 0.07760263
vt 0.38584270 0.07360277
vt 0.38874077 0.07070471
vt 0.43443873 0.07732962
vt 0.45473343 0.07732962
vt 0.45473343 0.07924254
vt 0.43443873 0.07924254
vt 0.39274062 0.06047774
vt 0.39442017 0.06674588
vt 0.38980153 0.06674588
vt 0.38874077 0.06278705
vt 0.38815202 0.05588914
vt 0.39274062 0.06047774
vt 0.38874077 0.06278705
vt 0.38584270 0.05988899
vt 0.45473343 0.05068611
vt 0.43443873 0.05068611
vt 0.43443873 0.05259903
vt 0.45473343 0.05259903
vt 0.38188388 0.05420959
vt 0.38815202 0.05588914
vt 0.38584270 0.05988899
vt 0.38188388 0.05882823
vt 0.43443873 0.05259903
vt 0.45473343 0.05259903
vt 0.45473343 0.05782522
vt 0.43443873 0.05782522
vt 0.45473343 0.05259903
vt 0.43443873 0.05259903
vt 0.43443873 0.05068611
vt 0.45473343 0.05068611
vt 0.45473343 0.06496432
vt 0.43443873 0.06496432
vt 0.43443873 0.05782522
vt 0.45473343 0.05782522
vt 0.39442017 0.06674588
vt 0.39274062 0.07301403
vt 0.38874077 0.07070471
vt 0.38980153 0.06674588
vt 0.43443873 0.07210343
vt 0.45473343 0.07210343
vt 0.45473343 0.07732962
vt 0.43443873 0.07732962
vt 0.45473343 0.07210343
vt 0.43443873 0.07210343
vt 0.43443873 0.06496432
vt 0.45473343 0.06496432
vt 0.45702906 0.04315762
vt 0.45702906 0.04021008
vt 0.49333966 0.04021008
vt 0.49333966 0.04315762
vt 0.49333966 0.04315762
vt 0.49333966 0.04021008
vt 0.45702906 0.04021008
vt 0.45702906 0.04315762
vt 0.31778504 0.04375463
vt 0.31778504 0.00445965
vt 0.25109857 0.00445965
vt 0.25109857 0.04375463
vt 0.35541214 0.04765084
vt 0.35483188 0.04501162
vt 0.40893587 0.04501162
vt 0.40835561 0.04765084
vt 0.49333966 0.08661476
vt 0.49333966 0.08366722
vt 0.45702906 0.08366722
vt 0.45702906 0.08661476
vt 0.45702906 0.08366722
vt 0.49333966 0.08366722
vt 0.49333966 0.04315762
vt 0.45702906 0.04315762
vt 0.36250674 0.08311578
vt 0.35982549 0.08316705
vt 0.35271037 0.04759957
vt 0.35541214 0.04765084
vt 0.35541214 0.04765084
vt 0.35271037 0.04759957
vt 0.35483188 0.04501162
vt 0.36250674 0.08311578
vt 0.35541214 0.04765084
vt 0.40835561 0.04765084
vt 0.40126101 0.08311578
vt 0.41105738 0.04759957
vt 0.40835561 0.04765084
vt 0.40893587 0.04501162
vt 0.40126101 0.08311578
vt 0.40835561 0.04765084
vt 0.41105738 0.04759957
vt 0.40394227 0.08316705
vt 0.40078534 0.08575500
vt 0.40126101 0.08311578
vt 0.40394227 0.08316705
vt 0.26114460 0.04375463
vt 0.26114460 0.00445965
vt 0.30773901 0.00445965
vt 0.30773901 0.04375463
vt 0.40126101 0.08311578
vt 0.40078534 0.08575500
vt 0.36298241 0.08575500
vt 0.36250674 0.08311578
vt 0.35982549 0.08316705
vt 0.36250674 0.08311578
vt 0.36298241 0.08575500

vn 0.32633779 0.87697178 0.35273805
vn 0.79591995 0.49202368 0.35273805
vn 0.85730813 0.51480362 -0.00000000
vn 0.33663332 0.94163581 -0.00000000
vn 0.85730813 0.51480362 -0.00000000
vn 0.79591995 0.49202368 0.35273805
vn 0.89127975 -0.23178782 0.38973685
vn 0.97022952 -0.24218726 0.00000000
vn -1.00000000 0.00000000 -0.00000000
vn -1.00000000 0.00000000 -0.00000000
vn -1.00000000 0.00000000 -0.00000000
vn -1.00000000 0.00000000 -0.00000000
vn -1.00000000 0.00000000 -0.00000000
vn -1.00000000 0.00000000 -0.00000000
vn -1.00000000 0.00000000 -0.00000000
vn -1.00000000 0.00000000 -0.00000000
vn -1.00000000 0.00000000 -0.00000000
vn -1.00000000 0.00000000 -0.00000000
vn -1.00000000 0.00000000 -0.00000000
vn 0.00000000 0.17186188 0.98512105
vn 0.00000000 0.34372377 0.93907080
vn -0.00000000 -0.17186188 0.98512105
vn -0.00000000 -0.34372377 0.93907080
vn 0.00000000 0.64139729 0.76720892
vn 0.00000000 0.76720892 0.64139729
vn 0.00000000 0.34372377 0.93907080
vn 0.00000000 0.17186188 0.98512105
vn 0.00000000 0.93837357 0.34562269
vn 0.00000000 0.98438322 0.17603884
vn 0.00000000 0.76720892 0.64139729
vn 0.00000000 0.64139729 0.76720892
vn -0.00000000 -0.34372377 0.93907080
vn -0.00000000 -0.17186188 0.98512105
vn -0.00000000 -0.63984400 0.76850482
vn -0.00000000 -0.76448146 0.64464572
vn 1.00000000 -0.00000000 0.00000000
vn 1.00000000 -0.00000000 0.00000000
vn 1.00000000 -0.00000000 0.00000000
vn -0.00000000 -0.76448146 0.64464572
vn -0.00000000 -0.63984400 0.76850482
vn -0.00000000 -0.86287618 0.50541538
vn -0.00000000 -0.86287618 0.50541538
vn 1.00000000 -0.00000000 0.00000000
vn 1.00000000 -0.00000000 0.00000000
vn 1.00000000 -0.00000000 0.00000000
vn 1.00000000 -0.00000000 0.00000000
vn 0.00000000 0.99998038 0.00626447
vn 0.00000000 0.99998038 0.00626447
vn 0.00000000 0.98438322 0.17603884
vn 0.00000000 0.93837357 0.34562269
vn 1.00000000 -0.00000000 0.00000000
vn 1.00000000 -0.00000000 0.00000000
vn 1.00000000 -0.00000000 0.00000000
vn 1.00000000 -0.00000000 0.00000000
vn 0.00000000 0.00000000 1.00000000
vn 0.00000000 0.00000000 1.00000000
vn 0.00000000 0.00000000 1.00000000
vn -0.00000000 0.00000000 1.00000000
vn -0.00000000 0.00000000 1.00000000
vn -0.00000000 0.00000000 1.00000000
vn 0.00000000 0.00000000 1.00000000
vn -0.00000000 0.00000000 1.00000000
vn -0.81811048 -0.57506107 0.00000000
vn -0.90707274 -0.42097392 0.00000000
vn -0.57506107 -0.81811048 0.00000000
vn -0.42097392 -0.90707274 0.00000000
vn -0.00000000 0.00000000 1.00000000
vn -0.00000000 0.00000000 1.00000000
vn -0.00000000 0.00000000 1.00000000
vn -0.00000000 0.00000000 1.00000000
vn -0.99603500 -0.08896226 0.00000000
vn -0.99603500 0.08896226 -0.00000000
vn -0.90707274 -0.42097392 0.00000000
vn -0.81811048 -0.57506107 0.00000000
vn -0.00000000 0.00000000 1.00000000
vn -0.00000000 0.00000000 1.00000000
vn -0.00000000 0.00000000 1.00000000
vn -0.00000000 0.00000000 1.00000000
vn -0.90707274 0.42097392 -0.00000000
vn -0.81811048 0.57506107 -0.00000000
vn -0.99603500 0.08896226 -0.00000000
vn -0.99603500 -0.08896226 0.00000000
vn -0.00000000 0.00000000 1.00000000
vn -0.00000000 0.00000000 1.00000000
vn -0.00000000 0.00000000 1.00000000
vn -0.00000000 0.00000000 1.00000000
vn -0.57506107 0.81811048 -0.00000000
vn -0.42097392 0.90707274 -0.00000000
vn -0.81811048 0.57506107 -0.00000000
vn -0.90707274 0.42097392 -0.00000000
vn -0.00000000 0.00000000 1.00000000
vn -0.00000000 0.00000000 1.00000000
vn -0.00000000 0.00000000 1.00000000
vn 0.00000000 0.00000000 1.00000000
vn 0.00000000 0.00000000 1.00000000
vn -0.00000000 0.00000000 1.00000000
vn 0.00000000 0.00000000 1.00000000
vn 0.00000000 0.00000000 1.00000000
vn -0.08896226 0.99603500 -0.00000000
vn 0.08896226 0.99603500 -0.00000000
vn -0.42097392 0.90707274 -0.00000000
vn -0.57506107 0.81811048 -0.00000000
vn 0.00000000 0.00000000 1.00000000
vn 0.00000000 0.00000000 1.00000000
vn 0.00000000 0.00000000 1.00000000
vn 0.00000000 0.00000000 1.00000000
vn 0.42097392 0.90707274 -0.00000000
vn 0.57506107 0.81811048 -0.00000000
vn 0.08896226 0.99603500 -0.00000000
vn -0.08896226 0.99603500 -0.00000000
vn 0.00000000 0.00000000 1.00000000
vn 0.00000000 0.00000000 1.00000000
vn 0.00000000 0.00000000 1.00000000
vn 0.00000000 0.00000000 1.00000000
vn -0.00000000 0.00000000 1.00000000
vn 0.00000000 0.00000000 1.00000000
vn 0.00000000 0.00000000 1.00000000
vn -0.00000000 0.00000000 1.00000000
vn -0.08896226 -0.99603500 0.00000000
vn 0.08896226 -0.99603500 0.00000000
vn -0.42097392 -0.90707274 0.00000000
vn -0.57506107 -0.81811048 0.00000000
vn 0.00000000 0.00000000 1.00000000
vn -0.00000000 0.00000000 1.00000000
vn -0.00000000 0.00000000 1.00000000
vn 0.00000000 0.00000000 1.00000000
vn 0.57506107 -0.81811048 0.00000000
vn 0.42097392 -0.90707274 0.00000000
vn 0.81811048 -0.57506107 0.00000000
vn 0.90707274 -0.42097392 0.00000000
vn 0.42097392 -0.90707274 0.00000000
vn 0.57506107 -0.81811048 0.00000000
vn 0.08896226 -0.99603500 0.00000000
vn -0.08896226 -0.99603500 0.00000000
vn 0.99603500 -0.08896226 0.00000000
vn 0.99603500 0.08896226 -0.00000000
vn 0.90707274 -0.42097392 0.00000000
vn 0.81811048 -0.57506107 0.00000000
vn 0.00000000 0.00000000 1.00000000
vn 0.00000000 0.00000000 1.00000000
vn 0.00000000 0.00000000 1.00000000
vn 0.00000000 0.00000000 1.00000000
vn 0.81811048 0.57506107 -0.00000000
vn 0.90707274 0.42097392 -0.00000000
vn 0.57506107 0.81811048 -0.00000000
vn 0.42097392 0.90707274 -0.00000000
vn 0.90707274 0.42097392 -0.00000000
vn 0.81811048 0.57506107 -0.00000000
vn 0.99603500 0.08896226 -0.00000000
vn 0.99603500 -0.08896226 0.00000000
vn 0.89127975 -0.23178782 0.38973685
vn 0.40211725 -0.82849677 0.38973685
vn 0.42780136 -0.90387278 0.00000000
vn 0.97022952 -0.24218726 0.00000000
vn -0.97022952 -0.24218726 0.00000000
vn -0.42780136 -0.90387278 0.00000000
vn -0.40211725 -0.82849677 0.38973685
vn -0.89127975 -0.23178782 0.38973685
vn -0.40211725 -0.82849677 0.38973685
vn -0.42780136 -0.90387278 0.00000000
vn 0.42780136 -0.90387278 0.00000000
vn 0.40211725 -0.82849677 0.38973685
vn -0.37328852 -0.30600973 0.87579320
vn -0.40211725 -0.82849677 0.38973685
vn 0.40211725 -0.82849677 0.38973685
vn 0.37328852 -0.30600973 0.87579320
vn -0.33663332 0.94163581 -0.00000000
vn -0.85730813 0.51480362 -0.00000000
vn -0.79591995 0.49202368 0.35273805
vn -0.32633779 0.87697178 0.35273805
vn -0.79591995 0.49202368 0.35273805
vn -0.85730813 0.51480362 -0.00000000
vn -0.97022952 -0.24218726 0.00000000
vn -0.89127975 -0.23178782 0.38973685
vn -0.34572208 0.42173196 0.83822336
vn -0.79591995 0.49202368 0.35273805
vn -0.89127975 -0.23178782 0.38973685
vn -0.37328852 -0.30600973 0.87579320
vn -0.37328852 -0.30600973 0.87579320
vn -0.89127975 -0.23178782 0.38973685
vn -0.40211725 -0.82849677 0.38973685
vn -0.34572208 0.42173196 0.83822336
vn -0.37328852 -0.30600973 0.87579320
vn 0.37328852 -0.30600973 0.87579320
vn 0.34572208 0.42173196 0.83822336
vn 0.89127975 -0.23178782 0.38973685
vn 0.37328852 -0.30600973 0.87579320
vn 0.40211725 -0.82849677 0.38973685
vn 0.34572208 0.42173196 0.83822336
vn 0.37328852 -0.30600973 0.87579320
vn 0.89127975 -0.23178782 0.38973685
vn 0.79591995 0.49202368 0.35273805
vn 0.32633779 0.87697178 0.35273805
vn 0.34572208 0.42173196 0.83822336
vn 0.79591995 0.49202368 0.35273805
vn 0.32633779 0.87697178 0.35273805
vn 0.33663332 0.94163581 -0.00000000
vn -0.33663332 0.94163581 -0.00000000
vn -0.32633779 0.87697178 0.35273805
vn 0.34572208 0.42173196 0.83822336
vn 0.32633779 0.87697178 0.35273805
vn -0.32633779 0.87697178 0.35273805
vn -0.34572208 0.42173196 0.83822336
vn -0.79591995 0.49202368 0.35273805
vn -0.34572208 0.42173196 0.83822336
vn -0.32633779 0.87697178 0.35273805

g KV-VI_Cannon_Rear
f 70/1/1 65/2/2 1/3/3 63/4/4
f 1/5/5 65/6/6 64/7/7 2/8/8
f 3/9/9 4/10/10 41/11/11
f 42/12/12 43/13/13 3/14/14 41/15/15
f 42/16/16 40/17/17 5/18/18 43/19/19
f 44/20/20 4/21/21 3/22/22 46/23/23
f 45/24/24 41/25/25 4/26/26 44/27/27
f 48/28/28 42/29/29 41/30/30 45/31/31
f 46/32/32 3/33/33 43/34/34 47/35/35
f 45/36/36 44/37/37 46/38/38
f 47/39/39 43/40/40 5/41/41 6/42/42
f 48/43/43 45/44/44 46/45/45 47/46/46
f 49/47/47 40/48/48 42/49/49 48/50/50
f 48/51/51 47/52/52 6/53/53 49/54/54
f 50/55/55 26/56/56 7/57/57 24/58/58
f 10/59/59 24/60/60 7/61/61 8/62/62
f 10/63/63 9/64/64 51/65/65 24/66/66
f 13/67/67 10/68/68 8/69/69 11/70/70
f 13/71/71 12/72/72 9/73/73 10/74/74
f 16/75/75 13/76/76 11/77/77 14/78/78
f 16/79/79 15/80/80 12/81/81 13/82/82
f 20/83/83 16/84/84 14/85/85 17/86/86
f 20/87/87 19/88/88 15/89/89 16/90/90
f 52/91/91 20/92/92 17/93/93 18/94/94
f 53/95/95 52/96/96 18/97/97 21/98/98
f 52/99/99 22/100/100 19/101/101 20/102/102
f 58/103/103 53/104/104 21/105/105 28/106/106
f 53/107/107 30/108/108 22/109/109 52/110/110
f 27/111/111 31/112/112 29/113/113 23/114/114
f 55/115/115 27/116/116 23/117/117 25/118/118
f 57/119/119 50/120/120 24/121/121 51/122/122
f 50/123/123 55/124/124 25/125/125 26/126/126
f 55/127/127 56/128/128 54/129/129 27/130/130
f 56/131/131 55/132/132 50/133/133 57/134/134
f 60/135/135 31/136/136 27/137/137 54/138/138
f 31/139/139 58/140/140 28/141/141 29/142/142
f 58/143/143 59/144/144 30/145/145 53/146/146
f 59/147/147 58/148/148 31/149/149 60/150/150
f 64/151/151 66/152/152 33/153/153 2/154/154
f 35/155/155 32/156/156 62/157/157 67/158/158
f 62/159/159 32/160/160 33/161/161 66/162/162
f 36/163/163 62/164/164 66/165/165 37/166/166
f 38/167/167 34/168/168 61/169/169 39/170/170
f 61/171/171 34/172/172 35/173/173 67/174/174
f 69/175/175 61/176/176 67/177/177 36/178/178
f 36/179/179 67/180/180 62/181/181
f 69/182/182 36/183/183 37/184/184 68/185/185
f 64/186/186 37/187/187 66/188/188
f 68/189/189 37/190/190 64/191/191 65/192/192
f 70/193/193 68/194/194 65/195/195
f 70/196/196 63/197/197 38/198/198 39/199/199
f 68/200/200 70/201/201 39/202/202 69/203/203
f 61/204/204 69/205/205 39/206/206

