# RokuSuper Output Ver6.0 for Wavefront Obj

v -0.16339926 2.92553004 -0.16999899
v 0.16217031 2.92553004 -0.16999899
v 0.16217031 2.71561004 -0.17000101
v -0.16339926 2.71561004 -0.17000101
v 0.16217031 2.71560672 -0.08095596
v -0.16339926 2.71560672 -0.08095596
v 0.16217031 2.92553336 -0.08095596
v -0.16339926 2.92553336 -0.08095596
v -0.16339926 2.88164718 -0.05731059
v 0.16217031 2.88164718 -0.05731059
v -0.16339926 2.75949290 -0.05731059
v 0.16217031 2.75949290 -0.05731059
v -0.04720710 2.82333550 0.17966916
v -0.02360355 2.78245295 0.17966916
v 0.02360355 2.78245295 0.17966916
v 0.04720710 2.82333550 0.17966916
v 0.02360355 2.86421805 0.17966916
v -0.02360355 2.86421805 0.17966916
v -0.03147140 2.87784557 -0.05779219
v -0.03147140 2.87784557 0.17966916
v 0.03147140 2.87784557 -0.05779219
v 0.03147140 2.87784557 0.17966916
v 0.06294280 2.82333550 -0.05779219
v 0.06294280 2.82333550 0.17966916
v 0.03147140 2.76882543 -0.05779219
v 0.03147140 2.76882543 0.17966916
v -0.03147140 2.76882543 -0.05779219
v -0.03147140 2.76882543 0.17966916
v -0.06294280 2.82333550 -0.05779219
v -0.06294280 2.82333550 0.17966916
v -0.12962551 2.81194815 0.19799826
v -0.13619943 2.82333452 0.19799826
v -0.12962551 2.83472089 0.19799826
v -0.11647766 2.83472089 0.19799826
v -0.10990373 2.82333452 0.19799826
v -0.11647766 2.81194815 0.19799826
v -0.12305158 2.82333452 0.19799826
v -0.13400813 2.80435723 0.01334558
v -0.13400813 2.80435723 -0.05731550
v -0.14496467 2.82333452 0.01334558
v -0.14496467 2.82333452 -0.05731550
v -0.13400813 2.84231181 0.01334558
v -0.13400813 2.84231181 -0.05731550
v -0.11209504 2.84231181 0.01334558
v -0.11209504 2.84231181 -0.05731550
v -0.10113850 2.82333452 0.01334558
v -0.10113850 2.82333452 -0.05731550
v -0.11209504 2.80435723 0.01334558
v -0.11209504 2.80435723 -0.05731550
v -0.11647766 2.81194815 0.01334558
v -0.10990373 2.82333452 0.01334558
v -0.11647766 2.83472089 0.01334558
v -0.12962551 2.83472089 0.01334558
v -0.13619943 2.82333452 0.01334558
v -0.12962551 2.81194815 0.01334558

vt 0.59955063 0.86468369
vt 0.59955063 0.87347033
vt 0.59955063 0.89792923
vt 0.59955063 0.90671588
vt 0.59955063 0.89792923
vt 0.59955063 0.90671654
vt 0.59955063 0.90671588
vt 0.65509814 0.86468369
vt 0.59955063 0.86468369
vt 0.59955063 0.90671588
vt 0.65509814 0.90671588
vt 0.65509814 0.90671588
vt 0.59955063 0.90671588
vt 0.59955063 0.90671654
vt 0.65509814 0.90671654
vt 0.65509814 0.89792923
vt 0.65509814 0.87347033
vt 0.65509814 0.86468369
vt 0.65509814 0.90671588
vt 0.65509814 0.89792923
vt 0.65509814 0.90671588
vt 0.65509814 0.90671654
vt 0.59955063 0.86468369
vt 0.65509814 0.86468369
vt 0.65509814 0.86468302
vt 0.59955063 0.86468302
vt 0.65509814 0.87347033
vt 0.65509814 0.86468302
vt 0.65509814 0.86468369
vt 0.59955063 0.87347033
vt 0.59955063 0.86468369
vt 0.59955063 0.86468302
vt 0.59955063 0.87347033
vt 0.59955063 0.86468302
vt 0.65509814 0.86468302
vt 0.65509814 0.87347033
vt 0.65509814 0.89792923
vt 0.65509814 0.90671654
vt 0.59955063 0.90671654
vt 0.59955063 0.89792923
vt 0.65509814 0.87347033
vt 0.65509814 0.89792923
vt 0.59955063 0.89792923
vt 0.59955063 0.87347033
vt 0.93515891 0.72634599
vt 0.93515891 0.72634599
vt 0.93515891 0.71685849
vt 0.93515891 0.71923036
vt 0.93515891 0.71923036
vt 0.93515891 0.71685849
vt 0.93515891 0.71685849
vt 0.93515891 0.71923036
vt 0.93515891 0.71923036
vt 0.93515891 0.71685849
vt 0.93515891 0.72634599
vt 0.93515891 0.72634599
vt 0.93515891 0.72634599
vt 0.93515891 0.72634599
vt 0.93515891 0.73583349
vt 0.93515891 0.73346161
vt 0.93515891 0.73346161
vt 0.93515891 0.73583349
vt 0.93515891 0.72634599
vt 0.93515891 0.72634599
vt 0.93515891 0.73346161
vt 0.93515891 0.73583349
vt 0.93515891 0.73583349
vt 0.93515891 0.73346161
vt 0.98677938 0.72634599
vt 0.93515891 0.72634599
vt 0.93515891 0.73583349
vt 0.98677938 0.73583349
vt 0.98677938 0.73583349
vt 0.93515891 0.73583349
vt 0.93515891 0.73583349
vt 0.98677938 0.73583349
vt 0.98677938 0.73583349
vt 0.93515891 0.73583349
vt 0.93515891 0.72634599
vt 0.98677938 0.72634599
vt 0.98677938 0.72634599
vt 0.93515891 0.72634599
vt 0.93515891 0.71685849
vt 0.98677938 0.71685849
vt 0.98677938 0.71685849
vt 0.93515891 0.71685849
vt 0.93515891 0.71685849
vt 0.98677938 0.71685849
vt 0.98677938 0.71685849
vt 0.93515891 0.71685849
vt 0.93515891 0.72634599
vt 0.98677938 0.72634599
vt 0.86540815 0.69303309
vt 0.86540815 0.69734834
vt 0.86540815 0.69734834
vt 0.86540815 0.69734834
vt 0.86540815 0.69734834
vt 0.86540815 0.70166360
vt 0.86540815 0.70166360
vt 0.86540815 0.69734834
vt 0.86540815 0.70166360
vt 0.86540815 0.70166360
vt 0.86540815 0.69734834
vt 0.86540815 0.69734834
vt 0.86540815 0.69734834
vt 0.86540815 0.69734834
vt 0.86540815 0.69303309
vt 0.86540815 0.69303309
vt 0.86540815 0.69734834
vt 0.86540815 0.69303309
vt 0.98625881 0.69734834
vt 0.98625881 0.69015625
vt 0.95281197 0.69015625
vt 0.95281197 0.69734834
vt 0.98625881 0.70454043
vt 0.98625881 0.69734834
vt 0.95281197 0.69734834
vt 0.95281197 0.70454043
vt 0.98625881 0.70454043
vt 0.98625881 0.70454043
vt 0.95281197 0.70454043
vt 0.95281197 0.70454043
vt 0.98625881 0.69734834
vt 0.98625881 0.70454043
vt 0.95281197 0.70454043
vt 0.95281197 0.69734834
vt 0.98625881 0.69015625
vt 0.98625881 0.69734834
vt 0.95281197 0.69734834
vt 0.95281197 0.69015625
vt 0.98625881 0.69015625
vt 0.98625881 0.69015625
vt 0.95281197 0.69015625
vt 0.95281197 0.69015625
vt 0.95281197 0.69015625
vt 0.95281197 0.69303309
vt 0.95281197 0.69303309
vt 0.95281197 0.69015625
vt 0.95281197 0.69734834
vt 0.95281197 0.69734834
vt 0.95281197 0.69303309
vt 0.95281197 0.69015625
vt 0.95281197 0.70454043
vt 0.95281197 0.70166360
vt 0.95281197 0.69734834
vt 0.95281197 0.69734834
vt 0.95281197 0.70454043
vt 0.95281197 0.70166360
vt 0.95281197 0.70166360
vt 0.95281197 0.70454043
vt 0.95281197 0.69734834
vt 0.95281197 0.69734834
vt 0.95281197 0.70166360
vt 0.95281197 0.70454043
vt 0.95281197 0.69015625
vt 0.95281197 0.69303309
vt 0.95281197 0.69734834
vt 0.95281197 0.69734834
vt 0.86540815 0.69303309
vt 0.86540815 0.69734834
vt 0.95281197 0.69734834
vt 0.95281197 0.69303309
vt 0.86540815 0.69734834
vt 0.86540815 0.70166360
vt 0.95281197 0.70166360
vt 0.95281197 0.69734834
vt 0.86540815 0.70166360
vt 0.86540815 0.70166360
vt 0.95281197 0.70166360
vt 0.95281197 0.70166360
vt 0.86540815 0.70166360
vt 0.86540815 0.69734834
vt 0.95281197 0.69734834
vt 0.95281197 0.70166360
vt 0.95281197 0.69303309
vt 0.86540815 0.69303309
vt 0.86540815 0.69303309
vt 0.95281197 0.69303309
vt 0.86540815 0.69734834
vt 0.86540815 0.69303309
vt 0.95281197 0.69303309
vt 0.95281197 0.69734834

vn -1.00000000 0.00000000 -0.00000000
vn -1.00000000 0.00000000 -0.00000000
vn -1.00000000 0.00000000 0.00000000
vn -1.00000000 0.00000000 0.00000000
vn -1.00000000 0.00000000 0.00000000
vn -1.00000000 0.00000000 0.00000000
vn -1.00000000 0.00000000 0.00000000
vn -0.00000000 0.00000962 -1.00000000
vn -0.00000000 0.00000962 -1.00000000
vn -0.00000000 0.00000962 -1.00000000
vn -0.00000000 0.00000962 -1.00000000
vn 0.00000000 1.00000000 -0.00003726
vn 0.00000000 1.00000000 -0.00003726
vn 0.00000000 1.00000000 -0.00003726
vn 0.00000000 1.00000000 -0.00003726
vn 1.00000000 -0.00000000 -0.00000000
vn 1.00000000 -0.00000000 0.00000000
vn 1.00000000 -0.00000000 0.00000000
vn 1.00000000 -0.00000000 -0.00000000
vn 1.00000000 -0.00000000 -0.00000000
vn 1.00000000 -0.00000000 -0.00000000
vn 1.00000000 -0.00000000 -0.00000000
vn -0.00000000 -1.00000000 -0.00003726
vn -0.00000000 -1.00000000 -0.00003726
vn -0.00000000 -1.00000000 -0.00003726
vn -0.00000000 -1.00000000 -0.00003726
vn 1.00000000 -0.00000000 0.00000000
vn 1.00000000 -0.00000000 0.00000000
vn 1.00000000 -0.00000000 0.00000000
vn -1.00000000 0.00000000 -0.00000000
vn -1.00000000 0.00000000 -0.00000000
vn -1.00000000 0.00000000 -0.00000000
vn -0.00000000 -0.32497401 0.94572295
vn -0.00000000 -0.47432302 0.88035088
vn -0.00000000 -0.47432302 0.88035088
vn 0.00000000 -0.16248700 0.98671068
vn 0.00000000 0.32497401 0.94572295
vn 0.00000000 0.47432302 0.88035088
vn 0.00000000 0.47432302 0.88035088
vn 0.00000000 0.16248700 0.98671068
vn 0.00000000 -0.16248700 0.98671068
vn 0.00000000 0.32497401 0.94572295
vn 0.00000000 0.16248700 0.98671068
vn -0.00000000 -0.32497401 0.94572295
vn 0.00000000 0.00000000 1.00000000
vn -0.00000000 -0.00000000 1.00000000
vn 0.00000000 0.00000000 1.00000000
vn 0.00000000 -0.00000000 1.00000000
vn 0.00000000 -0.00000000 1.00000000
vn 0.00000000 0.00000000 1.00000000
vn 0.00000000 -0.00000000 1.00000000
vn 0.00000000 -0.00000000 1.00000000
vn 0.00000000 -0.00000000 1.00000000
vn 0.00000000 -0.00000000 1.00000000
vn 0.00000000 -0.00000000 1.00000000
vn 0.00000000 0.00000000 1.00000000
vn 0.00000000 0.00000000 1.00000000
vn 0.00000000 -0.00000000 1.00000000
vn 0.00000000 0.00000000 1.00000000
vn 0.00000000 0.00000000 1.00000000
vn -0.00000000 -0.00000000 1.00000000
vn 0.00000000 -0.00000000 1.00000000
vn -0.00000000 -0.00000000 1.00000000
vn 0.00000000 0.00000000 1.00000000
vn 0.00000000 0.00000000 1.00000000
vn 0.00000000 0.00000000 1.00000000
vn 0.00000000 -0.00000000 1.00000000
vn -0.00000000 -0.00000000 1.00000000
vn -0.98198051 0.18898224 -0.00000000
vn -0.98198051 -0.18898224 0.00000000
vn -0.65465367 0.75592895 -0.00000000
vn -0.32732684 0.94491118 -0.00000000
vn -0.32732684 0.94491118 -0.00000000
vn -0.65465367 0.75592895 -0.00000000
vn 0.32732684 0.94491118 -0.00000000
vn 0.65465367 0.75592895 -0.00000000
vn 0.65465367 0.75592895 -0.00000000
vn 0.32732684 0.94491118 -0.00000000
vn 0.98198051 0.18898224 -0.00000000
vn 0.98198051 -0.18898224 0.00000000
vn 0.98198051 -0.18898224 0.00000000
vn 0.98198051 0.18898224 -0.00000000
vn 0.65465367 -0.75592895 0.00000000
vn 0.32732684 -0.94491118 0.00000000
vn 0.32732684 -0.94491118 0.00000000
vn 0.65465367 -0.75592895 0.00000000
vn -0.32732684 -0.94491118 0.00000000
vn -0.65465367 -0.75592895 0.00000000
vn -0.65465367 -0.75592895 0.00000000
vn -0.32732684 -0.94491118 0.00000000
vn -0.98198051 -0.18898224 0.00000000
vn -0.98198051 0.18898224 -0.00000000
vn 0.00000000 -0.00000000 1.00000000
vn 0.00000000 -0.00000000 1.00000000
vn 0.00000000 -0.00000000 1.00000000
vn 0.00000000 -0.00000000 1.00000000
vn 0.00000000 0.00000000 1.00000000
vn 0.00000000 0.00000000 1.00000000
vn 0.00000000 0.00000000 1.00000000
vn 0.00000000 -0.00000000 1.00000000
vn 0.00000000 -0.00000000 1.00000000
vn 0.00000000 -0.00000000 1.00000000
vn 0.00000000 -0.00000000 1.00000000
vn 0.00000000 -0.00000000 1.00000000
vn 0.00000000 -0.00000000 1.00000000
vn 0.00000000 0.00000000 1.00000000
vn 0.00000000 0.00000000 1.00000000
vn 0.00000000 0.00000000 1.00000000
vn 0.00000000 -0.00000000 1.00000000
vn 0.00000000 -0.00000000 1.00000000
vn -0.98198051 -0.18898224 -0.00000000
vn -0.32732684 -0.94491118 -0.00000000
vn -0.65465367 -0.75592895 -0.00000000
vn -0.98198051 0.18898224 -0.00000000
vn -0.65465367 0.75592895 -0.00000000
vn -0.98198051 -0.18898224 -0.00000000
vn -0.98198051 0.18898224 -0.00000000
vn -0.32732684 0.94491118 0.00000000
vn 0.32732684 0.94491118 0.00000000
vn -0.65465367 0.75592895 -0.00000000
vn -0.32732684 0.94491118 0.00000000
vn 0.65465367 0.75592895 0.00000000
vn 0.98198051 0.18898224 0.00000000
vn 0.32732684 0.94491118 0.00000000
vn 0.65465367 0.75592895 0.00000000
vn 0.98198051 -0.18898224 0.00000000
vn 0.65465367 -0.75592895 0.00000000
vn 0.98198051 0.18898224 0.00000000
vn 0.98198051 -0.18898224 0.00000000
vn 0.32732684 -0.94491118 -0.00000000
vn -0.32732684 -0.94491118 -0.00000000
vn 0.65465367 -0.75592895 0.00000000
vn 0.32732684 -0.94491118 -0.00000000
vn -0.65465367 -0.75592895 -0.00000000
vn 0.00000000 0.00000000 1.00000000
vn 0.00000000 0.00000000 1.00000000
vn 0.00000000 -0.00000000 1.00000000
vn 0.00000000 -0.00000000 1.00000000
vn 0.00000000 0.00000000 1.00000000
vn 0.00000000 -0.00000000 1.00000000
vn 0.00000000 0.00000000 1.00000000
vn 0.00000000 0.00000000 1.00000000
vn 0.00000000 -0.00000000 1.00000000
vn 0.00000000 -0.00000000 1.00000000
vn 0.00000000 -0.00000000 1.00000000
vn 0.00000000 0.00000000 1.00000000
vn 0.00000000 -0.00000000 1.00000000
vn 0.00000000 -0.00000000 1.00000000
vn 0.00000000 -0.00000000 1.00000000
vn 0.00000000 -0.00000000 1.00000000
vn 0.00000000 -0.00000000 1.00000000
vn 0.00000000 -0.00000000 1.00000000
vn 0.00000000 -0.00000000 1.00000000
vn 0.00000000 -0.00000000 1.00000000
vn 0.00000000 -0.00000000 1.00000000
vn 0.00000000 -0.00000000 1.00000000
vn 0.00000000 -0.00000000 1.00000000
vn 0.00000000 -0.00000000 1.00000000
vn -0.50000000 -0.86602540 0.00000000
vn -0.98198051 0.18898224 0.00000000
vn -0.98198051 -0.18898224 0.00000000
vn -0.50000000 -0.86602540 0.00000000
vn -0.98198051 0.18898224 0.00000000
vn -0.32732684 0.94491118 -0.00000000
vn -0.65465367 0.75592895 -0.00000000
vn -0.98198051 -0.18898224 0.00000000
vn -0.32732684 0.94491118 -0.00000000
vn 0.65465367 0.75592895 -0.00000000
vn 0.32732684 0.94491118 -0.00000000
vn -0.65465367 0.75592895 -0.00000000
vn 0.65465367 0.75592895 -0.00000000
vn 0.98198051 -0.18898224 0.00000000
vn 0.98198051 0.18898224 0.00000000
vn 0.32732684 0.94491118 -0.00000000
vn 0.50000000 -0.86602540 0.00000000
vn 0.50000000 -0.86602540 0.00000000
vn -0.50000000 -0.86602540 0.00000000
vn -0.50000000 -0.86602540 0.00000000
vn 0.98198051 -0.18898224 0.00000000
vn 0.50000000 -0.86602540 0.00000000
vn 0.50000000 -0.86602540 0.00000000
vn 0.98198051 0.18898224 0.00000000

g KV-VI_ChildCannon_Center
f 4/1/1 11/2/2 9/3/3 1/4/4
f 9/5/5 8/6/6 1/7/7
f 3/8/8 4/9/9 1/10/10 2/11/11
f 2/12/12 1/13/13 8/14/14 7/15/15
f 10/16/16 12/17/17 3/18/18 2/19/19
f 10/20/20 2/21/21 7/22/22
f 4/23/23 3/24/24 5/25/25 6/26/26
f 12/27/27 5/28/28 3/29/29
f 11/30/30 4/31/31 6/32/32
f 11/33/33 6/34/34 5/35/35 12/36/36
f 10/37/37 7/38/38 8/39/39 9/40/40
f 12/41/41 10/42/42 9/43/43 11/44/44
f 13/45/45 30/46/46 28/47/47 14/48/48
f 14/49/49 28/50/50 26/51/51 15/52/52
f 15/53/53 26/54/54 24/55/55 16/56/56
f 16/57/57 24/58/58 22/59/59 17/60/60
f 18/61/61 20/62/62 30/63/63 13/64/64
f 17/65/65 22/66/66 20/67/67 18/68/68
f 29/69/69 30/70/70 20/71/71 19/72/72
f 19/73/73 20/74/74 22/75/75 21/76/76
f 21/77/77 22/78/78 24/79/79 23/80/80
f 23/81/81 24/82/82 26/83/83 25/84/84
f 25/85/85 26/86/86 28/87/87 27/88/88
f 27/89/89 28/90/90 30/91/91 29/92/92
f 31/93/93 37/94/94 32/95/95
f 32/96/96 37/97/97 33/98/98
f 33/99/99 37/100/100 34/101/101
f 34/102/102 37/103/103 35/104/104
f 35/105/105 37/106/106 36/107/107
f 36/108/108 37/109/109 31/110/110
f 41/111/111 39/112/112 38/113/113 40/114/114
f 43/115/115 41/116/116 40/117/117 42/118/118
f 45/119/119 43/120/120 42/121/121 44/122/122
f 47/123/123 45/124/124 44/125/125 46/126/126
f 49/127/127 47/128/128 46/129/129 48/130/130
f 39/131/131 49/132/132 48/133/133 38/134/134
f 48/135/135 50/136/136 55/137/137 38/138/138
f 46/139/139 51/140/140 50/141/141 48/142/142
f 44/143/143 52/144/144 51/145/145 46/146/146
f 42/147/147 53/148/148 52/149/149 44/150/150
f 40/151/151 54/152/152 53/153/153 42/154/154
f 38/155/155 55/156/156 54/157/157 40/158/158
f 31/159/159 32/160/160 54/161/161 55/162/162
f 32/163/163 33/164/164 53/165/165 54/166/166
f 33/167/167 34/168/168 52/169/169 53/170/170
f 34/171/171 35/172/172 51/173/173 52/174/174
f 50/175/175 36/176/176 31/177/177 55/178/178
f 35/179/179 36/180/180 50/181/181 51/182/182

