# RokuSuper Output Ver6.0 for Wavefront Obj

v -1.00000001 0.74942992 -6.11845691
v -1.00000001 0.38693205 -6.45767746
v 1.00000001 -0.44179458 -6.11857388
v -1.00000001 -0.44179458 6.14918794
v 1.00000001 0.74942992 -6.11845691
v 1.00000001 -0.44179458 6.14918794
v 1.00000001 0.23704607 6.58089447
v 1.00000001 0.74942992 5.56469985
v 1.00000001 0.38693205 -6.45767746
v 1.00000001 -0.31986750 6.37355954
v -1.00000001 0.74942992 5.56469985
v -1.00000001 -0.44179458 -6.11857388
v -1.00000001 -0.31986750 6.37355954
v -1.00000001 0.23704607 6.58089447

vt 0.42330448 0.00000000
vt 0.57669552 0.00000000
vt 0.57669552 0.02601670
vt 0.42330448 0.02601670
vt 0.42330448 0.98409834
vt 0.42330448 0.92206243
vt 0.42330448 1.00000000
vt 0.42330448 0.92206243
vt 0.42330448 0.96689005
vt 0.42330448 0.02600772
vt 0.42330448 0.96689005
vt 0.42330448 0.92206243
vt 0.42330448 0.98409834
vt 0.42330448 1.00000000
vt 0.42330448 0.92206243
vt 0.57669552 0.92206243
vt 0.57669552 1.00000000
vt 0.57669552 0.02600772
vt 0.42330448 0.02600772
vt 0.42330448 0.96689005
vt 0.57669552 0.96689005
vt 0.57669552 0.92206243
vt 0.57669552 0.00000000
vt 0.57669552 0.02600772
vt 0.42330448 0.92206243
vt 0.42330448 0.02600772
vt 0.42330448 0.00000000
vt 0.42330448 0.02600772
vt 0.57669552 0.02600772
vt 0.57669552 0.00000000
vt 0.42330448 0.00000000
vt 0.57669552 0.96689005
vt 0.42330448 0.96689005
vt 0.42330448 0.98409834
vt 0.57669552 0.98409834
vt 0.42330448 0.00000000
vt 0.42330448 0.02601670
vt 0.42330448 0.92206243
vt 0.57669552 0.92206243
vt 0.57669552 0.96689005
vt 0.57669552 0.98409834
vt 0.57669552 0.96689005
vt 0.57669552 0.92206243
vt 0.57669552 0.02600772
vt 0.57669552 0.92206243
vt 0.57669552 0.98409834
vt 0.57669552 1.00000000
vt 0.57669552 0.02601670
vt 0.57669552 0.00000000
vt 0.57669552 0.92206243
vt 0.57669552 0.02601670
vt 0.57669552 0.92206243
vt 0.42330448 0.92206243
vt 0.42330448 0.02601670
vt 0.42330448 1.00000000
vt 0.57669552 1.00000000
vt 0.57669552 0.98409834
vt 0.42330448 0.98409834

vn 0.00000000 0.68327490 -0.73016123
vn 0.00000000 0.68327490 -0.73016123
vn 0.00000000 0.68327490 -0.73016123
vn 0.00000000 0.68327490 -0.73016123
vn 1.00000000 0.00000000 0.00000000
vn 1.00000000 0.00000000 0.00000000
vn 1.00000000 0.00000000 0.00000000
vn 1.00000000 0.00000000 0.00000000
vn 1.00000000 0.00000000 0.00000000
vn 1.00000000 0.00000000 0.00000000
vn 1.00000000 0.00000000 0.00000000
vn 1.00000000 0.00000000 0.00000000
vn 1.00000000 0.00000000 0.00000000
vn 0.00000000 0.89291550 0.45022428
vn 0.00000000 0.89291550 0.45022428
vn 0.00000000 0.89291550 0.45022428
vn 0.00000000 0.89291550 0.45022428
vn 0.00000000 -1.00000000 0.00000000
vn 0.00000000 -1.00000000 0.00000000
vn 0.00000000 -1.00000000 0.00000000
vn 0.00000000 -1.00000000 0.00000000
vn -1.00000000 0.00000000 -0.00000000
vn -1.00000000 0.00000000 -0.00000000
vn -1.00000000 0.00000000 -0.00000000
vn 1.00000000 0.00000000 -0.00000000
vn 1.00000000 0.00000000 -0.00000000
vn 1.00000000 0.00000000 -0.00000000
vn 0.00000000 -0.37870847 -0.92551601
vn 0.00000000 -0.37870847 -0.92551601
vn 0.00000000 -0.37870847 -0.92551601
vn 0.00000000 -0.37870847 -0.92551601
vn 0.00000000 -0.87864752 0.47747098
vn 0.00000000 -0.87864752 0.47747098
vn 0.00000000 -0.87864752 0.47747098
vn 0.00000000 -0.87864752 0.47747098
vn 1.00000000 -0.00000000 0.00000000
vn 1.00000000 -0.00000000 0.00000000
vn 1.00000000 -0.00000000 0.00000000
vn -1.00000000 0.00000000 0.00000000
vn -1.00000000 0.00000000 0.00000000
vn -1.00000000 0.00000000 0.00000000
vn -1.00000000 0.00000000 0.00000000
vn -1.00000000 0.00000000 0.00000000
vn -1.00000000 0.00000000 0.00000000
vn -1.00000000 0.00000000 0.00000000
vn -1.00000000 0.00000000 0.00000000
vn -1.00000000 0.00000000 0.00000000
vn -1.00000000 -0.00000000 0.00000000
vn -1.00000000 -0.00000000 0.00000000
vn -1.00000000 -0.00000000 0.00000000
vn 0.00000000 1.00000000 -0.00000000
vn 0.00000000 1.00000000 -0.00000000
vn 0.00000000 1.00000000 -0.00000000
vn 0.00000000 1.00000000 -0.00000000
vn 0.00000000 -0.34889818 0.93716064
vn 0.00000000 -0.34889818 0.93716064
vn 0.00000000 -0.34889818 0.93716064
vn 0.00000000 -0.34889818 0.93716064

g KV-VI_Body_Collider_Lower
f 9/1/1 2/2/2 1/3/3 5/4/4
f 10/5/5 8/6/6 7/7/7
f 8/8/8 6/9/9 3/10/10
f 6/11/11 8/12/12 10/13/13
f 7/14/14 8/15/15 11/16/16 14/17/17
f 12/18/18 3/19/19 6/20/20 4/21/21
f 11/22/22 2/23/23 12/24/24
f 8/25/25 3/26/26 9/27/27
f 3/28/28 12/29/29 2/30/30 9/31/31
f 4/32/32 6/33/33 10/34/34 13/35/35
f 9/36/36 5/37/37 8/38/38
f 11/39/39 4/40/40 13/41/41
f 4/42/42 11/43/43 12/44/44
f 11/45/45 13/46/46 14/47/47
f 1/48/48 2/49/49 11/50/50
f 1/51/51 11/52/52 8/53/53 5/54/54
f 7/55/55 14/56/56 13/57/57 10/58/58

