# RokuSuper Output Ver6.0 for Wavefront Obj

v 0.17742926 1.15761502 1.39803789
v 0.17742926 0.74958501 1.39803789
v 0.32784653 1.15761502 1.49854350
v 0.32784653 0.74958501 1.49854350
v 0.42835213 1.15761502 1.64896076
v 0.42835213 0.74958501 1.64896076
v 0.46364501 1.15761502 1.82639003
v 0.46364501 0.74958501 1.82639003
v 0.42835213 1.15761502 2.00381929
v 0.42835213 0.74958501 2.00381929
v 0.32784653 1.15761502 2.15423656
v 0.32784653 0.74958501 2.15423656
v 0.17742926 1.15761502 2.25474216
v 0.17742926 0.74958501 2.25474216
v -0.00000000 1.15761502 2.29003503
v -0.00000000 0.74958501 2.29003503
v -0.17742926 1.15761502 2.25474216
v -0.17742926 0.74958501 2.25474216
v -0.32784653 1.15761502 2.15423656
v -0.32784653 0.74958501 2.15423656
v -0.42835213 1.15761502 2.00381929
v -0.42835213 0.74958501 2.00381929
v -0.46364501 1.15761502 1.82639003
v -0.46364501 0.74958501 1.82639003
v -0.42835213 1.15761502 1.64896076
v -0.42835213 0.74958501 1.64896076
v -0.32784653 1.15761502 1.49854350
v -0.32784653 0.74958501 1.49854350
v -0.17742926 1.15761502 1.39803789
v -0.17742926 0.74958501 1.39803789
v 0.00000000 1.15761502 1.36274502
v 0.00000000 0.74958501 1.36274502
v 0.00000000 1.15761502 1.82639003
v 0.34441509 1.22301178 -0.83149159
v 0.34441509 0.75000001 -0.83149159
v 0.63639611 1.22301178 -0.63639611
v 0.63639611 0.75000001 -0.63639611
v 0.83149159 1.22301178 -0.34441509
v 0.83149159 0.75000001 -0.34441509
v 0.90000001 1.22301178 0.00000000
v 0.90000001 0.75000001 0.00000000
v 0.83149159 1.22301178 0.34441509
v 0.83149159 0.75000001 0.34441509
v 0.63639611 1.22301178 0.63639611
v 0.63639611 0.75000001 0.63639611
v 0.34441509 1.22301178 0.83149159
v 0.34441509 0.75000001 0.83149159
v -0.00000000 1.22301178 0.90000001
v -0.00000000 0.75000001 0.90000001
v -0.34441509 1.22301178 0.83149159
v -0.34441509 0.75000001 0.83149159
v -0.63639611 1.22301178 0.63639611
v -0.63639611 0.75000001 0.63639611
v -0.83149159 1.22301178 0.34441509
v -0.83149159 0.75000001 0.34441509
v -0.90000001 1.22301178 -0.00000000
v -0.90000001 0.75000001 -0.00000000
v -0.83149159 1.22301178 -0.34441509
v -0.83149159 0.75000001 -0.34441509
v -0.63639611 1.22301178 -0.63639611
v -0.63639611 0.75000001 -0.63639611
v -0.34441509 1.22301178 -0.83149159
v -0.34441509 0.75000001 -0.83149159
v 0.00000000 1.22301178 -0.90000001
v 0.00000000 0.75000001 -0.90000001
v 0.00000000 1.22301178 0.00000000

vt 0.44438015 0.72038014
vt 0.50000000 0.70931667
vt 0.50000000 0.70931667
vt 0.44438015 0.72038014
vt 0.50000000 0.70931667
vt 0.50000000 0.85465833
vt 0.44438015 0.72038014
vt 0.39722792 0.75188626
vt 0.44438015 0.72038014
vt 0.44438015 0.72038014
vt 0.39722792 0.75188626
vt 0.44438015 0.72038014
vt 0.50000000 0.85465833
vt 0.39722792 0.75188626
vt 0.36572181 0.79903849
vt 0.39722792 0.75188626
vt 0.39722792 0.75188626
vt 0.36572181 0.79903849
vt 0.39722792 0.75188626
vt 0.50000000 0.85465833
vt 0.36572181 0.79903849
vt 0.35465833 0.85465833
vt 0.36572181 0.79903849
vt 0.36572181 0.79903849
vt 0.35465833 0.85465833
vt 0.36572181 0.79903849
vt 0.50000000 0.85465833
vt 0.35465833 0.85465833
vt 0.36572181 0.91027818
vt 0.35465833 0.85465833
vt 0.35465833 0.85465833
vt 0.36572181 0.91027818
vt 0.35465833 0.85465833
vt 0.50000000 0.85465833
vt 0.36572181 0.91027818
vt 0.39722792 0.95743041
vt 0.36572181 0.91027818
vt 0.36572181 0.91027818
vt 0.39722792 0.95743041
vt 0.36572181 0.91027818
vt 0.50000000 0.85465833
vt 0.39722792 0.95743041
vt 0.44438015 0.98893652
vt 0.39722792 0.95743041
vt 0.39722792 0.95743041
vt 0.44438015 0.98893652
vt 0.39722792 0.95743041
vt 0.50000000 0.85465833
vt 0.44438015 0.98893652
vt 0.50000000 1.00000000
vt 0.44438015 0.98893652
vt 0.44438015 0.98893652
vt 0.50000000 1.00000000
vt 0.44438015 0.98893652
vt 0.50000000 0.85465833
vt 0.50000000 1.00000000
vt 0.55561985 0.98893652
vt 0.50000000 1.00000000
vt 0.50000000 1.00000000
vt 0.55561985 0.98893652
vt 0.50000000 1.00000000
vt 0.50000000 0.85465833
vt 0.55561985 0.98893652
vt 0.60277208 0.95743041
vt 0.55561985 0.98893652
vt 0.55561985 0.98893652
vt 0.60277208 0.95743041
vt 0.55561985 0.98893652
vt 0.50000000 0.85465833
vt 0.60277208 0.95743041
vt 0.63427819 0.91027818
vt 0.60277208 0.95743041
vt 0.60277208 0.95743041
vt 0.63427819 0.91027818
vt 0.60277208 0.95743041
vt 0.50000000 0.85465833
vt 0.63427819 0.91027818
vt 0.64534167 0.85465833
vt 0.63427819 0.91027818
vt 0.63427819 0.91027818
vt 0.64534167 0.85465833
vt 0.63427819 0.91027818
vt 0.50000000 0.85465833
vt 0.64534167 0.85465833
vt 0.63427819 0.79903849
vt 0.64534167 0.85465833
vt 0.64534167 0.85465833
vt 0.63427819 0.79903849
vt 0.64534167 0.85465833
vt 0.50000000 0.85465833
vt 0.63427819 0.79903849
vt 0.60277208 0.75188626
vt 0.63427819 0.79903849
vt 0.63427819 0.79903849
vt 0.60277208 0.75188626
vt 0.63427819 0.79903849
vt 0.50000000 0.85465833
vt 0.60277208 0.75188626
vt 0.55561985 0.72038014
vt 0.60277208 0.75188626
vt 0.60277208 0.75188626
vt 0.55561985 0.72038014
vt 0.60277208 0.75188626
vt 0.50000000 0.85465833
vt 0.55561985 0.72038014
vt 0.50000000 0.70931667
vt 0.55561985 0.72038014
vt 0.55561985 0.72038014
vt 0.50000000 0.70931667
vt 0.55561985 0.72038014
vt 0.50000000 0.85465833
vt 0.50000000 0.70931667
vt 0.39203407 0.02147576
vt 0.50000000 0.00000000
vt 0.50000000 0.00000000
vt 0.39203407 0.02147576
vt 0.50000000 0.00000000
vt 0.50000000 0.28212857
vt 0.39203407 0.02147576
vt 0.30050498 0.08263354
vt 0.39203407 0.02147576
vt 0.39203407 0.02147576
vt 0.30050498 0.08263354
vt 0.39203407 0.02147576
vt 0.50000000 0.28212857
vt 0.30050498 0.08263354
vt 0.23934719 0.17416264
vt 0.30050498 0.08263354
vt 0.30050498 0.08263354
vt 0.23934719 0.17416264
vt 0.30050498 0.08263354
vt 0.50000000 0.28212857
vt 0.23934719 0.17416264
vt 0.21787143 0.28212857
vt 0.23934719 0.17416264
vt 0.23934719 0.17416264
vt 0.21787143 0.28212857
vt 0.23934719 0.17416264
vt 0.50000000 0.28212857
vt 0.21787143 0.28212857
vt 0.23934719 0.39009449
vt 0.21787143 0.28212857
vt 0.21787143 0.28212857
vt 0.23934719 0.39009449
vt 0.21787143 0.28212857
vt 0.50000000 0.28212857
vt 0.23934719 0.39009449
vt 0.30050498 0.48162359
vt 0.23934719 0.39009449
vt 0.23934719 0.39009449
vt 0.30050498 0.48162359
vt 0.23934719 0.39009449
vt 0.50000000 0.28212857
vt 0.30050498 0.48162359
vt 0.39203407 0.54278137
vt 0.30050498 0.48162359
vt 0.30050498 0.48162359
vt 0.39203407 0.54278137
vt 0.30050498 0.48162359
vt 0.50000000 0.28212857
vt 0.39203407 0.54278137
vt 0.50000000 0.56425713
vt 0.39203407 0.54278137
vt 0.39203407 0.54278137
vt 0.50000000 0.56425713
vt 0.39203407 0.54278137
vt 0.50000000 0.28212857
vt 0.50000000 0.56425713
vt 0.60796593 0.54278137
vt 0.50000000 0.56425713
vt 0.50000000 0.56425713
vt 0.60796593 0.54278137
vt 0.50000000 0.56425713
vt 0.50000000 0.28212857
vt 0.60796593 0.54278137
vt 0.69949502 0.48162359
vt 0.60796593 0.54278137
vt 0.60796593 0.54278137
vt 0.69949502 0.48162359
vt 0.60796593 0.54278137
vt 0.50000000 0.28212857
vt 0.69949502 0.48162359
vt 0.76065281 0.39009449
vt 0.69949502 0.48162359
vt 0.69949502 0.48162359
vt 0.76065281 0.39009449
vt 0.69949502 0.48162359
vt 0.50000000 0.28212857
vt 0.76065281 0.39009449
vt 0.78212857 0.28212857
vt 0.76065281 0.39009449
vt 0.76065281 0.39009449
vt 0.78212857 0.28212857
vt 0.76065281 0.39009449
vt 0.50000000 0.28212857
vt 0.78212857 0.28212857
vt 0.76065281 0.17416264
vt 0.78212857 0.28212857
vt 0.78212857 0.28212857
vt 0.76065281 0.17416264
vt 0.78212857 0.28212857
vt 0.50000000 0.28212857
vt 0.76065281 0.17416264
vt 0.69949502 0.08263354
vt 0.76065281 0.17416264
vt 0.76065281 0.17416264
vt 0.69949502 0.08263354
vt 0.76065281 0.17416264
vt 0.50000000 0.28212857
vt 0.69949502 0.08263354
vt 0.60796593 0.02147576
vt 0.69949502 0.08263354
vt 0.69949502 0.08263354
vt 0.60796593 0.02147576
vt 0.69949502 0.08263354
vt 0.50000000 0.28212857
vt 0.60796593 0.02147576
vt 0.50000000 0.00000000
vt 0.60796593 0.02147576
vt 0.60796593 0.02147576
vt 0.50000000 0.00000000
vt 0.60796593 0.02147576
vt 0.50000000 0.28212857
vt 0.50000000 0.00000000

vn 0.32072220 0.00000000 -0.94717331
vn -0.06615886 0.00000000 -0.99780910
vn 0.06615886 0.00000000 -0.99780910
vn 0.44296783 0.00000000 -0.89653751
vn 0.00000000 1.00000000 0.00000000
vn 0.00000000 1.00000000 0.00000000
vn 0.00000000 1.00000000 0.00000000
vn 0.65877621 0.00000000 -0.75233896
vn 0.32072220 0.00000000 -0.94717331
vn 0.44296783 0.00000000 -0.89653751
vn 0.75233896 0.00000000 -0.65877621
vn 0.00000000 1.00000000 0.00000000
vn 0.00000000 1.00000000 0.00000000
vn 0.00000000 1.00000000 0.00000000
vn 0.89653751 0.00000000 -0.44296783
vn 0.65877621 0.00000000 -0.75233896
vn 0.75233896 0.00000000 -0.65877621
vn 0.94717331 0.00000000 -0.32072220
vn 0.00000000 1.00000000 0.00000000
vn 0.00000000 1.00000000 0.00000000
vn 0.00000000 1.00000000 0.00000000
vn 0.99780910 0.00000000 -0.06615886
vn 0.89653751 0.00000000 -0.44296783
vn 0.94717331 0.00000000 -0.32072220
vn 0.99780910 0.00000000 0.06615886
vn 0.00000000 1.00000000 0.00000000
vn 0.00000000 1.00000000 0.00000000
vn 0.00000000 1.00000000 0.00000000
vn 0.94717331 0.00000000 0.32072220
vn 0.99780910 0.00000000 -0.06615886
vn 0.99780910 0.00000000 0.06615886
vn 0.89653751 0.00000000 0.44296783
vn 0.00000000 1.00000000 0.00000000
vn 0.00000000 1.00000000 0.00000000
vn 0.00000000 1.00000000 0.00000000
vn 0.75233896 0.00000000 0.65877621
vn 0.94717331 0.00000000 0.32072220
vn 0.89653751 0.00000000 0.44296783
vn 0.65877621 0.00000000 0.75233896
vn 0.00000000 1.00000000 0.00000000
vn 0.00000000 1.00000000 0.00000000
vn 0.00000000 1.00000000 0.00000000
vn 0.44296783 0.00000000 0.89653751
vn 0.75233896 0.00000000 0.65877621
vn 0.65877621 0.00000000 0.75233896
vn 0.32072220 0.00000000 0.94717331
vn 0.00000000 1.00000000 0.00000000
vn 0.00000000 1.00000000 0.00000000
vn 0.00000000 1.00000000 0.00000000
vn 0.06615886 0.00000000 0.99780910
vn 0.44296783 0.00000000 0.89653751
vn 0.32072220 0.00000000 0.94717331
vn -0.06615886 0.00000000 0.99780910
vn 0.00000000 1.00000000 0.00000000
vn 0.00000000 1.00000000 0.00000000
vn 0.00000000 1.00000000 0.00000000
vn -0.32072220 0.00000000 0.94717331
vn 0.06615886 0.00000000 0.99780910
vn -0.06615886 0.00000000 0.99780910
vn -0.44296783 0.00000000 0.89653751
vn 0.00000000 1.00000000 0.00000000
vn 0.00000000 1.00000000 0.00000000
vn 0.00000000 1.00000000 0.00000000
vn -0.65877621 0.00000000 0.75233896
vn -0.32072220 0.00000000 0.94717331
vn -0.44296783 0.00000000 0.89653751
vn -0.75233896 0.00000000 0.65877621
vn 0.00000000 1.00000000 0.00000000
vn 0.00000000 1.00000000 0.00000000
vn 0.00000000 1.00000000 0.00000000
vn -0.89653751 0.00000000 0.44296783
vn -0.65877621 0.00000000 0.75233896
vn -0.75233896 0.00000000 0.65877621
vn -0.94717331 0.00000000 0.32072220
vn 0.00000000 1.00000000 0.00000000
vn 0.00000000 1.00000000 0.00000000
vn 0.00000000 1.00000000 0.00000000
vn -0.99780910 0.00000000 0.06615886
vn -0.89653751 0.00000000 0.44296783
vn -0.94717331 0.00000000 0.32072220
vn -0.99780910 0.00000000 -0.06615886
vn 0.00000000 1.00000000 0.00000000
vn 0.00000000 1.00000000 0.00000000
vn 0.00000000 1.00000000 0.00000000
vn -0.94717331 0.00000000 -0.32072220
vn -0.99780910 0.00000000 0.06615886
vn -0.99780910 0.00000000 -0.06615886
vn -0.89653751 0.00000000 -0.44296783
vn 0.00000000 1.00000000 0.00000000
vn 0.00000000 1.00000000 0.00000000
vn 0.00000000 1.00000000 0.00000000
vn -0.75233896 0.00000000 -0.65877621
vn -0.94717331 0.00000000 -0.32072220
vn -0.89653751 0.00000000 -0.44296783
vn -0.65877621 0.00000000 -0.75233896
vn 0.00000000 1.00000000 0.00000000
vn 0.00000000 1.00000000 0.00000000
vn 0.00000000 1.00000000 0.00000000
vn -0.44296783 0.00000000 -0.89653751
vn -0.75233896 0.00000000 -0.65877621
vn -0.65877621 0.00000000 -0.75233896
vn -0.32072220 0.00000000 -0.94717331
vn 0.00000000 1.00000000 0.00000000
vn 0.00000000 1.00000000 0.00000000
vn 0.00000000 1.00000000 0.00000000
vn -0.06615886 0.00000000 -0.99780910
vn -0.44296783 0.00000000 -0.89653751
vn -0.32072220 0.00000000 -0.94717331
vn 0.06615886 0.00000000 -0.99780910
vn 0.00000000 1.00000000 0.00000000
vn 0.00000000 1.00000000 0.00000000
vn 0.00000000 1.00000000 0.00000000
vn 0.32072220 0.00000000 -0.94717331
vn -0.06615886 0.00000000 -0.99780910
vn 0.06615886 0.00000000 -0.99780910
vn 0.44296783 0.00000000 -0.89653751
vn 0.00000000 1.00000000 0.00000000
vn 0.00000000 1.00000000 0.00000000
vn 0.00000000 1.00000000 0.00000000
vn 0.65877621 0.00000000 -0.75233896
vn 0.32072220 0.00000000 -0.94717331
vn 0.44296783 0.00000000 -0.89653751
vn 0.75233896 0.00000000 -0.65877621
vn 0.00000000 1.00000000 0.00000000
vn 0.00000000 1.00000000 0.00000000
vn 0.00000000 1.00000000 0.00000000
vn 0.89653751 0.00000000 -0.44296783
vn 0.65877621 0.00000000 -0.75233896
vn 0.75233896 0.00000000 -0.65877621
vn 0.94717331 0.00000000 -0.32072220
vn 0.00000000 1.00000000 0.00000000
vn 0.00000000 1.00000000 0.00000000
vn 0.00000000 1.00000000 0.00000000
vn 0.99780910 0.00000000 -0.06615886
vn 0.89653751 0.00000000 -0.44296783
vn 0.94717331 0.00000000 -0.32072220
vn 0.99780910 0.00000000 0.06615886
vn 0.00000000 1.00000000 0.00000000
vn 0.00000000 1.00000000 0.00000000
vn 0.00000000 1.00000000 0.00000000
vn 0.94717331 0.00000000 0.32072220
vn 0.99780910 0.00000000 -0.06615886
vn 0.99780910 0.00000000 0.06615886
vn 0.89653751 0.00000000 0.44296783
vn 0.00000000 1.00000000 0.00000000
vn 0.00000000 1.00000000 0.00000000
vn 0.00000000 1.00000000 0.00000000
vn 0.75233896 0.00000000 0.65877621
vn 0.94717331 0.00000000 0.32072220
vn 0.89653751 0.00000000 0.44296783
vn 0.65877621 0.00000000 0.75233896
vn 0.00000000 1.00000000 0.00000000
vn 0.00000000 1.00000000 0.00000000
vn 0.00000000 1.00000000 0.00000000
vn 0.44296783 0.00000000 0.89653751
vn 0.75233896 0.00000000 0.65877621
vn 0.65877621 0.00000000 0.75233896
vn 0.32072220 0.00000000 0.94717331
vn 0.00000000 1.00000000 0.00000000
vn 0.00000000 1.00000000 0.00000000
vn 0.00000000 1.00000000 0.00000000
vn 0.06615886 0.00000000 0.99780910
vn 0.44296783 0.00000000 0.89653751
vn 0.32072220 0.00000000 0.94717331
vn -0.06615886 0.00000000 0.99780910
vn 0.00000000 1.00000000 0.00000000
vn 0.00000000 1.00000000 0.00000000
vn 0.00000000 1.00000000 0.00000000
vn -0.32072220 0.00000000 0.94717331
vn 0.06615886 0.00000000 0.99780910
vn -0.06615886 0.00000000 0.99780910
vn -0.44296783 0.00000000 0.89653751
vn 0.00000000 1.00000000 0.00000000
vn 0.00000000 1.00000000 0.00000000
vn 0.00000000 1.00000000 0.00000000
vn -0.65877621 0.00000000 0.75233896
vn -0.32072220 0.00000000 0.94717331
vn -0.44296783 0.00000000 0.89653751
vn -0.75233896 0.00000000 0.65877621
vn 0.00000000 1.00000000 0.00000000
vn 0.00000000 1.00000000 0.00000000
vn 0.00000000 1.00000000 0.00000000
vn -0.89653751 0.00000000 0.44296783
vn -0.65877621 0.00000000 0.75233896
vn -0.75233896 0.00000000 0.65877621
vn -0.94717331 0.00000000 0.32072220
vn 0.00000000 1.00000000 0.00000000
vn 0.00000000 1.00000000 0.00000000
vn 0.00000000 1.00000000 0.00000000
vn -0.99780910 0.00000000 0.06615886
vn -0.89653751 0.00000000 0.44296783
vn -0.94717331 0.00000000 0.32072220
vn -0.99780910 0.00000000 -0.06615886
vn 0.00000000 1.00000000 0.00000000
vn 0.00000000 1.00000000 0.00000000
vn 0.00000000 1.00000000 0.00000000
vn -0.94717331 0.00000000 -0.32072220
vn -0.99780910 0.00000000 0.06615886
vn -0.99780910 0.00000000 -0.06615886
vn -0.89653751 0.00000000 -0.44296783
vn 0.00000000 1.00000000 0.00000000
vn 0.00000000 1.00000000 0.00000000
vn 0.00000000 1.00000000 0.00000000
vn -0.75233896 0.00000000 -0.65877621
vn -0.94717331 0.00000000 -0.32072220
vn -0.89653751 0.00000000 -0.44296783
vn -0.65877621 0.00000000 -0.75233896
vn 0.00000000 1.00000000 0.00000000
vn 0.00000000 1.00000000 0.00000000
vn 0.00000000 1.00000000 0.00000000
vn -0.44296783 0.00000000 -0.89653751
vn -0.75233896 0.00000000 -0.65877621
vn -0.65877621 0.00000000 -0.75233896
vn -0.32072220 0.00000000 -0.94717331
vn 0.00000000 1.00000000 0.00000000
vn 0.00000000 1.00000000 0.00000000
vn 0.00000000 1.00000000 0.00000000
vn -0.06615886 0.00000000 -0.99780910
vn -0.44296783 0.00000000 -0.89653751
vn -0.32072220 0.00000000 -0.94717331
vn 0.06615886 0.00000000 -0.99780910
vn 0.00000000 1.00000000 0.00000000
vn 0.00000000 1.00000000 0.00000000
vn 0.00000000 1.00000000 0.00000000

g KV-VI_Body_Collider_Upper
f 2/1/1 32/2/2 31/3/3 1/4/4
f 31/5/5 33/6/6 1/7/7
f 4/8/8 2/9/9 1/10/10 3/11/11
f 1/12/12 33/13/13 3/14/14
f 6/15/15 4/16/16 3/17/17 5/18/18
f 3/19/19 33/20/20 5/21/21
f 8/22/22 6/23/23 5/24/24 7/25/25
f 5/26/26 33/27/27 7/28/28
f 10/29/29 8/30/30 7/31/31 9/32/32
f 7/33/33 33/34/34 9/35/35
f 12/36/36 10/37/37 9/38/38 11/39/39
f 9/40/40 33/41/41 11/42/42
f 14/43/43 12/44/44 11/45/45 13/46/46
f 11/47/47 33/48/48 13/49/49
f 16/50/50 14/51/51 13/52/52 15/53/53
f 13/54/54 33/55/55 15/56/56
f 18/57/57 16/58/58 15/59/59 17/60/60
f 15/61/61 33/62/62 17/63/63
f 20/64/64 18/65/65 17/66/66 19/67/67
f 17/68/68 33/69/69 19/70/70
f 22/71/71 20/72/72 19/73/73 21/74/74
f 19/75/75 33/76/76 21/77/77
f 24/78/78 22/79/79 21/80/80 23/81/81
f 21/82/82 33/83/83 23/84/84
f 26/85/85 24/86/86 23/87/87 25/88/88
f 23/89/89 33/90/90 25/91/91
f 28/92/92 26/93/93 25/94/94 27/95/95
f 25/96/96 33/97/97 27/98/98
f 30/99/99 28/100/100 27/101/101 29/102/102
f 27/103/103 33/104/104 29/105/105
f 32/106/106 30/107/107 29/108/108 31/109/109
f 29/110/110 33/111/111 31/112/112
f 35/113/113 65/114/114 64/115/115 34/116/116
f 64/117/117 66/118/118 34/119/119
f 37/120/120 35/121/121 34/122/122 36/123/123
f 34/124/124 66/125/125 36/126/126
f 39/127/127 37/128/128 36/129/129 38/130/130
f 36/131/131 66/132/132 38/133/133
f 41/134/134 39/135/135 38/136/136 40/137/137
f 38/138/138 66/139/139 40/140/140
f 43/141/141 41/142/142 40/143/143 42/144/144
f 40/145/145 66/146/146 42/147/147
f 45/148/148 43/149/149 42/150/150 44/151/151
f 42/152/152 66/153/153 44/154/154
f 47/155/155 45/156/156 44/157/157 46/158/158
f 44/159/159 66/160/160 46/161/161
f 49/162/162 47/163/163 46/164/164 48/165/165
f 46/166/166 66/167/167 48/168/168
f 51/169/169 49/170/170 48/171/171 50/172/172
f 48/173/173 66/174/174 50/175/175
f 53/176/176 51/177/177 50/178/178 52/179/179
f 50/180/180 66/181/181 52/182/182
f 55/183/183 53/184/184 52/185/185 54/186/186
f 52/187/187 66/188/188 54/189/189
f 57/190/190 55/191/191 54/192/192 56/193/193
f 54/194/194 66/195/195 56/196/196
f 59/197/197 57/198/198 56/199/199 58/200/200
f 56/201/201 66/202/202 58/203/203
f 61/204/204 59/205/205 58/206/206 60/207/207
f 58/208/208 66/209/209 60/210/210
f 63/211/211 61/212/212 60/213/213 62/214/214
f 60/215/215 66/216/216 62/217/217
f 65/218/218 63/219/219 62/220/220 64/221/221
f 62/222/222 66/223/223 64/224/224

