# RokuSuper Output Ver6.0 for Wavefront Obj

v -0.01770266 2.85399741 0.46480034
v 0.01770266 2.85399741 0.46480034
v -0.03540533 2.82333550 0.46480034
v 0.03540533 2.82333550 0.46480034
v 0.01770266 2.79267359 0.46480034
v -0.01770266 2.79267359 0.46480034
v -0.04720710 2.82333550 0.46480034
v -0.02360355 2.78245295 0.46480034
v 0.02360355 2.78245295 0.46480034
v 0.04720710 2.82333550 0.46480034
v 0.02360355 2.86421805 0.46480034
v -0.02360355 2.86421805 0.46480034
v -0.02360355 2.86421805 0.17966916
v 0.02360355 2.86421805 0.17966916
v 0.04720710 2.82333550 0.17966916
v 0.02360355 2.78245295 0.17966916
v -0.02360355 2.78245295 0.17966916
v -0.04720710 2.82333550 0.17966916
v 0.00000000 2.82333550 1.07028004
v -0.01770266 2.79267359 1.07028004
v 0.01770266 2.79267359 1.07028004
v 0.03540533 2.82333550 1.07028004
v -0.03540533 2.82333550 1.07028004
v 0.01770266 2.85399741 1.07028004
v -0.01770266 2.85399741 1.07028004

vt 0.87317575 0.72100927
vt 0.87317575 0.72100927
vt 0.74155372 0.72100927
vt 0.74155372 0.72100927
vt 0.74155372 0.72634599
vt 0.87317575 0.72634599
vt 0.87317575 0.72100927
vt 0.74155372 0.72100927
vt 0.87317575 0.72100927
vt 0.87317575 0.72634599
vt 0.74155372 0.72634599
vt 0.74155372 0.72100927
vt 0.87317575 0.72634599
vt 0.87317575 0.73168271
vt 0.74155372 0.73168271
vt 0.74155372 0.72634599
vt 0.74155372 0.73168271
vt 0.87317575 0.73168271
vt 0.87317575 0.72634599
vt 0.74155372 0.72634599
vt 0.87317575 0.73168271
vt 0.87317575 0.73168271
vt 0.74155372 0.73168271
vt 0.74155372 0.73168271
vt 0.87317575 0.73168271
vt 0.87317575 0.73346161
vt 0.87317575 0.73346161
vt 0.87317575 0.73168271
vt 0.87317575 0.73168271
vt 0.87317575 0.73346161
vt 0.87317575 0.72634599
vt 0.87317575 0.72634599
vt 0.87317575 0.72634599
vt 0.87317575 0.72634599
vt 0.87317575 0.73346161
vt 0.87317575 0.73168271
vt 0.87317575 0.72100927
vt 0.87317575 0.71923036
vt 0.87317575 0.72634599
vt 0.87317575 0.72634599
vt 0.87317575 0.72634599
vt 0.87317575 0.72634599
vt 0.87317575 0.71923036
vt 0.87317575 0.72100927
vt 0.87317575 0.72100927
vt 0.87317575 0.71923036
vt 0.87317575 0.71923036
vt 0.87317575 0.72100927
vt 0.93515891 0.71923036
vt 0.87317575 0.71923036
vt 0.87317575 0.72634599
vt 0.93515891 0.72634599
vt 0.93515891 0.71923036
vt 0.87317575 0.71923036
vt 0.87317575 0.71923036
vt 0.93515891 0.71923036
vt 0.93515891 0.72634599
vt 0.87317575 0.72634599
vt 0.87317575 0.71923036
vt 0.93515891 0.71923036
vt 0.93515891 0.73346161
vt 0.87317575 0.73346161
vt 0.87317575 0.72634599
vt 0.93515891 0.72634599
vt 0.93515891 0.73346161
vt 0.87317575 0.73346161
vt 0.87317575 0.73346161
vt 0.93515891 0.73346161
vt 0.87317575 0.72634599
vt 0.87317575 0.73346161
vt 0.93515891 0.73346161
vt 0.93515891 0.72634599
vt 0.86338562 0.74481446
vt 0.85403727 0.76100629
vt 0.84468891 0.74481446
vt 0.84468891 0.74481446
vt 0.85403727 0.76100629
vt 0.83534055 0.76100629
vt 0.87273398 0.76100629
vt 0.85403727 0.76100629
vt 0.86338562 0.74481446
vt 0.86338562 0.77719812
vt 0.85403727 0.76100629
vt 0.87273398 0.76100629
vt 0.83534055 0.76100629
vt 0.85403727 0.76100629
vt 0.84468891 0.77719812
vt 0.84468891 0.77719812
vt 0.85403727 0.76100629
vt 0.86338562 0.77719812

vn -0.50000000 -0.86602540 0.00000000
vn 0.65465367 -0.75592895 0.00000000
vn 0.32732684 -0.94491118 0.00000000
vn -0.50000000 -0.86602540 0.00000000
vn -0.98198051 -0.18898224 0.00000000
vn -0.98198051 0.18898224 -0.00000000
vn -0.50000000 -0.86602540 0.00000000
vn -0.50000000 -0.86602540 0.00000000
vn 0.65465367 -0.75592895 0.00000000
vn 0.98198051 0.18898224 -0.00000000
vn 0.98198051 -0.18898224 0.00000000
vn 0.32732684 -0.94491118 0.00000000
vn 0.98198051 0.18898224 -0.00000000
vn 0.32732684 0.94491118 -0.00000000
vn 0.65465367 0.75592895 -0.00000000
vn 0.98198051 -0.18898224 0.00000000
vn -0.50000000 0.86602540 -0.00000000
vn -0.50000000 0.86602540 -0.00000000
vn -0.98198051 0.18898224 -0.00000000
vn -0.98198051 -0.18898224 0.00000000
vn 0.32732684 0.94491118 -0.00000000
vn -0.50000000 0.86602540 -0.00000000
vn -0.50000000 0.86602540 -0.00000000
vn 0.65465367 0.75592895 -0.00000000
vn 0.00000000 0.00000000 1.00000000
vn 0.00000000 0.00000000 1.00000000
vn -0.00000000 0.00000000 1.00000000
vn -0.00000000 0.00000000 1.00000000
vn -0.00000000 0.00000000 1.00000000
vn -0.00000000 0.00000000 1.00000000
vn -0.00000000 0.00000000 1.00000000
vn -0.00000000 -0.00000000 1.00000000
vn 0.00000000 0.00000000 1.00000000
vn 0.00000000 -0.00000000 1.00000000
vn 0.00000000 0.00000000 1.00000000
vn 0.00000000 0.00000000 1.00000000
vn 0.00000000 -0.00000000 1.00000000
vn 0.00000000 -0.00000000 1.00000000
vn 0.00000000 -0.00000000 1.00000000
vn 0.00000000 0.00000000 1.00000000
vn -0.00000000 -0.00000000 1.00000000
vn -0.00000000 0.00000000 1.00000000
vn -0.00000000 -0.00000000 1.00000000
vn -0.00000000 -0.00000000 1.00000000
vn -0.00000000 -0.00000000 1.00000000
vn -0.00000000 -0.00000000 1.00000000
vn 0.00000000 -0.00000000 1.00000000
vn 0.00000000 -0.00000000 1.00000000
vn -0.65465367 -0.75592895 0.00000000
vn -0.32732684 -0.94491118 0.00000000
vn -1.00000000 0.00000000 -0.00000000
vn -1.00000000 0.00000000 -0.00000000
vn 0.32732684 -0.94491118 0.00000000
vn 0.65465367 -0.75592895 0.00000000
vn -0.32732684 -0.94491118 0.00000000
vn -0.65465367 -0.75592895 0.00000000
vn 0.98198051 -0.18898224 0.00000000
vn 0.98198051 0.18898224 0.00000000
vn 0.65465367 -0.75592895 0.00000000
vn 0.32732684 -0.94491118 0.00000000
vn 0.65465367 0.75592895 -0.00000000
vn 0.32732684 0.94491118 -0.00000000
vn 0.98198051 0.18898224 0.00000000
vn 0.98198051 -0.18898224 0.00000000
vn -0.50000000 0.86602540 -0.00000000
vn -0.50000000 0.86602540 -0.00000000
vn 0.32732684 0.94491118 -0.00000000
vn 0.65465367 0.75592895 -0.00000000
vn -1.00000000 0.00000000 -0.00000000
vn -0.50000000 0.86602540 -0.00000000
vn -0.50000000 0.86602540 -0.00000000
vn -1.00000000 0.00000000 -0.00000000
vn -0.00000000 -0.00000000 1.00000000
vn -0.00000000 0.00000000 1.00000000
vn -0.00000000 0.00000000 1.00000000
vn -0.00000000 0.00000000 1.00000000
vn -0.00000000 0.00000000 1.00000000
vn -0.00000000 0.00000000 1.00000000
vn -0.00000000 0.00000000 1.00000000
vn -0.00000000 -0.00000000 1.00000000
vn -0.00000000 -0.00000000 1.00000000
vn -0.00000000 0.00000000 1.00000000
vn -0.00000000 0.00000000 1.00000000
vn -0.00000000 0.00000000 1.00000000
vn -0.00000000 0.00000000 1.00000000
vn -0.00000000 -0.00000000 1.00000000
vn -0.00000000 -0.00000000 1.00000000
vn -0.00000000 -0.00000000 1.00000000
vn -0.00000000 0.00000000 1.00000000
vn -0.00000000 0.00000000 1.00000000

g KV-VI_ChildBarrel_Center
f 6/1/1 5/2/2 21/3/3 20/4/4
f 23/5/5 3/6/6 6/7/7 20/8/8
f 5/9/9 4/10/10 22/11/11 21/12/12
f 4/13/13 2/14/14 24/15/15 22/16/16
f 25/17/17 1/18/18 3/19/19 23/20/20
f 2/21/21 1/22/22 25/23/23 24/24/24
f 2/25/25 11/26/26 12/27/27 1/28/28
f 1/29/29 12/30/30 7/31/31 3/32/32
f 4/33/33 10/34/34 11/35/35 2/36/36
f 5/37/37 9/38/38 10/39/39 4/40/40
f 3/41/41 7/42/42 8/43/43 6/44/44
f 6/45/45 8/46/46 9/47/47 5/48/48
f 17/49/49 8/50/50 7/51/51 18/52/52
f 16/53/53 9/54/54 8/55/55 17/56/56
f 15/57/57 10/58/58 9/59/59 16/60/60
f 14/61/61 11/62/62 10/63/63 15/64/64
f 13/65/65 12/66/66 11/67/67 14/68/68
f 7/69/69 12/70/70 13/71/71 18/72/72
f 21/73/73 19/74/74 20/75/75
f 20/76/76 19/77/77 23/78/78
f 22/79/79 19/80/80 21/81/81
f 24/82/82 19/83/83 22/84/84
f 23/85/85 19/86/86 25/87/87
f 25/88/88 19/89/89 24/90/90

