# RokuSuper Output Ver6.0 for Wavefront Obj

v -0.12500000 -0.03500000 -0.06000000
v -0.12500000 0.03500000 -0.06000000
v -0.17500000 0.03500000 -0.06000000
v -0.17500000 -0.03500000 -0.06000000
v -0.17500000 0.03500000 0.45000001
v -0.17500000 -0.03500000 0.45000001
v -0.12500000 0.03500000 0.45000001
v -0.12500000 -0.03500000 0.45000001
v -0.12500000 -0.06000000 0.06000000
v -0.17500000 -0.06000000 0.06000000
v -0.17500000 0.06000000 0.06000000
v -0.12500000 0.06000000 0.06000000
v -0.17500000 0.06000000 -0.03000000
v -0.12500000 0.06000000 -0.03000000
v -0.12500000 0.06000000 0.42000001
v -0.17500000 0.06000000 0.42000001
v -0.17500000 -0.06000000 -0.03000000
v -0.12500000 -0.06000000 -0.03000000
v -0.12500000 -0.06000000 0.42000001
v -0.17500000 -0.06000000 0.42000001
v -0.13166667 0.23622400 -0.05991659
v -0.16833334 0.23622400 -0.05991659
v -0.16833334 0.11882498 0.31060771
v -0.16833334 0.07149461 0.29792557
v -0.13166667 0.11882498 0.31060771
v -0.13166667 0.07149461 0.29792557
v -0.16833334 0.15508623 -0.08165739
v -0.13166667 0.14200964 0.29169619
v -0.16833334 0.14200964 0.29169619
v -0.13166667 0.15508623 -0.08165739
v -0.13166667 0.06087187 0.26995539
v -0.16833334 0.06087187 0.26995539
v -0.17500000 0.06016111 0.21364023
v -0.17500000 0.09812930 0.21364023
v -0.17500000 0.09812930 0.33782350
v -0.17500000 0.06016111 0.33782350
v -0.12500000 0.06016111 0.21364023
v -0.12500000 0.09812930 0.21364023
v -0.12500000 0.09812930 0.33782350
v -0.12500000 0.06016111 0.33782350
v 0.17500000 -0.03500000 -0.06000000
v 0.17500000 0.03500000 -0.06000000
v 0.12500000 0.03500000 -0.06000000
v 0.12500000 -0.03500000 -0.06000000
v 0.12500000 0.03500000 0.45000001
v 0.12500000 -0.03500000 0.45000001
v 0.17500000 0.03500000 0.45000001
v 0.17500000 -0.03500000 0.45000001
v 0.17500000 -0.06000000 0.06000000
v 0.12500000 -0.06000000 0.06000000
v 0.12500000 0.06000000 0.06000000
v 0.17500000 0.06000000 0.06000000
v 0.12500000 0.06000000 -0.03000000
v 0.17500000 0.06000000 -0.03000000
v 0.17500000 0.06000000 0.42000001
v 0.12500000 0.06000000 0.42000001
v 0.12500000 -0.06000000 -0.03000000
v 0.17500000 -0.06000000 -0.03000000
v 0.17500000 -0.06000000 0.42000001
v 0.12500000 -0.06000000 0.42000001
v 0.16833334 0.23622400 -0.05991659
v 0.13166667 0.23622400 -0.05991659
v 0.13166667 0.11882498 0.31060771
v 0.13166667 0.07149461 0.29792557
v 0.16833334 0.11882498 0.31060771
v 0.16833334 0.07149461 0.29792557
v 0.13166667 0.15508623 -0.08165739
v 0.16833334 0.14200964 0.29169619
v 0.13166667 0.14200964 0.29169619
v 0.16833334 0.15508623 -0.08165739
v 0.16833334 0.06087187 0.26995539
v 0.13166667 0.06087187 0.26995539
v 0.12500000 0.06016111 0.21364023
v 0.12500000 0.09812930 0.21364023
v 0.12500000 0.09812930 0.33782350
v 0.12500000 0.06016111 0.33782350
v 0.17500000 0.06016111 0.21364023
v 0.17500000 0.09812930 0.21364023
v 0.17500000 0.09812930 0.33782350
v 0.17500000 0.06016111 0.33782350

vt 0.68084619 0.78515447
vt 0.65217502 0.79112763
vt 0.65217502 0.76245645
vt 0.68084619 0.76842962
vt 0.67367840 0.79112763
vt 0.65217502 0.79112763
vt 0.68084619 0.78515447
vt 0.68084619 0.76842962
vt 0.65217502 0.76245645
vt 0.65217502 0.79112763
vt 0.68084619 0.78515447
vt 0.67367840 0.76245645
vt 0.65217502 0.76245645
vt 0.68084619 0.76842962
vt 0.68084619 0.76842962
vt 0.65217502 0.76245645
vt 0.67367840 0.76245645
vt 0.68084619 0.76842962
vt 0.67367840 0.76245645
vt 0.67367840 0.76245645
vt 0.68084619 0.76842962
vt 0.68084619 0.78515447
vt 0.68084619 0.76842962
vt 0.68084619 0.76842962
vt 0.68084619 0.78515447
vt 0.67367840 0.79112763
vt 0.68084619 0.78515447
vt 0.68084619 0.78515447
vt 0.67367840 0.79112763
vt 0.68084619 0.78515447
vt 0.65217502 0.79112763
vt 0.67367840 0.79112763
vt 0.55899369 0.76842962
vt 0.65217502 0.76245645
vt 0.65217502 0.79112763
vt 0.55899369 0.78515447
vt 0.56616148 0.76245645
vt 0.65217502 0.76245645
vt 0.55899369 0.76842962
vt 0.55899369 0.78515447
vt 0.65217502 0.79112763
vt 0.65217502 0.76245645
vt 0.55899369 0.76842962
vt 0.56616148 0.79112763
vt 0.65217502 0.79112763
vt 0.55899369 0.78515447
vt 0.55899369 0.76842962
vt 0.65217502 0.76245645
vt 0.56616148 0.76245645
vt 0.55899369 0.76842962
vt 0.56616148 0.76245645
vt 0.56616148 0.76245645
vt 0.55899369 0.76842962
vt 0.55899369 0.78515447
vt 0.55899369 0.76842962
vt 0.55899369 0.76842962
vt 0.55899369 0.78515447
vt 0.56616148 0.79112763
vt 0.55899369 0.78515447
vt 0.55899369 0.78515447
vt 0.56616148 0.79112763
vt 0.55899369 0.78515447
vt 0.65217502 0.79112763
vt 0.56616148 0.79112763
vt 0.65217502 0.76245645
vt 0.56616148 0.76245645
vt 0.56616148 0.76245645
vt 0.65217502 0.76245645
vt 0.67367840 0.76245645
vt 0.65217502 0.76245645
vt 0.65217502 0.76245645
vt 0.67367840 0.76245645
vt 0.65217502 0.79112763
vt 0.56616148 0.79112763
vt 0.56616148 0.79112763
vt 0.65217502 0.79112763
vt 0.67367840 0.79112763
vt 0.65217502 0.79112763
vt 0.65217502 0.79112763
vt 0.67367840 0.79112763
vt 0.68082626 0.83323221
vt 0.68602072 0.81384625
vt 0.68602072 0.81384625
vt 0.68082626 0.83323221
vt 0.59532830 0.79387400
vt 0.68602072 0.81384625
vt 0.68082626 0.83323221
vt 0.59229820 0.80518248
vt 0.60201112 0.79133594
vt 0.68602072 0.81384625
vt 0.59532830 0.79387400
vt 0.59229820 0.80518248
vt 0.68082626 0.83323221
vt 0.68602072 0.81384625
vt 0.59532830 0.79387400
vt 0.59681666 0.81072191
vt 0.68082626 0.83323221
vt 0.59229820 0.80518248
vt 0.59532830 0.79387400
vt 0.68602072 0.81384625
vt 0.60201112 0.79133594
vt 0.59532830 0.79387400
vt 0.60201112 0.79133594
vt 0.60201112 0.79133594
vt 0.59532830 0.79387400
vt 0.59229820 0.80518248
vt 0.59532830 0.79387400
vt 0.59532830 0.79387400
vt 0.59229820 0.80518248
vt 0.59681666 0.81072191
vt 0.59229820 0.80518248
vt 0.59229820 0.80518248
vt 0.59681666 0.81072191
vt 0.59229820 0.80518248
vt 0.68082626 0.83323221
vt 0.59681666 0.81072191
vt 0.68602072 0.81384625
vt 0.60201112 0.79133594
vt 0.60201112 0.79133594
vt 0.68602072 0.81384625
vt 0.68082626 0.83323221
vt 0.59681666 0.81072191
vt 0.59681666 0.81072191
vt 0.68082626 0.83323221
vt 0.61546630 0.80023773
vt 0.61546630 0.79116613
vt 0.58579563 0.79116613
vt 0.58579563 0.80023773
vt 0.61546630 0.80023773
vt 0.61546630 0.80023773
vt 0.58579563 0.80023773
vt 0.58579563 0.80023773
vt 0.58579563 0.79116613
vt 0.58579563 0.80023773
vt 0.58579563 0.80023773
vt 0.58579563 0.79116613
vt 0.61546630 0.80023773
vt 0.61546630 0.79116613
vt 0.61546630 0.79116613
vt 0.61546630 0.80023773
vt 0.58579563 0.79116613
vt 0.61546630 0.79116613
vt 0.61546630 0.80023773
vt 0.58579563 0.80023773
vt 0.68084619 0.78515447
vt 0.65217502 0.79112763
vt 0.65217502 0.76245645
vt 0.68084619 0.76842962
vt 0.67367840 0.79112763
vt 0.65217502 0.79112763
vt 0.68084619 0.78515447
vt 0.68084619 0.76842962
vt 0.65217502 0.76245645
vt 0.65217502 0.79112763
vt 0.68084619 0.78515447
vt 0.67367840 0.76245645
vt 0.65217502 0.76245645
vt 0.68084619 0.76842962
vt 0.68084619 0.76842962
vt 0.65217502 0.76245645
vt 0.67367840 0.76245645
vt 0.68084619 0.76842962
vt 0.67367840 0.76245645
vt 0.67367840 0.76245645
vt 0.68084619 0.76842962
vt 0.68084619 0.78515447
vt 0.68084619 0.76842962
vt 0.68084619 0.76842962
vt 0.68084619 0.78515447
vt 0.67367840 0.79112763
vt 0.68084619 0.78515447
vt 0.68084619 0.78515447
vt 0.67367840 0.79112763
vt 0.68084619 0.78515447
vt 0.65217502 0.79112763
vt 0.67367840 0.79112763
vt 0.55899369 0.76842962
vt 0.65217502 0.76245645
vt 0.65217502 0.79112763
vt 0.55899369 0.78515447
vt 0.56616148 0.76245645
vt 0.65217502 0.76245645
vt 0.55899369 0.76842962
vt 0.55899369 0.78515447
vt 0.65217502 0.79112763
vt 0.65217502 0.76245645
vt 0.55899369 0.76842962
vt 0.56616148 0.79112763
vt 0.65217502 0.79112763
vt 0.55899369 0.78515447
vt 0.55899369 0.76842962
vt 0.65217502 0.76245645
vt 0.56616148 0.76245645
vt 0.55899369 0.76842962
vt 0.56616148 0.76245645
vt 0.56616148 0.76245645
vt 0.55899369 0.76842962
vt 0.55899369 0.78515447
vt 0.55899369 0.76842962
vt 0.55899369 0.76842962
vt 0.55899369 0.78515447
vt 0.56616148 0.79112763
vt 0.55899369 0.78515447
vt 0.55899369 0.78515447
vt 0.56616148 0.79112763
vt 0.55899369 0.78515447
vt 0.65217502 0.79112763
vt 0.56616148 0.79112763
vt 0.65217502 0.76245645
vt 0.56616148 0.76245645
vt 0.56616148 0.76245645
vt 0.65217502 0.76245645
vt 0.67367840 0.76245645
vt 0.65217502 0.76245645
vt 0.65217502 0.76245645
vt 0.67367840 0.76245645
vt 0.65217502 0.79112763
vt 0.56616148 0.79112763
vt 0.56616148 0.79112763
vt 0.65217502 0.79112763
vt 0.67367840 0.79112763
vt 0.65217502 0.79112763
vt 0.65217502 0.79112763
vt 0.67367840 0.79112763
vt 0.68082626 0.83323221
vt 0.68602072 0.81384625
vt 0.68602072 0.81384625
vt 0.68082626 0.83323221
vt 0.59532830 0.79387400
vt 0.68602072 0.81384625
vt 0.68082626 0.83323221
vt 0.59229820 0.80518248
vt 0.60201112 0.79133594
vt 0.68602072 0.81384625
vt 0.59532830 0.79387400
vt 0.59229820 0.80518248
vt 0.68082626 0.83323221
vt 0.68602072 0.81384625
vt 0.59532830 0.79387400
vt 0.59681666 0.81072191
vt 0.68082626 0.83323221
vt 0.59229820 0.80518248
vt 0.59532830 0.79387400
vt 0.68602072 0.81384625
vt 0.60201112 0.79133594
vt 0.59532830 0.79387400
vt 0.60201112 0.79133594
vt 0.60201112 0.79133594
vt 0.59532830 0.79387400
vt 0.59229820 0.80518248
vt 0.59532830 0.79387400
vt 0.59532830 0.79387400
vt 0.59229820 0.80518248
vt 0.59681666 0.81072191
vt 0.59229820 0.80518248
vt 0.59229820 0.80518248
vt 0.59681666 0.81072191
vt 0.59229820 0.80518248
vt 0.68082626 0.83323221
vt 0.59681666 0.81072191
vt 0.68602072 0.81384625
vt 0.60201112 0.79133594
vt 0.60201112 0.79133594
vt 0.68602072 0.81384625
vt 0.68082626 0.83323221
vt 0.59681666 0.81072191
vt 0.59681666 0.81072191
vt 0.68082626 0.83323221
vt 0.61546630 0.80023773
vt 0.61546630 0.79116613
vt 0.58579563 0.79116613
vt 0.58579563 0.80023773
vt 0.61546630 0.80023773
vt 0.61546630 0.80023773
vt 0.58579563 0.80023773
vt 0.58579563 0.80023773
vt 0.58579563 0.79116613
vt 0.58579563 0.80023773
vt 0.58579563 0.80023773
vt 0.58579563 0.79116613
vt 0.61546630 0.80023773
vt 0.61546630 0.79116613
vt 0.61546630 0.79116613
vt 0.61546630 0.80023773
vt 0.58579563 0.79116613
vt 0.61546630 0.79116613
vt 0.61546630 0.80023773
vt 0.58579563 0.80023773

vn 1.00000000 -0.00000000 0.00000000
vn 1.00000000 -0.00000000 0.00000000
vn 1.00000000 -0.00000000 0.00000000
vn 1.00000000 0.00000000 0.00000000
vn 1.00000000 -0.00000000 0.00000000
vn 1.00000000 -0.00000000 0.00000000
vn 1.00000000 -0.00000000 0.00000000
vn -1.00000000 0.00000000 -0.00000000
vn -1.00000000 0.00000000 -0.00000000
vn -1.00000000 0.00000000 -0.00000000
vn -1.00000000 0.00000000 -0.00000000
vn -1.00000000 -0.00000000 -0.00000000
vn -1.00000000 0.00000000 -0.00000000
vn -1.00000000 0.00000000 -0.00000000
vn 1.00000000 0.00000000 0.00000000
vn 1.00000000 -0.00000000 0.00000000
vn 1.00000000 0.00000000 0.00000000
vn -0.00000000 -0.55877150 -0.82932166
vn 0.00000000 -0.97428590 -0.22531531
vn 0.00000000 -0.89271051 -0.45063062
vn -0.00000000 -0.27938575 -0.96017894
vn -0.00000000 0.27938575 -0.96017894
vn -0.00000000 -0.55877150 -0.82932166
vn -0.00000000 -0.27938575 -0.96017894
vn -0.00000000 0.55877150 -0.82932166
vn -0.00000000 0.89271051 -0.45063062
vn -0.00000000 0.27938575 -0.96017894
vn -0.00000000 0.55877150 -0.82932166
vn -0.00000000 0.97428590 -0.22531531
vn -1.00000000 0.00000000 -0.00000000
vn -1.00000000 0.00000000 -0.00000000
vn -1.00000000 0.00000000 -0.00000000
vn 1.00000000 -0.00000000 0.00000000
vn 1.00000000 -0.00000000 0.00000000
vn 1.00000000 -0.00000000 0.00000000
vn 1.00000000 -0.00000000 0.00000000
vn 1.00000000 -0.00000000 0.00000000
vn 1.00000000 -0.00000000 0.00000000
vn 1.00000000 -0.00000000 0.00000000
vn -1.00000000 0.00000000 -0.00000000
vn -1.00000000 0.00000000 -0.00000000
vn -1.00000000 0.00000000 -0.00000000
vn -1.00000000 0.00000000 -0.00000000
vn -1.00000000 0.00000000 -0.00000000
vn -1.00000000 0.00000000 -0.00000000
vn -1.00000000 0.00000000 -0.00000000
vn -1.00000000 0.00000000 -0.00000000
vn -1.00000000 0.00000000 -0.00000000
vn -1.00000000 0.00000000 -0.00000000
vn 0.00000000 -0.55877150 0.82932166
vn 0.00000000 -0.97428590 0.22531531
vn 0.00000000 -0.89271051 0.45063062
vn 0.00000000 -0.27938575 0.96017894
vn 0.00000000 0.27938575 0.96017894
vn 0.00000000 -0.55877150 0.82932166
vn 0.00000000 -0.27938575 0.96017894
vn 0.00000000 0.55877150 0.82932166
vn -0.00000000 0.89271051 0.45063062
vn 0.00000000 0.27938575 0.96017894
vn 0.00000000 0.55877150 0.82932166
vn -0.00000000 0.97428590 0.22531531
vn 1.00000000 -0.00000000 0.00000000
vn 1.00000000 -0.00000000 0.00000000
vn 1.00000000 0.00000000 0.00000000
vn 0.00000000 -1.00000000 0.00000000
vn 0.00000000 -0.89271051 0.45063062
vn 0.00000000 -0.97428590 0.22531531
vn 0.00000000 -1.00000000 0.00000000
vn 0.00000000 -0.97428590 -0.22531531
vn 0.00000000 -1.00000000 0.00000000
vn 0.00000000 -1.00000000 0.00000000
vn 0.00000000 -0.89271051 -0.45063062
vn -0.00000000 1.00000000 -0.00000000
vn -0.00000000 0.89271051 0.45063062
vn -0.00000000 0.97428590 0.22531531
vn -0.00000000 1.00000000 -0.00000000
vn -0.00000000 0.97428590 -0.22531531
vn -0.00000000 1.00000000 -0.00000000
vn -0.00000000 1.00000000 -0.00000000
vn -0.00000000 0.89271051 -0.45063062
vn 0.00000000 0.25881905 -0.96592583
vn 0.00000000 0.25881905 -0.96592583
vn 0.00000000 0.25881905 -0.96592583
vn 0.00000000 0.25881905 -0.96592583
vn 1.00000000 0.00000000 -0.00000000
vn 1.00000000 0.00000000 -0.00000000
vn 1.00000000 0.00000000 -0.00000000
vn 1.00000000 0.00000000 -0.00000000
vn 1.00000000 0.00000000 0.00000000
vn 1.00000000 0.00000000 -0.00000000
vn 1.00000000 0.00000000 -0.00000000
vn -1.00000000 -0.00000000 0.00000000
vn -1.00000000 -0.00000000 0.00000000
vn -1.00000000 -0.00000000 0.00000000
vn -1.00000000 -0.00000000 0.00000000
vn -1.00000000 -0.00000000 -0.00000000
vn -1.00000000 -0.00000000 0.00000000
vn -1.00000000 -0.00000000 0.00000000
vn -1.00000000 -0.00000000 0.00000000
vn -1.00000000 -0.00000000 0.00000000
vn -1.00000000 -0.00000000 -0.00000000
vn -0.00000000 -0.78567084 0.61864475
vn 0.00000000 -0.99839541 -0.05662694
vn 0.00000000 -0.98757229 0.15716542
vn -0.00000000 -0.53613696 0.84413101
vn -0.00000000 0.04224273 0.99910738
vn -0.00000000 -0.78567084 0.61864475
vn -0.00000000 -0.53613696 0.84413101
vn -0.00000000 0.37108853 0.92859749
vn -0.00000000 0.77667999 0.62989539
vn -0.00000000 0.04224273 0.99910738
vn -0.00000000 0.37108853 0.92859749
vn -0.00000000 0.89294925 0.45015734
vn 1.00000000 0.00000000 -0.00000000
vn 1.00000000 0.00000000 -0.00000000
vn 1.00000000 0.00000000 0.00000000
vn 0.00000000 -0.96592583 -0.25881905
vn 0.00000000 -0.98757229 0.15716542
vn 0.00000000 -0.99839541 -0.05662694
vn 0.00000000 -0.96592583 -0.25881905
vn -0.00000000 0.96592583 0.25881905
vn -0.00000000 0.77667999 0.62989539
vn -0.00000000 0.89294925 0.45015734
vn -0.00000000 0.96592583 0.25881905
vn -1.00000000 0.00000000 0.00000000
vn -1.00000000 0.00000000 0.00000000
vn -1.00000000 0.00000000 0.00000000
vn -1.00000000 0.00000000 0.00000000
vn -0.00000000 1.00000000 -0.00000000
vn -0.00000000 1.00000000 -0.00000000
vn -0.00000000 1.00000000 -0.00000000
vn -0.00000000 1.00000000 -0.00000000
vn 0.00000000 -0.00000000 1.00000000
vn 0.00000000 -0.00000000 1.00000000
vn 0.00000000 -0.00000000 1.00000000
vn 0.00000000 -0.00000000 1.00000000
vn -0.00000000 0.00000000 -1.00000000
vn -0.00000000 0.00000000 -1.00000000
vn -0.00000000 0.00000000 -1.00000000
vn -0.00000000 0.00000000 -1.00000000
vn 1.00000000 -0.00000000 -0.00000000
vn 1.00000000 -0.00000000 -0.00000000
vn 1.00000000 -0.00000000 -0.00000000
vn 1.00000000 -0.00000000 -0.00000000
vn 1.00000000 -0.00000000 0.00000000
vn 1.00000000 -0.00000000 0.00000000
vn 1.00000000 0.00000000 0.00000000
vn 1.00000000 0.00000000 0.00000000
vn 1.00000000 -0.00000000 0.00000000
vn 1.00000000 -0.00000000 0.00000000
vn 1.00000000 -0.00000000 0.00000000
vn -1.00000000 -0.00000000 -0.00000000
vn -1.00000000 0.00000000 -0.00000000
vn -1.00000000 0.00000000 -0.00000000
vn -1.00000000 0.00000000 -0.00000000
vn -1.00000000 -0.00000000 -0.00000000
vn -1.00000000 0.00000000 -0.00000000
vn -1.00000000 -0.00000000 -0.00000000
vn 1.00000000 0.00000000 0.00000000
vn 1.00000000 0.00000000 0.00000000
vn 1.00000000 0.00000000 0.00000000
vn -0.00000000 -0.55877150 -0.82932166
vn 0.00000000 -0.97428590 -0.22531531
vn 0.00000000 -0.89271051 -0.45063062
vn -0.00000000 -0.27938575 -0.96017894
vn -0.00000000 0.27938575 -0.96017894
vn -0.00000000 -0.55877150 -0.82932166
vn -0.00000000 -0.27938575 -0.96017894
vn -0.00000000 0.55877150 -0.82932166
vn -0.00000000 0.89271051 -0.45063062
vn -0.00000000 0.27938575 -0.96017894
vn -0.00000000 0.55877150 -0.82932166
vn -0.00000000 0.97428590 -0.22531531
vn -1.00000000 0.00000000 -0.00000000
vn -1.00000000 0.00000000 -0.00000000
vn -1.00000000 0.00000000 -0.00000000
vn 1.00000000 -0.00000000 0.00000000
vn 1.00000000 0.00000000 0.00000000
vn 1.00000000 -0.00000000 0.00000000
vn 1.00000000 -0.00000000 0.00000000
vn 1.00000000 0.00000000 0.00000000
vn 1.00000000 0.00000000 0.00000000
vn 1.00000000 -0.00000000 0.00000000
vn -1.00000000 0.00000000 -0.00000000
vn -1.00000000 0.00000000 -0.00000000
vn -1.00000000 0.00000000 -0.00000000
vn -1.00000000 0.00000000 -0.00000000
vn -1.00000000 0.00000000 -0.00000000
vn -1.00000000 0.00000000 -0.00000000
vn -1.00000000 0.00000000 -0.00000000
vn -1.00000000 0.00000000 -0.00000000
vn -1.00000000 0.00000000 -0.00000000
vn -1.00000000 0.00000000 -0.00000000
vn 0.00000000 -0.55877150 0.82932166
vn 0.00000000 -0.97428590 0.22531531
vn 0.00000000 -0.89271051 0.45063062
vn 0.00000000 -0.27938575 0.96017894
vn 0.00000000 0.27938575 0.96017894
vn 0.00000000 -0.55877150 0.82932166
vn 0.00000000 -0.27938575 0.96017894
vn 0.00000000 0.55877150 0.82932166
vn 0.00000000 0.89271051 0.45063062
vn 0.00000000 0.27938575 0.96017894
vn 0.00000000 0.55877150 0.82932166
vn -0.00000000 0.97428590 0.22531531
vn 1.00000000 -0.00000000 0.00000000
vn 1.00000000 -0.00000000 0.00000000
vn 1.00000000 -0.00000000 0.00000000
vn 0.00000000 -1.00000000 0.00000000
vn 0.00000000 -0.89271051 0.45063062
vn 0.00000000 -0.97428590 0.22531531
vn 0.00000000 -1.00000000 0.00000000
vn 0.00000000 -0.97428590 -0.22531531
vn 0.00000000 -1.00000000 0.00000000
vn 0.00000000 -1.00000000 0.00000000
vn 0.00000000 -0.89271051 -0.45063062
vn -0.00000000 1.00000000 -0.00000000
vn 0.00000000 0.89271051 0.45063062
vn -0.00000000 0.97428590 0.22531531
vn -0.00000000 1.00000000 -0.00000000
vn -0.00000000 0.97428590 -0.22531531
vn -0.00000000 1.00000000 -0.00000000
vn -0.00000000 1.00000000 -0.00000000
vn -0.00000000 0.89271051 -0.45063062
vn 0.00000000 0.25881905 -0.96592583
vn 0.00000000 0.25881905 -0.96592583
vn 0.00000000 0.25881905 -0.96592583
vn 0.00000000 0.25881905 -0.96592583
vn 1.00000000 0.00000000 -0.00000000
vn 1.00000000 0.00000000 -0.00000000
vn 1.00000000 0.00000000 -0.00000000
vn 1.00000000 0.00000000 -0.00000000
vn 1.00000000 0.00000000 0.00000000
vn 1.00000000 0.00000000 -0.00000000
vn 1.00000000 0.00000000 -0.00000000
vn -1.00000000 -0.00000000 0.00000000
vn -1.00000000 -0.00000000 0.00000000
vn -1.00000000 -0.00000000 0.00000000
vn -1.00000000 -0.00000000 0.00000000
vn -1.00000000 -0.00000000 -0.00000000
vn -1.00000000 -0.00000000 0.00000000
vn -1.00000000 -0.00000000 0.00000000
vn -1.00000000 -0.00000000 0.00000000
vn -1.00000000 -0.00000000 0.00000000
vn -1.00000000 -0.00000000 -0.00000000
vn -0.00000000 -0.78567084 0.61864475
vn 0.00000000 -0.99839541 -0.05662694
vn 0.00000000 -0.98757229 0.15716542
vn -0.00000000 -0.53613696 0.84413101
vn -0.00000000 0.04224273 0.99910738
vn -0.00000000 -0.78567084 0.61864475
vn -0.00000000 -0.53613696 0.84413101
vn -0.00000000 0.37108853 0.92859749
vn -0.00000000 0.77667999 0.62989539
vn -0.00000000 0.04224273 0.99910738
vn -0.00000000 0.37108853 0.92859749
vn -0.00000000 0.89294925 0.45015734
vn 1.00000000 0.00000000 -0.00000000
vn 1.00000000 0.00000000 -0.00000000
vn 1.00000000 0.00000000 0.00000000
vn 0.00000000 -0.96592583 -0.25881905
vn 0.00000000 -0.98757229 0.15716542
vn 0.00000000 -0.99839541 -0.05662694
vn 0.00000000 -0.96592583 -0.25881905
vn -0.00000000 0.96592583 0.25881905
vn -0.00000000 0.77667999 0.62989539
vn -0.00000000 0.89294925 0.45015734
vn -0.00000000 0.96592583 0.25881905
vn -1.00000000 0.00000000 0.00000000
vn -1.00000000 0.00000000 0.00000000
vn -1.00000000 0.00000000 0.00000000
vn -1.00000000 0.00000000 0.00000000
vn -0.00000000 1.00000000 -0.00000000
vn -0.00000000 1.00000000 -0.00000000
vn -0.00000000 1.00000000 -0.00000000
vn -0.00000000 1.00000000 -0.00000000
vn 0.00000000 -0.00000000 1.00000000
vn 0.00000000 -0.00000000 1.00000000
vn 0.00000000 -0.00000000 1.00000000
vn 0.00000000 -0.00000000 1.00000000
vn -0.00000000 0.00000000 -1.00000000
vn -0.00000000 0.00000000 -1.00000000
vn -0.00000000 0.00000000 -1.00000000
vn -0.00000000 0.00000000 -1.00000000
vn 1.00000000 -0.00000000 -0.00000000
vn 1.00000000 -0.00000000 -0.00000000
vn 1.00000000 -0.00000000 -0.00000000
vn 1.00000000 -0.00000000 -0.00000000

g FireFly_Sus_Front
f 2/1/1 12/2/2 9/3/3 1/4/4
f 14/5/5 12/6/6 2/7/7
f 4/8/8 10/9/9 11/10/10 3/11/11
f 17/12/12 10/13/13 4/14/14
f 1/15/15 9/16/16 18/17/17
f 1/18/18 18/19/19 17/20/20 4/21/21
f 2/22/22 1/23/23 4/24/24 3/25/25
f 14/26/26 2/27/27 3/28/28 13/29/29
f 3/30/30 11/31/31 13/32/32
f 8/33/33 9/34/34 12/35/35 7/36/36
f 19/37/37 9/38/38 8/39/39
f 5/40/40 11/41/41 10/42/42 6/43/43
f 16/44/44 11/45/45 5/46/46
f 6/47/47 10/48/48 20/49/49
f 6/50/50 20/51/51 19/52/52 8/53/53
f 5/54/54 6/55/55 8/56/56 7/57/57
f 16/58/58 5/59/59 7/60/60 15/61/61
f 7/62/62 12/63/63 15/64/64
f 9/65/65 19/66/66 20/67/67 10/68/68
f 18/69/69 9/70/70 10/71/71 17/72/72
f 11/73/73 16/74/74 15/75/75 12/76/76
f 13/77/77 11/78/78 12/79/79 14/80/80
f 21/81/81 30/82/82 27/83/83 22/84/84
f 26/85/85 30/86/86 21/87/87 25/88/88
f 31/89/89 30/90/90 26/91/91
f 23/92/92 22/93/93 27/94/94 24/95/95
f 29/96/96 22/97/97 23/98/98
f 24/99/99 27/100/100 32/101/101
f 24/102/102 32/103/103 31/104/104 26/105/105
f 23/106/106 24/107/107 26/108/108 25/109/109
f 29/110/110 23/111/111 25/112/112 28/113/113
f 25/114/114 21/115/115 28/116/116
f 30/117/117 31/118/118 32/119/119 27/120/120
f 22/121/121 29/122/122 28/123/123 21/124/124
f 34/125/125 33/126/126 36/127/127 35/128/128
f 38/129/129 34/130/130 35/131/131 39/132/132
f 40/133/133 39/134/134 35/135/135 36/136/136
f 38/137/137 37/138/138 33/139/139 34/140/140
f 40/141/141 37/142/142 38/143/143 39/144/144
f 42/145/145 52/146/146 49/147/147 41/148/148
f 54/149/149 52/150/150 42/151/151
f 44/152/152 50/153/153 51/154/154 43/155/155
f 57/156/156 50/157/157 44/158/158
f 41/159/159 49/160/160 58/161/161
f 41/162/162 58/163/163 57/164/164 44/165/165
f 42/166/166 41/167/167 44/168/168 43/169/169
f 54/170/170 42/171/171 43/172/172 53/173/173
f 43/174/174 51/175/175 53/176/176
f 48/177/177 49/178/178 52/179/179 47/180/180
f 59/181/181 49/182/182 48/183/183
f 45/184/184 51/185/185 50/186/186 46/187/187
f 56/188/188 51/189/189 45/190/190
f 46/191/191 50/192/192 60/193/193
f 46/194/194 60/195/195 59/196/196 48/197/197
f 45/198/198 46/199/199 48/200/200 47/201/201
f 56/202/202 45/203/203 47/204/204 55/205/205
f 47/206/206 52/207/207 55/208/208
f 49/209/209 59/210/210 60/211/211 50/212/212
f 58/213/213 49/214/214 50/215/215 57/216/216
f 51/217/217 56/218/218 55/219/219 52/220/220
f 53/221/221 51/222/222 52/223/223 54/224/224
f 61/225/225 70/226/226 67/227/227 62/228/228
f 66/229/229 70/230/230 61/231/231 65/232/232
f 71/233/233 70/234/234 66/235/235
f 63/236/236 62/237/237 67/238/238 64/239/239
f 69/240/240 62/241/241 63/242/242
f 64/243/243 67/244/244 72/245/245
f 64/246/246 72/247/247 71/248/248 66/249/249
f 63/250/250 64/251/251 66/252/252 65/253/253
f 69/254/254 63/255/255 65/256/256 68/257/257
f 65/258/258 61/259/259 68/260/260
f 70/261/261 71/262/262 72/263/263 67/264/264
f 62/265/265 69/266/266 68/267/267 61/268/268
f 74/269/269 73/270/270 76/271/271 75/272/272
f 78/273/273 74/274/274 75/275/275 79/276/276
f 80/277/277 79/278/278 75/279/279 76/280/280
f 78/281/281 77/282/282 73/283/283 74/284/284
f 80/285/285 77/286/286 78/287/287 79/288/288

