# RokuSuper Output Ver6.0 for Wavefront Obj

v 0.15892308 0.02500000 0.03500000
v 0.18107693 0.02500000 0.03500000
v 0.18107693 0.02500000 -0.03500000
v 0.15892308 0.02500000 -0.03500000
v 0.17000000 0.11500000 0.01458333
v 0.17000000 0.11500000 -0.01458333
v -0.18107693 0.02500000 0.03500000
v -0.15892308 0.02500000 0.03500000
v -0.15892308 0.02500000 -0.03500000
v -0.18107693 0.02500000 -0.03500000
v -0.17000000 0.11500000 0.01458333
v -0.17000000 0.11500000 -0.01458333
v 0.23000000 0.00000000 0.06000000
v 0.19000000 0.00000000 0.06000000
v 0.19000000 0.00000000 -0.06000000
v 0.23000000 0.00000000 -0.06000000
v 0.19000000 -0.02500000 0.05000000
v 0.23000000 -0.02500000 0.05000000
v 0.23000000 -0.02500000 -0.05000000
v 0.19000000 -0.02500000 -0.05000000
v 0.19000000 0.02500000 0.05000000
v 0.23000000 0.02500000 0.05000000
v 0.23000000 0.02500000 -0.05000000
v 0.19000000 0.02500000 -0.05000000
v -0.19000000 0.00000000 0.06000000
v -0.23000000 0.00000000 0.06000000
v -0.23000000 0.00000000 -0.06000000
v -0.19000000 0.00000000 -0.06000000
v -0.23000000 -0.02500000 0.05000000
v -0.19000000 -0.02500000 0.05000000
v -0.19000000 -0.02500000 -0.05000000
v -0.23000000 -0.02500000 -0.05000000
v -0.23000000 0.02500000 0.05000000
v -0.19000000 0.02500000 0.05000000
v -0.19000000 0.02500000 -0.05000000
v -0.23000000 0.02500000 -0.05000000
v -0.06333400 -0.03500000 -0.01540000
v 0.06333400 -0.03500000 -0.01540000
v -0.19000000 -0.05500000 0.02566667
v 0.14000067 -0.03500000 0.07000000
v -0.14000067 -0.03500000 0.07000000
v -0.06333400 -0.05500000 -0.01540000
v -0.14000067 -0.05500000 0.07000000
v 0.14000067 -0.05500000 0.07000000
v -0.19000000 -0.03500000 0.02566667
v -0.10000000 -0.03500000 -0.07000000
v 0.19000000 -0.03500000 0.02566667
v 0.19000000 -0.05500000 0.02566667
v -0.10000000 -0.05500000 -0.07000000
v 0.06333400 -0.05500000 -0.01540000
v 0.10000000 -0.03500000 -0.07000000
v 0.10000000 -0.05500000 -0.07000000
v -0.19000000 -0.05500000 0.07000000
v 0.19000000 -0.05500000 0.07000000
v -0.19000000 -0.03500000 0.07000000
v 0.19000000 -0.03500000 0.07000000
v 0.19000000 0.00500000 0.07000000
v 0.19000000 -0.01500000 0.07000000
v -0.19000000 -0.01500000 0.07000000
v -0.19000000 0.00500000 0.07000000
v -0.19000000 -0.03500000 0.07000000
v 0.19000000 -0.03500000 0.07000000
v 0.19000000 -0.03500000 -0.07000000
v -0.19000000 -0.03500000 -0.07000000
v -0.19000000 0.02500000 0.07000000
v 0.19000000 0.02500000 0.07000000
v 0.19000000 0.02500000 -0.07000000
v -0.19000000 0.02500000 -0.07000000
v -0.17500000 0.00500000 0.09000000
v -0.17500000 -0.01500000 0.09000000
v 0.17500000 -0.01500000 0.09000000
v 0.17500000 0.00500000 0.09000000

vt 0.77478858 0.23483289
vt 0.82321830 0.23483289
vt 0.82321830 0.23483289
vt 0.77478858 0.23483289
vt 0.82321830 0.23483289
vt 0.80909296 0.29709967
vt 0.82321830 0.23483289
vt 0.77478858 0.23483289
vt 0.78891391 0.29709967
vt 0.77478858 0.23483289
vt 0.78891391 0.29709967
vt 0.77478858 0.23483289
vt 0.82321830 0.23483289
vt 0.80909296 0.29709967
vt 0.78891391 0.29709967
vt 0.80909296 0.29709967
vt 0.82321830 0.23483289
vt 0.77478858 0.23483289
vt 0.77478858 0.23483289
vt 0.82321830 0.23483289
vt 0.82321830 0.23483289
vt 0.77478858 0.23483289
vt 0.82321830 0.23483289
vt 0.80909296 0.29709967
vt 0.82321830 0.23483289
vt 0.77478858 0.23483289
vt 0.78891391 0.29709967
vt 0.77478858 0.23483289
vt 0.78891391 0.29709967
vt 0.77478858 0.23483289
vt 0.82321830 0.23483289
vt 0.80909296 0.29709967
vt 0.78891391 0.29709967
vt 0.80909296 0.29709967
vt 0.82321830 0.23483289
vt 0.77478858 0.23483289
vt 0.89439982 0.31262572
vt 0.91498019 0.31262572
vt 0.91498019 0.32548845
vt 0.89439982 0.32548845
vt 0.89439982 0.32548845
vt 0.91498019 0.32548845
vt 0.91498019 0.33835118
vt 0.89439982 0.33835118
vt 0.74445788 0.26399639
vt 0.69171363 0.26399639
vt 0.68643921 0.27718246
vt 0.74973231 0.27718246
vt 0.74973231 0.27718246
vt 0.68643921 0.27718246
vt 0.69171363 0.29036852
vt 0.74445788 0.29036852
vt 0.74445788 0.29036852
vt 0.69171363 0.29036852
vt 0.68643921 0.27718246
vt 0.74973231 0.27718246
vt 0.74973231 0.27718246
vt 0.68643921 0.27718246
vt 0.69171363 0.26399639
vt 0.74445788 0.26399639
vt 0.91498019 0.31262572
vt 0.89439982 0.31262572
vt 0.89439982 0.32548845
vt 0.91498019 0.32548845
vt 0.91498019 0.32548845
vt 0.89439982 0.32548845
vt 0.89439982 0.33835118
vt 0.91498019 0.33835118
vt 0.91525630 0.41107669
vt 0.89459397 0.41107669
vt 0.89459397 0.36021721
vt 0.91525630 0.36021721
vt 0.69829461 0.44611586
vt 0.69829461 0.49785901
vt 0.67759735 0.49785901
vt 0.67759735 0.44611586
vt 0.67830593 0.31262572
vt 0.69888630 0.31262572
vt 0.69888630 0.32548845
vt 0.67830593 0.32548845
vt 0.67830593 0.32548845
vt 0.69888630 0.32548845
vt 0.69888630 0.33835118
vt 0.67830593 0.33835118
vt 0.74445788 0.26399639
vt 0.69171363 0.26399639
vt 0.68643921 0.27718246
vt 0.74973231 0.27718246
vt 0.74973231 0.27718246
vt 0.68643921 0.27718246
vt 0.69171363 0.29036852
vt 0.74445788 0.29036852
vt 0.74445788 0.29036852
vt 0.69171363 0.29036852
vt 0.68643921 0.27718246
vt 0.74973231 0.27718246
vt 0.74973231 0.27718246
vt 0.68643921 0.27718246
vt 0.69171363 0.26399639
vt 0.74445788 0.26399639
vt 0.69888630 0.31262572
vt 0.67830593 0.31262572
vt 0.67830593 0.32548845
vt 0.69888630 0.32548845
vt 0.69888630 0.32548845
vt 0.67830593 0.32548845
vt 0.67830593 0.33835118
vt 0.69888630 0.33835118
vt 0.69830184 0.41107669
vt 0.67763952 0.41107669
vt 0.67763952 0.36021721
vt 0.69830184 0.36021721
vt 0.91561584 0.44611586
vt 0.91561584 0.49785901
vt 0.89491858 0.49785901
vt 0.89491858 0.44611586
vt 0.86876640 0.42379156
vt 0.86876640 0.42379156
vt 0.82916360 0.37801803
vt 0.82916360 0.37801803
vt 0.76373221 0.37801803
vt 0.72412941 0.42379156
vt 0.72412941 0.42379156
vt 0.76373221 0.37801803
vt 0.76373221 0.37801803
vt 0.76373221 0.37801803
vt 0.82916360 0.37801803
vt 0.82916360 0.37801803
vt 0.69830184 0.39836182
vt 0.76373221 0.37801803
vt 0.72412941 0.42379156
vt 0.69830184 0.42379156
vt 0.89459397 0.42379156
vt 0.89459397 0.42379156
vt 0.86876640 0.42379156
vt 0.86876640 0.42379156
vt 0.72412941 0.42379156
vt 0.72412941 0.42379156
vt 0.69830184 0.42379156
vt 0.69830184 0.42379156
vt 0.69830184 0.39836182
vt 0.74479208 0.34750234
vt 0.76373221 0.37801803
vt 0.89459397 0.39836182
vt 0.89459397 0.42379156
vt 0.86876640 0.42379156
vt 0.82916360 0.37801803
vt 0.89459397 0.39836182
vt 0.82916360 0.37801803
vt 0.84810373 0.34750234
vt 0.84810373 0.34750234
vt 0.84810373 0.34750234
vt 0.89459397 0.39836182
vt 0.89459397 0.39836182
vt 0.70457180 0.28868690
vt 0.70457180 0.29923575
vt 0.67819968 0.29923575
vt 0.67819968 0.28868690
vt 0.67819968 0.28868690
vt 0.67819968 0.29923575
vt 0.70457180 0.29923575
vt 0.70457180 0.28868690
vt 0.69830184 0.39836182
vt 0.69830184 0.39836182
vt 0.74479208 0.34750234
vt 0.74479208 0.34750234
vt 0.74479208 0.34750234
vt 0.84810373 0.34750234
vt 0.82916360 0.37801803
vt 0.76373221 0.37801803
vt 0.74479208 0.34750234
vt 0.74479208 0.34750234
vt 0.84810373 0.34750234
vt 0.84810373 0.34750234
vt 0.70605608 0.52114343
vt 0.69829461 0.51079480
vt 0.89491858 0.51079480
vt 0.88715711 0.52114343
vt 0.89491858 0.51079480
vt 0.89491858 0.51079480
vt 0.88715711 0.52114343
vt 0.88715711 0.52114343
vt 0.89491858 0.51079480
vt 0.69829461 0.51079480
vt 0.70605608 0.52114343
vt 0.88715711 0.52114343
vt 0.69829461 0.51079480
vt 0.69829461 0.51079480
vt 0.70605608 0.52114343
vt 0.70605608 0.52114343
vt 0.67852757 0.25872197
vt 0.75764394 0.25872197
vt 0.75764394 0.29036852
vt 0.67852757 0.26927082
vt 0.75764394 0.29036852
vt 0.67852757 0.27981967
vt 0.67852757 0.26927082
vt 0.75764394 0.29036852
vt 0.67852757 0.29036852
vt 0.67852757 0.27981967
vt 0.75764394 0.29036852
vt 0.75764394 0.25872197
vt 0.67852757 0.25872197
vt 0.67852757 0.26927082
vt 0.75764394 0.29036852
vt 0.67852757 0.27981967
vt 0.67852757 0.29036852
vt 0.75764394 0.29036852
vt 0.67852757 0.26927082
vt 0.67852757 0.27981967
vt 0.69888630 0.30748062
vt 0.89439982 0.30748062
vt 0.89439982 0.31777081
vt 0.69888630 0.31777081
vt 0.69888630 0.32806099
vt 0.89439982 0.32806099
vt 0.89439982 0.33835118
vt 0.69888630 0.33835118
vt 0.89459397 0.42379156
vt 0.69830184 0.42379156
vt 0.69830184 0.34750234
vt 0.89459397 0.34750234
vt 0.69888630 0.33835118
vt 0.89439982 0.33835118
vt 0.89439982 0.30748062
vt 0.69888630 0.30748062
vt 0.89491858 0.43318007
vt 0.89491858 0.51079480
vt 0.69829461 0.51079480
vt 0.69829461 0.43318007
vt 0.88668218 0.32806099
vt 0.70660394 0.32806099
vt 0.70660394 0.31777081
vt 0.88668218 0.31777081

vn 0.00000000 -1.00000000 0.00000000
vn 0.00000000 -1.00000000 0.00000000
vn 0.00000000 -1.00000000 0.00000000
vn 0.00000000 -1.00000000 0.00000000
vn 0.00000000 0.22123080 -0.97522148
vn 0.00000000 0.22123080 -0.97522148
vn 0.00000000 0.22123080 -0.97522148
vn 0.00000000 0.22123080 0.97522148
vn 0.00000000 0.22123080 0.97522148
vn 0.00000000 0.22123080 0.97522148
vn 0.99251101 0.12215520 0.00000000
vn 0.99251101 0.12215520 0.00000000
vn 0.99251101 0.12215520 0.00000000
vn 0.99251101 0.12215520 0.00000000
vn -0.99251101 0.12215520 0.00000000
vn -0.99251101 0.12215520 0.00000000
vn -0.99251101 0.12215520 0.00000000
vn -0.99251101 0.12215520 0.00000000
vn 0.00000000 -1.00000000 0.00000000
vn 0.00000000 -1.00000000 0.00000000
vn 0.00000000 -1.00000000 0.00000000
vn 0.00000000 -1.00000000 0.00000000
vn 0.00000000 0.22123080 -0.97522148
vn 0.00000000 0.22123080 -0.97522148
vn 0.00000000 0.22123080 -0.97522148
vn 0.00000000 0.22123080 0.97522148
vn 0.00000000 0.22123080 0.97522148
vn 0.00000000 0.22123080 0.97522148
vn 0.99251101 0.12215520 0.00000000
vn 0.99251101 0.12215520 0.00000000
vn 0.99251101 0.12215520 0.00000000
vn 0.99251101 0.12215520 0.00000000
vn -0.99251101 0.12215520 0.00000000
vn -0.99251101 0.12215520 0.00000000
vn -0.99251101 0.12215520 0.00000000
vn -0.99251101 0.12215520 0.00000000
vn -0.00000000 -0.68433551 0.72916728
vn -0.00000000 -0.93117065 0.36458364
vn -0.00000000 -0.13216372 0.99122790
vn -0.00000000 0.13216372 0.99122790
vn -0.00000000 0.13216372 0.99122790
vn -0.00000000 -0.13216372 0.99122790
vn -0.00000000 0.82806723 0.56062881
vn -0.00000000 0.82806723 0.56062881
vn -1.00000000 0.00000000 0.00000000
vn -1.00000000 0.00000000 0.00000000
vn -1.00000000 0.00000000 0.00000000
vn -1.00000000 0.00000000 0.00000000
vn -1.00000000 0.00000000 0.00000000
vn -1.00000000 0.00000000 0.00000000
vn -1.00000000 0.00000000 0.00000000
vn -1.00000000 0.00000000 0.00000000
vn 1.00000000 0.00000000 0.00000000
vn 1.00000000 0.00000000 0.00000000
vn 1.00000000 0.00000000 0.00000000
vn 1.00000000 0.00000000 0.00000000
vn 1.00000000 0.00000000 0.00000000
vn 1.00000000 0.00000000 0.00000000
vn 1.00000000 0.00000000 0.00000000
vn 1.00000000 0.00000000 0.00000000
vn 0.00000000 -0.68433551 -0.72916728
vn 0.00000000 -0.93117065 -0.36458364
vn 0.00000000 -0.13216372 -0.99122790
vn 0.00000000 0.13216372 -0.99122790
vn 0.00000000 0.13216372 -0.99122790
vn 0.00000000 -0.13216372 -0.99122790
vn 0.00000000 0.82806723 -0.56062881
vn 0.00000000 0.82806723 -0.56062881
vn -0.00000000 -0.93117065 0.36458364
vn -0.00000000 -0.68433551 0.72916728
vn 0.00000000 -0.93117065 -0.36458364
vn 0.00000000 -0.68433551 -0.72916728
vn 0.00000000 0.82806723 -0.56062881
vn -0.00000000 0.82806723 0.56062881
vn -0.00000000 0.82806723 0.56062881
vn 0.00000000 0.82806723 -0.56062881
vn 0.00000000 -0.68433551 0.72916728
vn 0.00000000 -0.93117065 0.36458364
vn 0.00000000 -0.13216372 0.99122790
vn 0.00000000 0.13216372 0.99122790
vn 0.00000000 0.13216372 0.99122790
vn 0.00000000 -0.13216372 0.99122790
vn 0.00000000 0.82806723 0.56062881
vn 0.00000000 0.82806723 0.56062881
vn -1.00000000 0.00000000 0.00000000
vn -1.00000000 0.00000000 0.00000000
vn -1.00000000 0.00000000 0.00000000
vn -1.00000000 0.00000000 0.00000000
vn -1.00000000 0.00000000 0.00000000
vn -1.00000000 0.00000000 0.00000000
vn -1.00000000 0.00000000 0.00000000
vn -1.00000000 0.00000000 0.00000000
vn 1.00000000 0.00000000 0.00000000
vn 1.00000000 0.00000000 0.00000000
vn 1.00000000 0.00000000 0.00000000
vn 1.00000000 0.00000000 0.00000000
vn 1.00000000 0.00000000 0.00000000
vn 1.00000000 0.00000000 0.00000000
vn 1.00000000 0.00000000 0.00000000
vn 1.00000000 0.00000000 0.00000000
vn 0.00000000 -0.68433551 -0.72916728
vn 0.00000000 -0.93117065 -0.36458364
vn 0.00000000 -0.13216372 -0.99122790
vn 0.00000000 0.13216372 -0.99122790
vn 0.00000000 0.13216372 -0.99122790
vn 0.00000000 -0.13216372 -0.99122790
vn 0.00000000 0.82806723 -0.56062881
vn 0.00000000 0.82806723 -0.56062881
vn 0.00000000 -0.93117065 0.36458364
vn 0.00000000 -0.68433551 0.72916728
vn 0.00000000 -0.93117065 -0.36458364
vn 0.00000000 -0.68433551 -0.72916728
vn 0.00000000 0.82806723 -0.56062881
vn 0.00000000 0.82806723 0.56062881
vn 0.00000000 0.82806723 0.56062881
vn 0.00000000 0.82806723 -0.56062881
vn -0.53730567 -0.00000000 0.84338758
vn -0.26865284 -0.00000000 0.96323707
vn -0.53730567 -0.00000000 0.84338758
vn -0.26865284 0.00000000 0.96323707
vn 0.40741042 0.00000000 0.91324517
vn 0.40741042 0.00000000 0.91324517
vn 0.40741042 -0.00000000 0.91324517
vn 0.40741042 0.00000000 0.91324517
vn 0.40741042 0.00000000 0.91324517
vn 0.40741042 0.00000000 0.91324517
vn -0.26865284 0.00000000 0.96323707
vn -0.53730567 -0.00000000 0.84338758
vn 0.00000000 -1.00000000 0.00000000
vn 0.00000000 -1.00000000 0.00000000
vn 0.00000000 -1.00000000 -0.00000000
vn 0.00000000 -1.00000000 0.00000000
vn 0.00000000 -0.00000000 1.00000000
vn 0.00000000 -0.00000000 1.00000000
vn -0.26865284 -0.00000000 0.96323707
vn -0.53730567 -0.00000000 0.84338758
vn 0.40741042 -0.00000000 0.91324517
vn 0.40741042 0.00000000 0.91324517
vn 0.00000000 -0.00000000 1.00000000
vn 0.00000000 -0.00000000 1.00000000
vn 0.00000000 -1.00000000 0.00000000
vn 0.00000000 -1.00000000 0.00000000
vn 0.00000000 -1.00000000 0.00000000
vn 0.00000000 -1.00000000 -0.00000000
vn -0.00000000 -1.00000000 -0.00000000
vn 0.00000000 -1.00000000 -0.00000000
vn 0.00000000 -1.00000000 0.00000000
vn 0.00000000 -1.00000000 -0.00000000
vn 0.00000000 -1.00000000 0.00000000
vn -0.00000000 -1.00000000 0.00000000
vn 0.72834899 0.00000000 -0.68520636
vn 0.72834899 -0.00000000 -0.68520636
vn 0.87331379 0.00000000 -0.48715810
vn 0.96988105 0.00000000 -0.24357905
vn 0.96988105 0.00000000 -0.24357905
vn 0.87331379 0.00000000 -0.48715810
vn 1.00000000 0.00000000 -0.00000000
vn 1.00000000 0.00000000 -0.00000000
vn -1.00000000 0.00000000 0.00000000
vn -1.00000000 0.00000000 0.00000000
vn -0.96988105 0.00000000 -0.24357905
vn -0.87331379 -0.00000000 -0.48715810
vn -0.87331379 -0.00000000 -0.48715810
vn -0.96988105 0.00000000 -0.24357905
vn -0.72834899 -0.00000000 -0.68520636
vn -0.72834899 -0.00000000 -0.68520636
vn 0.00000000 -1.00000000 0.00000000
vn -0.00000000 -1.00000000 0.00000000
vn 0.00000000 -1.00000000 0.00000000
vn 0.00000000 -1.00000000 0.00000000
vn -0.00000000 -0.00000000 -1.00000000
vn -0.00000000 -0.00000000 -1.00000000
vn -0.00000000 -0.00000000 -1.00000000
vn -0.00000000 -0.00000000 -1.00000000
vn 0.39036003 0.48795004 0.78072006
vn 0.82928843 0.29617444 0.47387910
vn -0.82928843 0.29617444 0.47387910
vn -0.39036003 0.48795004 0.78072006
vn -0.82928843 0.29617444 0.47387910
vn -0.82928843 -0.29617444 0.47387910
vn -0.39036003 -0.48795004 0.78072006
vn -0.39036003 0.48795004 0.78072006
vn -0.82928843 -0.29617444 0.47387910
vn 0.82928843 -0.29617444 0.47387910
vn 0.39036003 -0.48795004 0.78072006
vn -0.39036003 -0.48795004 0.78072006
vn 0.82928843 -0.29617444 0.47387910
vn 0.82928843 0.29617444 0.47387910
vn 0.39036003 0.48795004 0.78072006
vn 0.39036003 -0.48795004 0.78072006
vn 0.57735027 -0.57735027 0.57735027
vn 0.57735027 -0.57735027 -0.57735027
vn 0.90453403 0.30151134 -0.30151134
vn 0.82928843 -0.29617444 0.47387910
vn 0.90453403 0.30151134 -0.30151134
vn 0.82928843 0.29617444 0.47387910
vn 0.82928843 -0.29617444 0.47387910
vn 0.90453403 0.30151134 -0.30151134
vn 0.57735027 0.57735027 0.57735027
vn 0.82928843 0.29617444 0.47387910
vn -0.90453403 0.30151134 -0.30151134
vn -0.57735027 -0.57735027 -0.57735027
vn -0.57735027 -0.57735027 0.57735027
vn -0.82928843 -0.29617444 0.47387910
vn -0.90453403 0.30151134 -0.30151134
vn -0.82928843 0.29617444 0.47387910
vn -0.57735027 0.57735027 0.57735027
vn -0.90453403 0.30151134 -0.30151134
vn -0.82928843 -0.29617444 0.47387910
vn -0.82928843 0.29617444 0.47387910
vn -0.57735027 -0.57735027 0.57735027
vn 0.57735027 -0.57735027 0.57735027
vn 0.82928843 -0.29617444 0.47387910
vn -0.82928843 -0.29617444 0.47387910
vn -0.82928843 0.29617444 0.47387910
vn 0.82928843 0.29617444 0.47387910
vn 0.57735027 0.57735027 0.57735027
vn -0.57735027 0.57735027 0.57735027
vn 0.57735027 -0.57735027 0.57735027
vn -0.57735027 -0.57735027 0.57735027
vn -0.57735027 -0.57735027 -0.57735027
vn 0.57735027 -0.57735027 -0.57735027
vn -0.90453403 0.30151134 -0.30151134
vn 0.90453403 0.30151134 -0.30151134
vn 0.57735027 -0.57735027 -0.57735027
vn -0.57735027 -0.57735027 -0.57735027
vn -0.90453403 0.30151134 -0.30151134
vn -0.57735027 0.57735027 0.57735027
vn 0.57735027 0.57735027 0.57735027
vn 0.90453403 0.30151134 -0.30151134
vn 0.39036003 0.48795004 0.78072006
vn -0.39036003 0.48795004 0.78072006
vn -0.39036003 -0.48795004 0.78072006
vn 0.39036003 -0.48795004 0.78072006

g FireFly_Belt_Sp0140
f 1/1/1 4/2/2 3/3/3 2/4/4
f 4/5/5 6/6/6 3/7/7
f 2/8/8 5/9/9 1/10/10
f 5/11/11 2/12/12 3/13/13 6/14/14
f 5/15/15 6/16/16 4/17/17 1/18/18
f 7/19/19 10/20/20 9/21/21 8/22/22
f 10/23/23 12/24/24 9/25/25
f 8/26/26 11/27/27 7/28/28
f 11/29/29 8/30/30 9/31/31 12/32/32
f 11/33/33 12/34/34 10/35/35 7/36/36
f 17/37/37 18/38/38 13/39/39 14/40/40
f 14/41/41 13/42/42 22/43/43 21/44/44
f 20/45/45 17/46/46 14/47/47 15/48/48
f 15/49/49 14/50/50 21/51/51 24/52/52
f 23/53/53 22/54/54 13/55/55 16/56/56
f 16/57/57 13/58/58 18/59/59 19/60/60
f 19/61/61 20/62/62 15/63/63 16/64/64
f 16/65/65 15/66/66 24/67/67 23/68/68
f 18/69/69 17/70/70 20/71/71 19/72/72
f 24/73/73 21/74/74 22/75/75 23/76/76
f 29/77/77 30/78/78 25/79/79 26/80/80
f 26/81/81 25/82/82 34/83/83 33/84/84
f 32/85/85 29/86/86 26/87/87 27/88/88
f 27/89/89 26/90/90 33/91/91 36/92/92
f 35/93/93 34/94/94 25/95/95 28/96/96
f 28/97/97 25/98/98 30/99/99 31/100/100
f 31/101/101 32/102/102 27/103/103 28/104/104
f 28/105/105 27/106/106 36/107/107 35/108/108
f 30/109/109 29/110/110 32/111/111 31/112/112
f 36/113/113 33/114/114 34/115/115 35/116/116
f 44/117/117 40/118/118 38/119/119 50/120/120
f 37/121/121 41/122/122 43/123/123 42/124/124
f 37/125/125 42/126/126 50/127/127 38/128/128
f 39/129/129 42/130/130 43/131/131 53/132/132
f 54/133/133 56/134/134 40/135/135 44/136/136
f 43/137/137 41/138/138 55/139/139 53/140/140
f 39/141/141 49/142/142 42/143/143
f 48/144/144 54/145/145 44/146/146 50/147/147
f 48/148/148 50/149/149 52/150/150
f 52/151/151 51/152/152 47/153/153 48/154/154
f 48/155/155 47/156/156 56/157/157 54/158/158
f 53/159/159 55/160/160 45/161/161 39/162/162
f 39/163/163 45/164/164 46/165/165 49/166/166
f 49/167/167 52/168/168 50/169/169 42/170/170
f 49/171/171 46/172/172 51/173/173 52/174/174
f 72/175/175 57/176/176 60/177/177 69/178/178
f 60/179/179 59/180/180 70/181/181 69/182/182
f 59/183/183 58/184/184 71/185/185 70/186/186
f 58/187/187 57/188/188 72/189/189 71/190/190
f 62/191/191 63/192/192 67/193/193 58/194/194
f 67/195/195 57/196/196 58/197/197
f 67/198/198 66/199/199 57/200/200
f 68/201/201 64/202/202 61/203/203 59/204/204
f 68/205/205 60/206/206 65/207/207
f 68/208/208 59/209/209 60/210/210
f 61/211/211 62/212/212 58/213/213 59/214/214
f 60/215/215 57/216/216 66/217/217 65/218/218
f 62/219/219 61/220/220 64/221/221 63/222/222
f 68/223/223 67/224/224 63/225/225 64/226/226
f 68/227/227 65/228/228 66/229/229 67/230/230
f 72/231/231 69/232/232 70/233/233 71/234/234

