# RokuSuper Output Ver6.0 for Wavefront Obj

v -0.00000000 -0.10000000 -0.28000000
v 0.08652476 -0.10000000 -0.26629583
v 0.08652476 0.10000000 -0.26629583
v 0.16457987 -0.10000000 -0.22652476
v 0.16457987 0.10000000 -0.22652476
v 0.22652476 -0.10000000 -0.16457987
v 0.22652476 0.10000000 -0.16457987
v 0.26629583 -0.10000000 -0.08652476
v 0.26629583 0.10000000 -0.08652476
v 0.28000000 -0.10000000 0.00000000
v 0.28000000 0.10000000 -0.00000000
v 0.26629583 -0.10000000 0.08652476
v 0.26629583 0.10000000 0.08652476
v 0.22652476 -0.10000000 0.16457987
v 0.22652476 0.10000000 0.16457987
v 0.16457987 -0.10000000 0.22652476
v 0.16457987 0.10000000 0.22652476
v 0.08652476 -0.10000000 0.26629583
v 0.08652476 0.10000000 0.26629583
v -0.00000000 -0.10000000 0.28000000
v -0.00000000 0.10000000 0.28000000
v -0.08652476 -0.10000000 0.26629583
v -0.08652476 0.10000000 0.26629583
v -0.16457987 -0.10000000 0.22652476
v -0.16457987 0.10000000 0.22652476
v -0.22652476 -0.10000000 0.16457987
v -0.22652476 0.10000000 0.16457987
v -0.26629583 -0.10000000 0.08652476
v -0.26629583 0.10000000 0.08652476
v -0.28000000 -0.10000000 0.00000000
v -0.28000000 0.10000000 0.00000000
v -0.26629583 -0.10000000 -0.08652476
v -0.26629583 0.10000000 -0.08652476
v -0.22652476 -0.10000000 -0.16457987
v -0.22652476 0.10000000 -0.16457987
v -0.16457987 -0.10000000 -0.22652476
v -0.16457987 0.10000000 -0.22652476
v -0.08652476 -0.10000000 -0.26629583
v -0.08652476 0.10000000 -0.26629583
v 0.00000000 0.10000000 -0.28000000
v 0.00000000 0.10000000 0.00000000
v -0.00000000 -0.10000000 0.00000000

vt 0.50000000 0.00000000
vt 0.50000000 0.00000000
vt 0.65450850 0.02447174
vt 0.65450850 0.02447174
vt 0.50000000 0.00000000
vt 0.50000000 0.00000000
vt 0.34549150 0.02447174
vt 0.34549150 0.02447174
vt 0.50000000 0.50000000
vt 0.34549150 0.02447174
vt 0.50000000 0.00000000
vt 0.50000000 0.50000000
vt 0.50000000 0.00000000
vt 0.34549150 0.02447174
vt 0.50000000 0.50000000
vt 0.20610737 0.09549150
vt 0.34549150 0.02447174
vt 0.34549150 0.02447174
vt 0.34549150 0.02447174
vt 0.20610737 0.09549150
vt 0.20610737 0.09549150
vt 0.50000000 0.50000000
vt 0.34549150 0.02447174
vt 0.20610737 0.09549150
vt 0.50000000 0.50000000
vt 0.09549150 0.20610737
vt 0.20610737 0.09549150
vt 0.20610737 0.09549150
vt 0.20610737 0.09549150
vt 0.09549150 0.20610737
vt 0.09549150 0.20610737
vt 0.50000000 0.50000000
vt 0.20610737 0.09549150
vt 0.09549150 0.20610737
vt 0.50000000 0.50000000
vt 0.02447174 0.34549150
vt 0.09549150 0.20610737
vt 0.09549150 0.20610737
vt 0.09549150 0.20610737
vt 0.02447174 0.34549150
vt 0.02447174 0.34549150
vt 0.50000000 0.50000000
vt 0.09549150 0.20610737
vt 0.02447174 0.34549150
vt 0.50000000 0.50000000
vt 0.00000000 0.50000000
vt 0.02447174 0.34549150
vt 0.02447174 0.34549150
vt 0.02447174 0.34549150
vt 0.00000000 0.50000000
vt 0.00000000 0.50000000
vt 0.50000000 0.50000000
vt 0.02447174 0.34549150
vt 0.00000000 0.50000000
vt 0.50000000 0.50000000
vt 0.02447174 0.65450850
vt 0.00000000 0.50000000
vt 0.00000000 0.50000000
vt 0.00000000 0.50000000
vt 0.02447174 0.65450850
vt 0.02447174 0.65450850
vt 0.50000000 0.50000000
vt 0.00000000 0.50000000
vt 0.02447174 0.65450850
vt 0.50000000 0.50000000
vt 0.09549150 0.79389263
vt 0.02447174 0.65450850
vt 0.02447174 0.65450850
vt 0.02447174 0.65450850
vt 0.09549150 0.79389263
vt 0.09549150 0.79389263
vt 0.50000000 0.50000000
vt 0.02447174 0.65450850
vt 0.09549150 0.79389263
vt 0.50000000 0.50000000
vt 0.20610737 0.90450850
vt 0.09549150 0.79389263
vt 0.09549150 0.79389263
vt 0.09549150 0.79389263
vt 0.20610737 0.90450850
vt 0.20610737 0.90450850
vt 0.50000000 0.50000000
vt 0.09549150 0.79389263
vt 0.20610737 0.90450850
vt 0.50000000 0.50000000
vt 0.34549150 0.97552826
vt 0.20610737 0.90450850
vt 0.20610737 0.90450850
vt 0.20610737 0.90450850
vt 0.34549150 0.97552826
vt 0.34549150 0.97552826
vt 0.50000000 0.50000000
vt 0.20610737 0.90450850
vt 0.34549150 0.97552826
vt 0.50000000 0.50000000
vt 0.50000000 1.00000000
vt 0.34549150 0.97552826
vt 0.34549150 0.97552826
vt 0.34549150 0.97552826
vt 0.50000000 1.00000000
vt 0.50000000 1.00000000
vt 0.50000000 0.50000000
vt 0.34549150 0.97552826
vt 0.50000000 1.00000000
vt 0.50000000 0.50000000
vt 0.65450850 0.97552826
vt 0.50000000 1.00000000
vt 0.50000000 1.00000000
vt 0.50000000 1.00000000
vt 0.65450850 0.97552826
vt 0.65450850 0.97552826
vt 0.50000000 0.50000000
vt 0.50000000 1.00000000
vt 0.65450850 0.97552826
vt 0.50000000 0.50000000
vt 0.79389263 0.90450850
vt 0.65450850 0.97552826
vt 0.65450850 0.97552826
vt 0.65450850 0.97552826
vt 0.79389263 0.90450850
vt 0.79389263 0.90450850
vt 0.50000000 0.50000000
vt 0.65450850 0.97552826
vt 0.79389263 0.90450850
vt 0.50000000 0.50000000
vt 0.90450850 0.79389263
vt 0.79389263 0.90450850
vt 0.79389263 0.90450850
vt 0.79389263 0.90450850
vt 0.90450850 0.79389263
vt 0.90450850 0.79389263
vt 0.50000000 0.50000000
vt 0.79389263 0.90450850
vt 0.90450850 0.79389263
vt 0.50000000 0.50000000
vt 0.97552826 0.65450850
vt 0.90450850 0.79389263
vt 0.90450850 0.79389263
vt 0.90450850 0.79389263
vt 0.97552826 0.65450850
vt 0.97552826 0.65450850
vt 0.50000000 0.50000000
vt 0.90450850 0.79389263
vt 0.97552826 0.65450850
vt 0.50000000 0.50000000
vt 1.00000000 0.50000000
vt 0.97552826 0.65450850
vt 0.97552826 0.65450850
vt 0.97552826 0.65450850
vt 1.00000000 0.50000000
vt 1.00000000 0.50000000
vt 0.50000000 0.50000000
vt 0.97552826 0.65450850
vt 1.00000000 0.50000000
vt 0.50000000 0.50000000
vt 0.97552826 0.34549150
vt 1.00000000 0.50000000
vt 1.00000000 0.50000000
vt 1.00000000 0.50000000
vt 0.97552826 0.34549150
vt 0.97552826 0.34549150
vt 0.50000000 0.50000000
vt 1.00000000 0.50000000
vt 0.97552826 0.34549150
vt 0.50000000 0.50000000
vt 0.90450850 0.20610737
vt 0.97552826 0.34549150
vt 0.97552826 0.34549150
vt 0.97552826 0.34549150
vt 0.90450850 0.20610737
vt 0.90450850 0.20610737
vt 0.50000000 0.50000000
vt 0.97552826 0.34549150
vt 0.90450850 0.20610737
vt 0.50000000 0.50000000
vt 0.79389263 0.09549150
vt 0.90450850 0.20610737
vt 0.90450850 0.20610737
vt 0.90450850 0.20610737
vt 0.79389263 0.09549150
vt 0.79389263 0.09549150
vt 0.50000000 0.50000000
vt 0.90450850 0.20610737
vt 0.79389263 0.09549150
vt 0.50000000 0.50000000
vt 0.65450850 0.02447174
vt 0.79389263 0.09549150
vt 0.79389263 0.09549150
vt 0.79389263 0.09549150
vt 0.65450850 0.02447174
vt 0.65450850 0.02447174
vt 0.50000000 0.50000000
vt 0.79389263 0.09549150
vt 0.65450850 0.02447174
vt 0.50000000 0.50000000
vt 0.50000000 0.00000000
vt 0.65450850 0.02447174
vt 0.50000000 0.50000000
vt 0.65450850 0.02447174
vt 0.50000000 0.00000000

vn -0.05272139 -0.00000000 -0.99860926
vn 0.05272139 -0.00000000 -0.99860926
vn -0.25844621 -0.00000000 -0.96602565
vn -0.35872825 -0.00000000 -0.93344204
vn 0.05272139 -0.00000000 -0.99860926
vn -0.05272139 -0.00000000 -0.99860926
vn 0.25844621 -0.00000000 -0.96602565
vn 0.35872825 -0.00000000 -0.93344204
vn 0.00000000 1.00000000 0.00000000
vn 0.00000000 1.00000000 -0.00000000
vn -0.00000000 1.00000000 -0.00000000
vn -0.00000000 -1.00000000 -0.00000000
vn -0.00000000 -1.00000000 -0.00000000
vn -0.00000000 -1.00000000 0.00000000
vn 0.00000000 1.00000000 -0.00000000
vn 0.00000000 1.00000000 -0.00000000
vn 0.00000000 1.00000000 -0.00000000
vn 0.35872825 -0.00000000 -0.93344204
vn 0.25844621 -0.00000000 -0.96602565
vn 0.54431530 -0.00000000 -0.83888072
vn 0.62962030 -0.00000000 -0.77690301
vn -0.00000000 -1.00000000 -0.00000000
vn -0.00000000 -1.00000000 0.00000000
vn -0.00000000 -1.00000000 0.00000000
vn 0.00000000 1.00000000 -0.00000000
vn 0.00000000 1.00000000 -0.00000000
vn 0.00000000 1.00000000 -0.00000000
vn 0.62962030 -0.00000000 -0.77690301
vn 0.54431530 -0.00000000 -0.83888072
vn 0.77690301 -0.00000000 -0.62962030
vn 0.83888072 -0.00000000 -0.54431530
vn -0.00000000 -1.00000000 -0.00000000
vn -0.00000000 -1.00000000 0.00000000
vn -0.00000000 -1.00000000 -0.00000000
vn 0.00000000 1.00000000 0.00000000
vn 0.00000000 1.00000000 0.00000000
vn 0.00000000 1.00000000 -0.00000000
vn 0.83888072 -0.00000000 -0.54431530
vn 0.77690301 -0.00000000 -0.62962030
vn 0.93344204 -0.00000000 -0.35872825
vn 0.96602565 -0.00000000 -0.25844621
vn -0.00000000 -1.00000000 -0.00000000
vn -0.00000000 -1.00000000 -0.00000000
vn -0.00000000 -1.00000000 0.00000000
vn 0.00000000 1.00000000 0.00000000
vn 0.00000000 1.00000000 0.00000000
vn 0.00000000 1.00000000 0.00000000
vn 0.96602565 -0.00000000 -0.25844621
vn 0.93344204 -0.00000000 -0.35872825
vn 0.99860926 -0.00000000 -0.05272139
vn 0.99860926 -0.00000000 0.05272139
vn -0.00000000 -1.00000000 -0.00000000
vn -0.00000000 -1.00000000 0.00000000
vn -0.00000000 -1.00000000 -0.00000000
vn 0.00000000 1.00000000 -0.00000000
vn 0.00000000 1.00000000 -0.00000000
vn 0.00000000 1.00000000 0.00000000
vn 0.99860926 -0.00000000 0.05272139
vn 0.99860926 -0.00000000 -0.05272139
vn 0.96602565 -0.00000000 0.25844621
vn 0.93344204 -0.00000000 0.35872825
vn -0.00000000 -1.00000000 -0.00000000
vn -0.00000000 -1.00000000 -0.00000000
vn -0.00000000 -1.00000000 -0.00000000
vn 0.00000000 1.00000000 -0.00000000
vn 0.00000000 1.00000000 0.00000000
vn 0.00000000 1.00000000 -0.00000000
vn 0.93344204 -0.00000000 0.35872825
vn 0.96602565 -0.00000000 0.25844621
vn 0.83888072 0.00000000 0.54431530
vn 0.77690301 0.00000000 0.62962030
vn -0.00000000 -1.00000000 -0.00000000
vn -0.00000000 -1.00000000 -0.00000000
vn -0.00000000 -1.00000000 0.00000000
vn 0.00000000 1.00000000 0.00000000
vn 0.00000000 1.00000000 0.00000000
vn 0.00000000 1.00000000 0.00000000
vn 0.77690301 0.00000000 0.62962030
vn 0.83888072 0.00000000 0.54431530
vn 0.62962030 0.00000000 0.77690301
vn 0.54431530 0.00000000 0.83888072
vn -0.00000000 -1.00000000 -0.00000000
vn -0.00000000 -1.00000000 0.00000000
vn -0.00000000 -1.00000000 -0.00000000
vn 0.00000000 1.00000000 0.00000000
vn 0.00000000 1.00000000 0.00000000
vn 0.00000000 1.00000000 0.00000000
vn 0.54431530 0.00000000 0.83888072
vn 0.62962030 0.00000000 0.77690301
vn 0.35872825 0.00000000 0.93344204
vn 0.25844621 0.00000000 0.96602565
vn -0.00000000 -1.00000000 -0.00000000
vn -0.00000000 -1.00000000 -0.00000000
vn -0.00000000 -1.00000000 -0.00000000
vn 0.00000000 1.00000000 0.00000000
vn -0.00000000 1.00000000 -0.00000000
vn 0.00000000 1.00000000 0.00000000
vn 0.25844621 0.00000000 0.96602565
vn 0.35872825 0.00000000 0.93344204
vn 0.05272139 0.00000000 0.99860926
vn -0.05272139 0.00000000 0.99860926
vn -0.00000000 -1.00000000 -0.00000000
vn -0.00000000 -1.00000000 -0.00000000
vn -0.00000000 -1.00000000 -0.00000000
vn -0.00000000 1.00000000 -0.00000000
vn -0.00000000 1.00000000 0.00000000
vn -0.00000000 1.00000000 -0.00000000
vn -0.05272139 0.00000000 0.99860926
vn 0.05272139 0.00000000 0.99860926
vn -0.25844621 0.00000000 0.96602565
vn -0.35872825 0.00000000 0.93344204
vn -0.00000000 -1.00000000 -0.00000000
vn -0.00000000 -1.00000000 -0.00000000
vn -0.00000000 -1.00000000 -0.00000000
vn 0.00000000 1.00000000 0.00000000
vn 0.00000000 1.00000000 0.00000000
vn -0.00000000 1.00000000 0.00000000
vn -0.35872825 0.00000000 0.93344204
vn -0.25844621 0.00000000 0.96602565
vn -0.54431530 0.00000000 0.83888072
vn -0.62962030 0.00000000 0.77690301
vn -0.00000000 -1.00000000 -0.00000000
vn -0.00000000 -1.00000000 -0.00000000
vn -0.00000000 -1.00000000 0.00000000
vn 0.00000000 1.00000000 0.00000000
vn 0.00000000 1.00000000 0.00000000
vn 0.00000000 1.00000000 0.00000000
vn -0.62962030 0.00000000 0.77690301
vn -0.54431530 0.00000000 0.83888072
vn -0.77690301 0.00000000 0.62962030
vn -0.83888072 0.00000000 0.54431530
vn -0.00000000 -1.00000000 -0.00000000
vn -0.00000000 -1.00000000 0.00000000
vn -0.00000000 -1.00000000 0.00000000
vn 0.00000000 1.00000000 0.00000000
vn 0.00000000 1.00000000 0.00000000
vn 0.00000000 1.00000000 0.00000000
vn -0.83888072 0.00000000 0.54431530
vn -0.77690301 0.00000000 0.62962030
vn -0.93344204 0.00000000 0.35872825
vn -0.96602565 0.00000000 0.25844621
vn -0.00000000 -1.00000000 -0.00000000
vn -0.00000000 -1.00000000 0.00000000
vn -0.00000000 -1.00000000 -0.00000000
vn 0.00000000 1.00000000 -0.00000000
vn 0.00000000 1.00000000 -0.00000000
vn 0.00000000 1.00000000 0.00000000
vn -0.96602565 0.00000000 0.25844621
vn -0.93344204 0.00000000 0.35872825
vn -0.99860926 0.00000000 0.05272139
vn -0.99860926 0.00000000 -0.05272139
vn -0.00000000 -1.00000000 -0.00000000
vn -0.00000000 -1.00000000 -0.00000000
vn -0.00000000 -1.00000000 -0.00000000
vn 0.00000000 1.00000000 0.00000000
vn 0.00000000 1.00000000 -0.00000000
vn 0.00000000 1.00000000 -0.00000000
vn -0.99860926 0.00000000 -0.05272139
vn -0.99860926 0.00000000 0.05272139
vn -0.96602565 0.00000000 -0.25844621
vn -0.93344204 0.00000000 -0.35872825
vn -0.00000000 -1.00000000 -0.00000000
vn -0.00000000 -1.00000000 -0.00000000
vn -0.00000000 -1.00000000 0.00000000
vn 0.00000000 1.00000000 -0.00000000
vn 0.00000000 1.00000000 -0.00000000
vn 0.00000000 1.00000000 -0.00000000
vn -0.93344204 0.00000000 -0.35872825
vn -0.96602565 0.00000000 -0.25844621
vn -0.83888072 0.00000000 -0.54431530
vn -0.77690301 -0.00000000 -0.62962030
vn -0.00000000 -1.00000000 -0.00000000
vn -0.00000000 -1.00000000 0.00000000
vn -0.00000000 -1.00000000 -0.00000000
vn 0.00000000 1.00000000 -0.00000000
vn 0.00000000 1.00000000 -0.00000000
vn 0.00000000 1.00000000 -0.00000000
vn -0.77690301 -0.00000000 -0.62962030
vn -0.83888072 0.00000000 -0.54431530
vn -0.62962030 -0.00000000 -0.77690301
vn -0.54431530 -0.00000000 -0.83888072
vn -0.00000000 -1.00000000 -0.00000000
vn -0.00000000 -1.00000000 -0.00000000
vn -0.00000000 -1.00000000 -0.00000000
vn 0.00000000 1.00000000 -0.00000000
vn -0.00000000 1.00000000 -0.00000000
vn 0.00000000 1.00000000 -0.00000000
vn -0.54431530 -0.00000000 -0.83888072
vn -0.62962030 -0.00000000 -0.77690301
vn -0.35872825 -0.00000000 -0.93344204
vn -0.25844621 -0.00000000 -0.96602565
vn -0.00000000 -1.00000000 -0.00000000
vn -0.00000000 -1.00000000 -0.00000000
vn -0.00000000 -1.00000000 0.00000000
vn -0.00000000 1.00000000 -0.00000000
vn -0.00000000 1.00000000 -0.00000000
vn -0.00000000 1.00000000 -0.00000000
vn -0.00000000 -1.00000000 -0.00000000
vn -0.00000000 -1.00000000 0.00000000
vn -0.00000000 -1.00000000 -0.00000000

g Sdkfz251_SprocketWheel_Collider
f 40/1/1 1/2/2 38/3/3 39/4/4
f 1/5/5 40/6/6 3/7/7 2/8/8
f 41/9/9 3/10/10 40/11/11
f 42/12/12 1/13/13 2/14/14
f 41/15/15 5/16/16 3/17/17
f 2/18/18 3/19/19 5/20/20 4/21/21
f 42/22/22 2/23/23 4/24/24
f 41/25/25 7/26/26 5/27/27
f 4/28/28 5/29/29 7/30/30 6/31/31
f 42/32/32 4/33/33 6/34/34
f 41/35/35 9/36/36 7/37/37
f 6/38/38 7/39/39 9/40/40 8/41/41
f 42/42/42 6/43/43 8/44/44
f 41/45/45 11/46/46 9/47/47
f 8/48/48 9/49/49 11/50/50 10/51/51
f 42/52/52 8/53/53 10/54/54
f 41/55/55 13/56/56 11/57/57
f 10/58/58 11/59/59 13/60/60 12/61/61
f 42/62/62 10/63/63 12/64/64
f 41/65/65 15/66/66 13/67/67
f 12/68/68 13/69/69 15/70/70 14/71/71
f 42/72/72 12/73/73 14/74/74
f 41/75/75 17/76/76 15/77/77
f 14/78/78 15/79/79 17/80/80 16/81/81
f 42/82/82 14/83/83 16/84/84
f 41/85/85 19/86/86 17/87/87
f 16/88/88 17/89/89 19/90/90 18/91/91
f 42/92/92 16/93/93 18/94/94
f 41/95/95 21/96/96 19/97/97
f 18/98/98 19/99/99 21/100/100 20/101/101
f 42/102/102 18/103/103 20/104/104
f 41/105/105 23/106/106 21/107/107
f 20/108/108 21/109/109 23/110/110 22/111/111
f 42/112/112 20/113/113 22/114/114
f 41/115/115 25/116/116 23/117/117
f 22/118/118 23/119/119 25/120/120 24/121/121
f 42/122/122 22/123/123 24/124/124
f 41/125/125 27/126/126 25/127/127
f 24/128/128 25/129/129 27/130/130 26/131/131
f 42/132/132 24/133/133 26/134/134
f 41/135/135 29/136/136 27/137/137
f 26/138/138 27/139/139 29/140/140 28/141/141
f 42/142/142 26/143/143 28/144/144
f 41/145/145 31/146/146 29/147/147
f 28/148/148 29/149/149 31/150/150 30/151/151
f 42/152/152 28/153/153 30/154/154
f 41/155/155 33/156/156 31/157/157
f 30/158/158 31/159/159 33/160/160 32/161/161
f 42/162/162 30/163/163 32/164/164
f 41/165/165 35/166/166 33/167/167
f 32/168/168 33/169/169 35/170/170 34/171/171
f 42/172/172 32/173/173 34/174/174
f 41/175/175 37/176/176 35/177/177
f 34/178/178 35/179/179 37/180/180 36/181/181
f 42/182/182 34/183/183 36/184/184
f 41/185/185 39/186/186 37/187/187
f 36/188/188 37/189/189 39/190/190 38/191/191
f 42/192/192 36/193/193 38/194/194
f 41/195/195 40/196/196 39/197/197
f 42/198/198 38/199/199 1/200/200

