# RokuSuper Output Ver6.0 for Wavefront Obj

v -0.60000001 0.03000000 0.03000000
v 0.60000001 0.03000000 0.03000000
v 0.60000001 -0.03000000 0.03000000
v -0.60000001 -0.03000000 0.03000000
v -0.16000000 0.03000000 -1.00000001
v 0.16000000 0.03000000 -1.00000001
v 0.16000000 -0.03000000 -1.00000001
v -0.16000000 -0.03000000 -1.00000001

vt 0.00000000 0.91590651
vt 1.00000000 0.91590651
vt 1.00000000 0.91590651
vt 0.00000000 0.91590651
vt 0.39887112 0.08409349
vt 0.00000000 0.91590651
vt 0.00000000 0.91590651
vt 0.39887112 0.08409349
vt 0.60112888 0.08409349
vt 0.39887112 0.08409349
vt 0.00000000 0.91590651
vt 1.00000000 0.91590651
vt 0.60112888 0.08409349
vt 0.60112888 0.08409349
vt 1.00000000 0.91590651
vt 1.00000000 0.91590651
vt 0.39887112 0.08409349
vt 0.60112888 0.08409349
vt 1.00000000 0.91590651
vt 0.00000000 0.91590651
vt 0.60112888 0.08409349
vt 0.60112888 0.08409349
vt 0.39887112 0.08409349
vt 0.39887112 0.08409349

vn 0.00000000 -0.00000000 1.00000000
vn 0.00000000 -0.00000000 1.00000000
vn 0.00000000 -0.00000000 1.00000000
vn 0.00000000 -0.00000000 1.00000000
vn 0.91960620 0.00000000 -0.39284148
vn 0.91960620 0.00000000 -0.39284148
vn 0.91960620 0.00000000 -0.39284148
vn 0.91960620 0.00000000 -0.39284148
vn 0.00000000 -1.00000000 0.00000000
vn 0.00000000 -1.00000000 0.00000000
vn 0.00000000 -1.00000000 0.00000000
vn 0.00000000 -1.00000000 0.00000000
vn -0.91960620 0.00000000 -0.39284148
vn -0.91960620 0.00000000 -0.39284148
vn -0.91960620 0.00000000 -0.39284148
vn -0.91960620 0.00000000 -0.39284148
vn 0.00000000 1.00000000 -0.00000000
vn 0.00000000 1.00000000 -0.00000000
vn 0.00000000 1.00000000 -0.00000000
vn 0.00000000 1.00000000 -0.00000000
vn 0.00000000 0.00000000 -1.00000000
vn 0.00000000 0.00000000 -1.00000000
vn 0.00000000 0.00000000 -1.00000000
vn 0.00000000 0.00000000 -1.00000000

g Sdkfz251_Shaft_Collider
f 2/1/1 1/2/2 4/3/3 3/4/4
f 6/5/5 2/6/6 3/7/7 7/8/8
f 8/9/9 7/10/10 3/11/11 4/12/12
f 5/13/13 8/14/14 4/15/15 1/16/16
f 6/17/17 5/18/18 1/19/19 2/20/20
f 8/21/21 5/22/22 6/23/23 7/24/24

