# RokuSuper Output Ver6.0 for Wavefront Obj

v 0.07500000 0.06647458 -0.40465753
v 0.07500000 0.34337158 -0.33046320
v 0.07500000 0.35113615 -0.35944098
v 0.07500000 0.07423915 -0.43363530
v -0.07500000 0.06647458 -0.40465753
v -0.07500000 0.34337158 -0.33046320
v -0.07500000 0.35113615 -0.35944098
v -0.07500000 0.07423915 -0.43363530
v -0.07500000 -0.02241439 -0.45953354
v -0.07500000 0.07417820 -0.43365164
v -0.07500000 0.02241439 -0.24046647
v -0.07500000 -0.07417820 -0.26634837
v 0.07500000 -0.02241439 -0.45953354
v 0.07500000 0.07417820 -0.43365164
v 0.07500000 0.02241439 -0.24046647
v 0.07500000 -0.07417820 -0.26634837
v -0.07500000 0.03014494 -0.26945336
v -0.07500000 0.30704194 -0.19525903
v -0.07500000 0.29927737 -0.16628126
v -0.07500000 0.02238037 -0.24047558
v 0.07500000 0.03014494 -0.26945336
v 0.07500000 0.30704194 -0.19525903
v 0.07500000 0.29927737 -0.16628126
v 0.07500000 0.02238037 -0.24047558
v -0.11000000 -0.02500000 -0.19000000
v -0.11000000 0.02500000 -0.19000000
v -0.11000000 -0.02500000 0.02500000
v -0.11000000 0.02500000 0.02500000
v -0.09000000 -0.02500000 -0.30000000
v -0.09000000 0.02500000 -0.30000000
v -0.07500000 0.02500000 0.02500000
v -0.07500000 -0.02500000 0.02500000
v -0.07500000 -0.02500000 -0.30000000
v -0.07500000 0.02500000 -0.30000000
v -0.09000000 0.02500000 -0.19000000
v -0.09000000 -0.02500000 -0.19000000
v -0.11000000 0.02500000 -0.02500000
v -0.11000000 -0.02500000 -0.02500000
v -0.07500000 -0.02500000 -0.02500000
v -0.07500000 0.02500000 -0.02500000
v 0.11000000 0.02500000 -0.19000000
v 0.11000000 -0.02500000 -0.19000000
v 0.11000000 -0.02500000 0.02500000
v 0.11000000 0.02500000 0.02500000
v 0.07500000 -0.02500000 -0.30000000
v 0.07500000 0.02500000 -0.30000000
v 0.09000000 -0.02500000 -0.30000000
v 0.09000000 0.02500000 -0.30000000
v 0.07500000 0.02500000 0.02500000
v 0.07500000 -0.02500000 0.02500000
v 0.09000000 -0.02500000 -0.19000000
v 0.09000000 0.02500000 -0.19000000
v 0.11000000 0.02500000 -0.02500000
v 0.11000000 -0.02500000 -0.02500000
v 0.07500000 -0.02500000 -0.02500000
v 0.07500000 0.02500000 -0.02500000

vt 0.47427398 0.67383820
vt 0.46388334 0.63505979
vt 0.45982511 0.63614719
vt 0.47021575 0.67492560
vt 0.55772229 0.62950113
vt 0.55772229 0.66730369
vt 0.53794175 0.66730369
vt 0.53794175 0.62950113
vt 0.55772229 0.66730369
vt 0.55772229 0.62950113
vt 0.53794175 0.62950113
vt 0.53794175 0.66730369
vt 0.45982511 0.63614719
vt 0.46388334 0.63505979
vt 0.47427398 0.67383820
vt 0.47021575 0.67492560
vt 0.48687769 0.62888932
vt 0.45982282 0.63613865
vt 0.45619815 0.62261121
vt 0.48325303 0.61536188
vt 0.53794175 0.61630579
vt 0.53794175 0.62949281
vt 0.55772229 0.62949281
vt 0.55772229 0.61630579
vt 0.57344770 0.64422247
vt 0.57344770 0.61903756
vt 0.59233638 0.61903756
vt 0.59233638 0.64422247
vt 0.53794175 0.62949281
vt 0.53794175 0.61630579
vt 0.55772229 0.61630579
vt 0.55772229 0.62949281
vt 0.57344770 0.64422247
vt 0.59233638 0.64422247
vt 0.59233638 0.61903756
vt 0.57344770 0.61903756
vt 0.45619815 0.62261121
vt 0.45982282 0.63613865
vt 0.48687769 0.62888932
vt 0.48325303 0.61536188
vt 0.49726706 0.66766296
vt 0.49320883 0.66875036
vt 0.48281818 0.62997196
vt 0.48687642 0.62888456
vt 0.53794175 0.62948816
vt 0.53794175 0.66729072
vt 0.55772229 0.66729072
vt 0.55772229 0.62948816
vt 0.53794175 0.66729072
vt 0.53794175 0.62948816
vt 0.55772229 0.62948816
vt 0.55772229 0.66729072
vt 0.48281818 0.62997196
vt 0.49320883 0.66875036
vt 0.49726706 0.66766296
vt 0.48687642 0.62888456
vt 0.47854024 0.62925143
vt 0.47854024 0.62224911
vt 0.47854024 0.62224911
vt 0.47854024 0.62925143
vt 0.47854024 0.62925143
vt 0.47854024 0.62925143
vt 0.49394534 0.62925143
vt 0.51705298 0.62925143
vt 0.49394534 0.62224911
vt 0.47854024 0.62224911
vt 0.47854024 0.62224911
vt 0.51705298 0.62224911
vt 0.47854024 0.62224911
vt 0.49394534 0.62224911
vt 0.49394534 0.62925143
vt 0.47854024 0.62925143
vt 0.49394534 0.62224911
vt 0.49394534 0.62925143
vt 0.49394534 0.62925143
vt 0.49394534 0.62224911
vt 0.52405530 0.62925143
vt 0.52405530 0.62925143
vt 0.52405530 0.62224911
vt 0.52405530 0.62224911
vt 0.51705298 0.62925143
vt 0.49394534 0.62925143
vt 0.49394534 0.62925143
vt 0.51705298 0.62925143
vt 0.52405530 0.62925143
vt 0.51705298 0.62925143
vt 0.51705298 0.62925143
vt 0.52405530 0.62925143
vt 0.51705298 0.62224911
vt 0.49394534 0.62224911
vt 0.49394534 0.62224911
vt 0.51705298 0.62224911
vt 0.51705298 0.62224911
vt 0.51705298 0.62224911
vt 0.52405530 0.62224911
vt 0.52405530 0.62224911
vt 0.51705298 0.62224911
vt 0.51705298 0.62925143
vt 0.52405530 0.62925143
vt 0.52405530 0.62224911
vt 0.51705298 0.62925143
vt 0.51705298 0.62224911
vt 0.47854024 0.62224911
vt 0.47854024 0.62925143
vt 0.51705298 0.62925143
vt 0.49394534 0.62925143
vt 0.49394534 0.62224911
vt 0.51705298 0.62224911
vt 0.51705298 0.62925143
vt 0.51705298 0.62224911
vt 0.52405530 0.62224911
vt 0.52405530 0.62925143
vt 0.47854024 0.62925143
vt 0.47854024 0.62224911
vt 0.47854024 0.62224911
vt 0.47854024 0.62925143
vt 0.49394534 0.62925143
vt 0.49394534 0.62224911
vt 0.47854024 0.62224911
vt 0.47854024 0.62925143
vt 0.49394534 0.62925143
vt 0.49394534 0.62224911
vt 0.49394534 0.62224911
vt 0.49394534 0.62925143
vt 0.52405530 0.62224911
vt 0.52405530 0.62925143
vt 0.52405530 0.62925143
vt 0.52405530 0.62224911
vt 0.51705298 0.62925143
vt 0.49394534 0.62925143
vt 0.49394534 0.62925143
vt 0.51705298 0.62925143
vt 0.51705298 0.62925143
vt 0.51705298 0.62925143
vt 0.52405530 0.62925143
vt 0.52405530 0.62925143
vt 0.51705298 0.62224911
vt 0.49394534 0.62224911
vt 0.49394534 0.62224911
vt 0.51705298 0.62224911
vt 0.52405530 0.62224911
vt 0.51705298 0.62224911
vt 0.51705298 0.62224911
vt 0.52405530 0.62224911
vt 0.51705298 0.62925143
vt 0.47854024 0.62925143
vt 0.47854024 0.62224911
vt 0.51705298 0.62224911
vt 0.52405530 0.62925143
vt 0.51705298 0.62925143
vt 0.51705298 0.62224911
vt 0.52405530 0.62224911
vt 0.47854024 0.62224911
vt 0.49394534 0.62224911
vt 0.51705298 0.62224911
vt 0.47854024 0.62224911
vt 0.47854024 0.62925143
vt 0.47854024 0.62925143
vt 0.51705298 0.62925143
vt 0.49394534 0.62925143
vt 0.51705298 0.62224911
vt 0.49394534 0.62224911
vt 0.49394534 0.62925143
vt 0.51705298 0.62925143
vt 0.51705298 0.62224911
vt 0.51705298 0.62925143
vt 0.52405530 0.62925143
vt 0.52405530 0.62224911

vn 1.00000000 0.00000000 0.00000000
vn 1.00000000 0.00000000 0.00000000
vn 1.00000000 0.00000000 0.00000000
vn 1.00000000 0.00000000 0.00000000
vn -0.00000000 0.25881905 -0.96592583
vn -0.00000000 0.25881905 -0.96592583
vn -0.00000000 0.25881905 -0.96592583
vn 0.00000000 0.25881905 -0.96592583
vn -0.00000000 -0.25881905 0.96592583
vn -0.00000000 -0.25881905 0.96592583
vn -0.00000000 -0.25881905 0.96592583
vn -0.00000000 -0.25881905 0.96592583
vn -1.00000000 -0.00000000 -0.00000000
vn -1.00000000 -0.00000000 -0.00000000
vn -1.00000000 -0.00000000 -0.00000000
vn -1.00000000 -0.00000000 -0.00000000
vn -1.00000000 -0.00000000 -0.00000000
vn -1.00000000 -0.00000000 -0.00000000
vn -1.00000000 -0.00000000 -0.00000000
vn -1.00000000 -0.00000000 -0.00000000
vn -0.00000000 -0.25881905 0.96592583
vn -0.00000000 -0.25881905 0.96592583
vn -0.00000000 -0.25881905 0.96592583
vn -0.00000000 -0.25881905 0.96592583
vn 0.00000000 -0.96592583 -0.25881905
vn 0.00000000 -0.96592583 -0.25881905
vn 0.00000000 -0.96592583 -0.25881905
vn 0.00000000 -0.96592583 -0.25881905
vn -0.00000000 0.25881905 -0.96592583
vn -0.00000000 0.25881905 -0.96592583
vn -0.00000000 0.25881905 -0.96592583
vn 0.00000000 0.25881905 -0.96592583
vn -0.00000000 0.96592583 0.25881905
vn -0.00000000 0.96592583 0.25881905
vn -0.00000000 0.96592583 0.25881905
vn -0.00000000 0.96592583 0.25881905
vn 1.00000000 0.00000000 0.00000000
vn 1.00000000 0.00000000 0.00000000
vn 1.00000000 0.00000000 0.00000000
vn 1.00000000 0.00000000 0.00000000
vn -1.00000000 -0.00000000 -0.00000000
vn -1.00000000 -0.00000000 -0.00000000
vn -1.00000000 -0.00000000 -0.00000000
vn -1.00000000 -0.00000000 -0.00000000
vn -0.00000000 -0.25881905 0.96592583
vn -0.00000000 -0.25881905 0.96592583
vn -0.00000000 -0.25881905 0.96592583
vn -0.00000000 -0.25881905 0.96592583
vn 0.00000000 0.25881905 -0.96592583
vn 0.00000000 0.25881905 -0.96592583
vn 0.00000000 0.25881905 -0.96592583
vn 0.00000000 0.25881905 -0.96592583
vn 1.00000000 0.00000000 0.00000000
vn 1.00000000 0.00000000 0.00000000
vn 1.00000000 0.00000000 0.00000000
vn 1.00000000 0.00000000 0.00000000
vn -0.00000000 0.00000000 -1.00000000
vn -0.00000000 0.00000000 -1.00000000
vn -0.00000000 0.00000000 -1.00000000
vn -0.00000000 0.00000000 -1.00000000
vn -0.00000000 1.00000000 0.00000000
vn 0.00000000 1.00000000 0.00000000
vn -0.00000000 1.00000000 0.00000000
vn -0.00000000 1.00000000 0.00000000
vn -0.00000000 -1.00000000 0.00000000
vn -0.00000000 -1.00000000 0.00000000
vn -0.00000000 -1.00000000 0.00000000
vn -0.00000000 -1.00000000 -0.00000000
vn -1.00000000 -0.00000000 0.00000000
vn -1.00000000 -0.00000000 0.00000000
vn -1.00000000 -0.00000000 0.00000000
vn -1.00000000 -0.00000000 0.00000000
vn 0.00000000 0.00000000 -1.00000000
vn 0.00000000 0.00000000 -1.00000000
vn 0.00000000 0.00000000 -1.00000000
vn 0.00000000 0.00000000 -1.00000000
vn -0.00000000 -0.00000000 1.00000000
vn -0.00000000 -0.00000000 1.00000000
vn -0.00000000 -0.00000000 1.00000000
vn -0.00000000 -0.00000000 1.00000000
vn 0.00000000 1.00000000 -0.00000000
vn -0.00000000 1.00000000 -0.00000000
vn 0.00000000 1.00000000 -0.00000000
vn 0.00000000 1.00000000 -0.00000000
vn 0.00000000 1.00000000 0.00000000
vn 0.00000000 1.00000000 -0.00000000
vn 0.00000000 1.00000000 0.00000000
vn -0.00000000 1.00000000 0.00000000
vn -0.00000000 -1.00000000 -0.00000000
vn 0.00000000 -1.00000000 -0.00000000
vn -0.00000000 -1.00000000 -0.00000000
vn -0.00000000 -1.00000000 -0.00000000
vn -0.00000000 -1.00000000 -0.00000000
vn -0.00000000 -1.00000000 0.00000000
vn -0.00000000 -1.00000000 -0.00000000
vn 0.00000000 -1.00000000 -0.00000000
vn 1.00000000 0.00000000 0.00000000
vn 1.00000000 0.00000000 0.00000000
vn 1.00000000 0.00000000 0.00000000
vn 1.00000000 0.00000000 0.00000000
vn 1.00000000 0.00000000 -0.00000000
vn 1.00000000 0.00000000 -0.00000000
vn 1.00000000 0.00000000 -0.00000000
vn 1.00000000 0.00000000 -0.00000000
vn -1.00000000 -0.00000000 0.00000000
vn -1.00000000 0.00000000 0.00000000
vn -1.00000000 -0.00000000 0.00000000
vn -1.00000000 -0.00000000 0.00000000
vn -1.00000000 -0.00000000 -0.00000000
vn -1.00000000 -0.00000000 -0.00000000
vn -1.00000000 -0.00000000 -0.00000000
vn -1.00000000 -0.00000000 -0.00000000
vn -0.00000000 0.00000000 -1.00000000
vn -0.00000000 0.00000000 -1.00000000
vn -0.00000000 0.00000000 -1.00000000
vn 0.00000000 0.00000000 -1.00000000
vn 1.00000000 0.00000000 0.00000000
vn 1.00000000 -0.00000000 0.00000000
vn 1.00000000 0.00000000 0.00000000
vn 1.00000000 0.00000000 0.00000000
vn -0.00000000 0.00000000 -1.00000000
vn -0.00000000 0.00000000 -1.00000000
vn -0.00000000 0.00000000 -1.00000000
vn -0.00000000 0.00000000 -1.00000000
vn 0.00000000 -0.00000000 1.00000000
vn 0.00000000 -0.00000000 1.00000000
vn 0.00000000 -0.00000000 1.00000000
vn 0.00000000 -0.00000000 1.00000000
vn 0.00000000 1.00000000 -0.00000000
vn -0.00000000 1.00000000 -0.00000000
vn 0.00000000 1.00000000 -0.00000000
vn 0.00000000 1.00000000 -0.00000000
vn 0.00000000 1.00000000 -0.00000000
vn 0.00000000 1.00000000 0.00000000
vn 0.00000000 1.00000000 -0.00000000
vn -0.00000000 1.00000000 -0.00000000
vn -0.00000000 -1.00000000 0.00000000
vn 0.00000000 -1.00000000 0.00000000
vn -0.00000000 -1.00000000 0.00000000
vn -0.00000000 -1.00000000 0.00000000
vn -0.00000000 -1.00000000 0.00000000
vn -0.00000000 -1.00000000 -0.00000000
vn -0.00000000 -1.00000000 0.00000000
vn 0.00000000 -1.00000000 0.00000000
vn -1.00000000 0.00000000 -0.00000000
vn -1.00000000 -0.00000000 -0.00000000
vn -1.00000000 0.00000000 -0.00000000
vn -1.00000000 0.00000000 -0.00000000
vn -1.00000000 0.00000000 0.00000000
vn -1.00000000 0.00000000 0.00000000
vn -1.00000000 0.00000000 0.00000000
vn -1.00000000 -0.00000000 0.00000000
vn -0.00000000 -1.00000000 -0.00000000
vn -0.00000001 -1.00000000 -0.00000000
vn -0.00000000 -1.00000000 -0.00000000
vn -0.00000000 -1.00000000 -0.00000000
vn 0.00000001 1.00000000 0.00000000
vn -0.00000000 1.00000000 0.00000000
vn 0.00000001 1.00000000 0.00000000
vn 0.00000001 1.00000000 0.00000000
vn 1.00000000 -0.00000000 0.00000000
vn 1.00000000 0.00000000 0.00000000
vn 1.00000000 -0.00000000 0.00000000
vn 1.00000000 -0.00000000 0.00000000
vn 1.00000000 -0.00000000 -0.00000000
vn 1.00000000 -0.00000000 -0.00000000
vn 1.00000000 -0.00000000 -0.00000000
vn 1.00000000 0.00000000 -0.00000000

g Type89_1st_Sus
f 2/1/1 1/2/2 4/3/3 3/4/4
f 8/5/5 7/6/6 3/7/7 4/8/8
f 6/9/9 5/10/10 1/11/11 2/12/12
f 8/13/13 5/14/14 6/15/15 7/16/16
f 11/17/17 10/18/18 9/19/19 12/20/20
f 16/21/21 15/22/22 11/23/23 12/24/24
f 13/25/25 16/26/26 12/27/27 9/28/28
f 14/29/29 13/30/30 9/31/31 10/32/32
f 14/33/33 10/34/34 11/35/35 15/36/36
f 13/37/37 14/38/38 15/39/39 16/40/40
f 19/41/41 18/42/42 17/43/43 20/44/44
f 24/45/45 23/46/46 19/47/47 20/48/48
f 22/49/49 21/50/50 17/51/51 18/52/52
f 21/53/53 22/54/54 23/55/55 24/56/56
f 34/57/57 33/58/58 29/59/59 30/60/60
f 34/61/61 30/62/62 35/63/63 40/64/64
f 36/65/65 29/66/66 33/67/67 39/68/68
f 29/69/69 36/70/70 35/71/71 30/72/72
f 25/73/73 26/74/74 35/75/75 36/76/76
f 31/77/77 28/78/78 27/79/79 32/80/80
f 40/81/81 35/82/82 26/83/83 37/84/84
f 31/85/85 40/86/86 37/87/87 28/88/88
f 38/89/89 25/90/90 36/91/91 39/92/92
f 38/93/93 39/94/94 32/95/95 27/96/96
f 39/97/97 40/98/98 31/99/99 32/100/100
f 40/101/101 39/102/102 33/103/103 34/104/104
f 37/105/105 26/106/106 25/107/107 38/108/108
f 37/109/109 38/110/110 27/111/111 28/112/112
f 48/113/113 47/114/114 45/115/115 46/116/116
f 52/117/117 51/118/118 47/119/119 48/120/120
f 41/121/121 42/122/122 51/123/123 52/124/124
f 43/125/125 44/126/126 49/127/127 50/128/128
f 53/129/129 41/130/130 52/131/131 56/132/132
f 53/133/133 56/134/134 49/135/135 44/136/136
f 55/137/137 51/138/138 42/139/139 54/140/140
f 50/141/141 55/142/142 54/143/143 43/144/144
f 56/145/145 46/146/146 45/147/147 55/148/148
f 49/149/149 56/150/150 55/151/151 50/152/152
f 47/153/153 51/154/154 55/155/155 45/156/156
f 48/157/157 46/158/158 56/159/159 52/160/160
f 54/161/161 42/162/162 41/163/163 53/164/164
f 54/165/165 53/166/166 44/167/167 43/168/168

