# RokuSuper Output Ver6.0 for Wavefront Obj

v -0.02110005 1.63195832 0.68748193
v -0.02110005 1.63195832 1.27273486
v -0.00334843 1.64970994 0.68748193
v -0.00334843 1.64970994 1.27273486
v -0.00334843 1.67481453 0.68748193
v -0.00334843 1.67481453 1.27273486
v -0.02110005 1.69256615 0.68748193
v -0.02110005 1.69256615 1.27273486
v -0.11073995 1.69256615 0.68748193
v -0.11073995 1.69256615 1.27273486
v -0.12849157 1.67481453 0.68748193
v -0.12849157 1.67481453 1.27273486
v -0.12849157 1.64970994 0.68748193
v -0.12849157 1.64970994 1.27273486
v -0.11073995 1.63195832 0.68748193
v -0.11073995 1.63195832 1.27273486
v -0.11073995 1.69256615 1.12212002
v -0.02110005 1.69256615 1.12212002
v -0.02110005 1.69256615 0.90395001
v -0.02110005 1.69256615 0.79845001
v -0.11073995 1.69256615 0.90395001
v -0.11073995 1.69256615 0.79845001
v -0.12512939 1.70130109 1.12211784
v -0.12448785 1.70161308 1.22187031
v -0.12721096 1.70028880 0.79845017
v -0.12653249 1.70061875 0.90394829
v -0.00462904 1.70028880 0.79845017
v -0.00530751 1.70061875 0.90394829
v -0.00735215 1.70161308 1.22187031
v -0.00671061 1.70130109 1.12211784
v -0.02982633 1.72546727 1.22187060
v -0.10545815 1.72347860 0.90394657
v -0.04445733 1.70913151 1.12211566
v -0.02874556 1.72484328 1.12211566
v -0.10309445 1.72484328 1.12211566
v -0.08738268 1.70913151 1.12211566
v -0.04309264 1.70676781 0.90394657
v -0.02638186 1.72347860 0.90394657
v -0.08874736 1.70676781 0.90394657
v -0.06592000 1.70065124 0.90394657
v -0.04243275 1.70562484 0.79845033
v -0.02523888 1.72281870 0.79845033
v -0.10660112 1.72281870 0.79845033
v -0.08940726 1.70562484 0.79845033
v -0.06592000 1.69933145 0.79845033
v -0.06592000 1.70338061 1.12211566
v -0.04508131 1.71021228 1.22187060
v -0.10201367 1.72546727 1.22187060
v -0.08675869 1.71021228 1.22187060
v -0.06592000 1.70462857 1.22187060
v -0.00334843 1.67481453 0.90395001
v -0.12849157 1.67481453 1.12212002
v -0.00334843 1.67481453 1.12212002
v -0.12849157 1.67481453 0.90395001
v -0.12849157 1.67481453 1.22187002
v -0.12849157 1.67481453 0.79845001
v -0.11073995 1.69256615 1.22187002
v -0.02110005 1.69256615 1.22187002
v -0.00334843 1.67481453 1.22187002
v -0.00334843 1.67481453 0.79845001
v -0.06592000 1.69776893 0.68748001
v -0.06592000 1.69776893 1.12212002
v -0.11073995 1.69256615 1.12212002
v -0.02110005 1.69256615 1.12212002
v -0.11073995 1.69256615 0.68748001
v -0.02110005 1.69256615 0.68748001
v -0.11073995 1.70842064 1.12212002
v -0.02110005 1.70842064 1.12212002
v -0.02110005 1.70842064 0.68748001
v -0.11073995 1.70842064 0.68748001
v 0.16000000 1.82629576 0.69054714
v -0.16000000 1.82629576 0.69054714
v 0.16000000 1.60969061 0.69055001
v -0.16000000 1.60969061 0.69055001
v 0.16000000 1.82629576 0.61389001
v -0.16000000 1.60969061 0.61388647
v 0.16000000 1.60969061 0.61388647
v -0.16000000 1.82629576 0.61389001

vt 0.19263428 0.66968303
vt 0.25064358 0.66968303
vt 0.24241493 0.67791168
vt 0.20086293 0.67791168
vt 0.25064358 0.65804596
vt 0.19263428 0.65804596
vt 0.20086293 0.64981731
vt 0.24241493 0.64981731
vt 0.19263428 0.65804596
vt 0.25064358 0.65804596
vt 0.25064358 0.66968303
vt 0.19263428 0.66968303
vt 0.01383279 0.64878381
vt 0.01383279 0.64878381
vt 0.16707198 0.64878381
vt 0.16707198 0.64878381
vt 0.01383279 0.65343179
vt 0.01383279 0.64878381
vt 0.16707198 0.64878381
vt 0.16707198 0.65343179
vt 0.01383279 0.66000503
vt 0.01383279 0.65343179
vt 0.16707198 0.65343179
vt 0.16707198 0.66000503
vt 0.01383279 0.66465301
vt 0.01383279 0.66000503
vt 0.16707198 0.66000503
vt 0.16707198 0.66465301
vt 0.01383279 0.66465301
vt 0.01383279 0.66465301
vt 0.16707198 0.66465301
vt 0.16707198 0.66465301
vt 0.01383279 0.66000503
vt 0.01383279 0.66465301
vt 0.16707198 0.66465301
vt 0.16707198 0.66000503
vt 0.01383279 0.65343179
vt 0.01383279 0.66000503
vt 0.16707198 0.66000503
vt 0.16707198 0.65343179
vt 0.01383279 0.64878381
vt 0.01383279 0.65343179
vt 0.16707198 0.65343179
vt 0.16707198 0.64878381
vt 0.13801675 0.66465301
vt 0.13801675 0.66000503
vt 0.13801671 0.66667506
vt 0.13801675 0.66000503
vt 0.13801675 0.66465301
vt 0.13801671 0.66667506
vt 0.13801671 0.66667506
vt 0.13801675 0.66465301
vt 0.13801666 0.67257416
vt 0.13801666 0.67257416
vt 0.13801675 0.66465301
vt 0.13801666 0.66807222
vt 0.13801666 0.66807222
vt 0.13801675 0.66465301
vt 0.13801666 0.66642440
vt 0.13801666 0.66642440
vt 0.13801675 0.66465301
vt 0.13801675 0.66465301
vt 0.13801666 0.66642440
vt 0.13801675 0.66465301
vt 0.13801666 0.66807222
vt 0.13801666 0.66807222
vt 0.13801675 0.66465301
vt 0.13801666 0.67257416
vt 0.13801666 0.67257416
vt 0.13801675 0.66465301
vt 0.13801671 0.66667506
vt 0.11039325 0.66000503
vt 0.11039325 0.66465301
vt 0.11039370 0.66676145
vt 0.11039325 0.66465301
vt 0.11039325 0.66000503
vt 0.11039370 0.66676145
vt 0.11039325 0.66465301
vt 0.11039370 0.66676145
vt 0.11039415 0.67274694
vt 0.11039325 0.66465301
vt 0.11039415 0.67274694
vt 0.11039415 0.66837149
vt 0.11039325 0.66465301
vt 0.11039415 0.66837149
vt 0.11039415 0.66676996
vt 0.11039325 0.66465301
vt 0.11039415 0.66676996
vt 0.11039325 0.66465301
vt 0.11039370 0.66676145
vt 0.11039325 0.66465301
vt 0.11039415 0.67274694
vt 0.11039415 0.67274694
vt 0.11039325 0.66465301
vt 0.11039415 0.66837149
vt 0.11039415 0.66837149
vt 0.11039325 0.66465301
vt 0.11039415 0.66676996
vt 0.05326889 0.66000503
vt 0.05326889 0.66465301
vt 0.05326946 0.66694012
vt 0.05326889 0.66465301
vt 0.05326889 0.66000503
vt 0.05326946 0.66694012
vt 0.05326946 0.66694012
vt 0.05326889 0.66465301
vt 0.05327003 0.67310426
vt 0.05327003 0.67310426
vt 0.05326889 0.66465301
vt 0.05327003 0.66899039
vt 0.05327003 0.66899039
vt 0.05326889 0.66465301
vt 0.05327003 0.66748460
vt 0.05327003 0.66748460
vt 0.05326889 0.66465301
vt 0.05326889 0.66465301
vt 0.05327003 0.66748460
vt 0.05326889 0.66465301
vt 0.05327003 0.66899039
vt 0.05327003 0.66899039
vt 0.05326889 0.66465301
vt 0.05327003 0.67310426
vt 0.05327003 0.67310426
vt 0.05326889 0.66465301
vt 0.05326946 0.66694012
vt 0.02715094 0.66465301
vt 0.02715078 0.67326764
vt 0.02715086 0.66702181
vt 0.02715086 0.66702181
vt 0.02715094 0.66000503
vt 0.02715094 0.66465301
vt 0.02715094 0.66465301
vt 0.02715086 0.66702181
vt 0.02715078 0.67326764
vt 0.02715086 0.66702181
vt 0.02715094 0.66465301
vt 0.02715094 0.66000503
vt 0.02715094 0.66465301
vt 0.02715078 0.67326764
vt 0.02715078 0.66927337
vt 0.02715078 0.67326764
vt 0.02715094 0.66465301
vt 0.02715078 0.66927337
vt 0.02715078 0.66927337
vt 0.02715094 0.66465301
vt 0.02715078 0.66781136
vt 0.02715078 0.66781136
vt 0.02715094 0.66465301
vt 0.02715094 0.66465301
vt 0.02715078 0.66781136
vt 0.02715094 0.66465301
vt 0.02715078 0.66927337
vt 0.02715086 0.66702181
vt 0.05326946 0.66694012
vt 0.05326889 0.66000503
vt 0.02715094 0.66000503
vt 0.05327003 0.67310426
vt 0.05326946 0.66694012
vt 0.02715086 0.66702181
vt 0.02715078 0.67326764
vt 0.11039370 0.66676145
vt 0.13801671 0.66667506
vt 0.13801675 0.66000503
vt 0.11039325 0.66000503
vt 0.13801666 0.67257416
vt 0.13801671 0.66667506
vt 0.11039370 0.66676145
vt 0.11039415 0.67274694
vt 0.13801671 0.66667506
vt 0.11039370 0.66676145
vt 0.11039325 0.66000503
vt 0.13801675 0.66000503
vt 0.11039370 0.66676145
vt 0.13801671 0.66667506
vt 0.13801666 0.67257416
vt 0.11039415 0.67274694
vt 0.02715094 0.66000503
vt 0.05326889 0.66000503
vt 0.05326946 0.66694012
vt 0.02715086 0.66702181
vt 0.02715078 0.67326764
vt 0.02715086 0.66702181
vt 0.05326946 0.66694012
vt 0.05327003 0.67310426
vt 0.11039415 0.66676996
vt 0.13801666 0.66642440
vt 0.13801666 0.66807222
vt 0.11039415 0.66837149
vt 0.11039415 0.66837149
vt 0.13801666 0.66807222
vt 0.13801666 0.67257416
vt 0.11039415 0.67274694
vt 0.11039415 0.67274694
vt 0.13801666 0.67257416
vt 0.13801666 0.66807222
vt 0.11039415 0.66837149
vt 0.11039415 0.66837149
vt 0.13801666 0.66807222
vt 0.13801666 0.66642440
vt 0.11039415 0.66676996
vt 0.05327003 0.66748460
vt 0.05327003 0.66899039
vt 0.02715078 0.66927337
vt 0.02715078 0.66781136
vt 0.05327003 0.66899039
vt 0.05327003 0.67310426
vt 0.02715078 0.67326764
vt 0.02715078 0.66927337
vt 0.05327003 0.67310426
vt 0.05327003 0.66899039
vt 0.02715078 0.66927337
vt 0.02715078 0.67326764
vt 0.05327003 0.66899039
vt 0.05327003 0.66748460
vt 0.02715078 0.66781136
vt 0.02715078 0.66927337
vt 0.05326889 0.66880426
vt 0.16707248 0.66880426
vt 0.16707248 0.66601527
vt 0.05326889 0.66601527
vt 0.05326889 0.66601527
vt 0.16707248 0.66601527
vt 0.16707248 0.66880426
vt 0.05326889 0.66880426
vt 0.16707248 0.66880426
vt 0.16707248 0.66465301
vt 0.05326889 0.66465301
vt 0.05326889 0.66880426
vt 0.05326889 0.66465301
vt 0.16707248 0.66465301
vt 0.16707248 0.66880426
vt 0.05326889 0.66880426
vt 0.36121995 0.69138741
vt 0.36121995 0.75323106
vt 0.26985571 0.75323106
vt 0.26985571 0.69138741
vt 0.26985571 0.75323106
vt 0.26985571 0.75323106
vt 0.36121995 0.75323106
vt 0.36121995 0.75323106
vt 0.36121995 0.75323106
vt 0.36121995 0.69138741
vt 0.36121995 0.69138741
vt 0.36121995 0.75323106
vt 0.26985571 0.69138741
vt 0.26985571 0.75323106
vt 0.26985571 0.75323106
vt 0.26985571 0.69138741
vt 0.36121995 0.69138741
vt 0.36121995 0.69138741
vt 0.26985571 0.69138741
vt 0.26985571 0.69138741

vn 0.00000000 -0.00000000 1.00000000
vn 0.00000000 -0.00000000 1.00000000
vn 0.00000000 -0.00000000 1.00000000
vn 0.00000000 -0.00000000 1.00000000
vn 0.00000000 -0.00000000 1.00000000
vn 0.00000000 -0.00000000 1.00000000
vn 0.00000000 -0.00000000 1.00000000
vn 0.00000000 -0.00000000 1.00000000
vn 0.00000000 -0.00000000 1.00000000
vn 0.00000000 -0.00000000 1.00000000
vn 0.00000000 -0.00000000 1.00000000
vn 0.00000000 -0.00000000 1.00000000
vn 0.25272473 -0.96753822 -0.00000000
vn -0.50544947 -0.86285621 -0.00000000
vn -0.25272473 -0.96753822 -0.00000000
vn 0.50544947 -0.86285621 -0.00000000
vn 0.86285621 -0.50544947 0.00000000
vn 0.25272473 -0.96753822 -0.00000000
vn 0.50544947 -0.86285621 -0.00000000
vn 0.96753822 -0.25272473 0.00000000
vn 0.96753822 0.25272473 0.00000000
vn 0.86285621 -0.50544947 0.00000000
vn 0.96753822 -0.25272473 0.00000000
vn 0.86285621 0.50544947 0.00000000
vn 0.50544947 0.86285621 0.00000000
vn 0.96753822 0.25272473 0.00000000
vn 0.86285621 0.50544947 0.00000000
vn 0.25272473 0.96753822 0.00000000
vn -0.25272473 0.96753822 0.00000000
vn 0.50544947 0.86285621 0.00000000
vn 0.25272473 0.96753822 0.00000000
vn -0.50544947 0.86285621 0.00000000
vn -0.86285621 0.50544947 0.00000000
vn -0.25272473 0.96753822 0.00000000
vn -0.50544947 0.86285621 0.00000000
vn -0.96753822 0.25272473 0.00000000
vn -0.96753822 -0.25272473 -0.00000000
vn -0.86285621 0.50544947 0.00000000
vn -0.96753822 0.25272473 0.00000000
vn -0.86285621 -0.50544947 -0.00000000
vn -0.50544947 -0.86285621 -0.00000000
vn -0.96753822 -0.25272473 -0.00000000
vn -0.86285621 -0.50544947 -0.00000000
vn -0.25272473 -0.96753822 -0.00000000
vn 0.00000056 0.00001834 -1.00000000
vn -0.00000663 0.00000663 -1.00000000
vn -0.00000556 0.00000893 -1.00000000
vn 0.00000663 0.00000663 -1.00000000
vn -0.00000056 0.00001834 -1.00000000
vn 0.00000556 0.00000893 -1.00000000
vn 0.00000556 0.00000893 -1.00000000
vn -0.00000056 0.00001834 -1.00000000
vn -0.00000243 0.00001028 -1.00000000
vn -0.00000243 0.00001028 -1.00000000
vn -0.00000056 0.00001834 -1.00000000
vn -0.00000696 0.00001321 -1.00000000
vn -0.00000696 0.00001321 -1.00000000
vn -0.00000056 0.00001834 -1.00000000
vn -0.00000000 0.00002721 -1.00000000
vn -0.00000000 0.00002721 -1.00000000
vn -0.00000056 0.00001834 -1.00000000
vn 0.00000056 0.00001834 -1.00000000
vn -0.00000000 0.00002721 -1.00000000
vn 0.00000056 0.00001834 -1.00000000
vn 0.00000696 0.00001321 -1.00000000
vn 0.00000696 0.00001321 -1.00000000
vn 0.00000056 0.00001834 -1.00000000
vn 0.00000243 0.00001028 -1.00000000
vn 0.00000243 0.00001028 -1.00000000
vn 0.00000056 0.00001834 -1.00000000
vn -0.00000556 0.00000893 -1.00000000
vn -0.00007222 0.00007222 0.99999999
vn 0.00000416 0.00017689 0.99999998
vn -0.00006014 0.00009593 0.99999999
vn -0.00000416 0.00017689 0.99999998
vn 0.00007222 0.00007222 0.99999999
vn 0.00006014 0.00009593 0.99999999
vn -0.00000416 0.00017689 0.99999998
vn 0.00006014 0.00009593 0.99999999
vn -0.00002356 0.00010740 0.99999999
vn -0.00000416 0.00017689 0.99999998
vn -0.00002356 0.00010740 0.99999999
vn -0.00007054 0.00013328 0.99999999
vn -0.00000416 0.00017689 0.99999998
vn -0.00007054 0.00013328 0.99999999
vn 0.00000000 0.00025627 0.99999997
vn -0.00000416 0.00017689 0.99999998
vn 0.00000000 0.00025627 0.99999997
vn 0.00000416 0.00017689 0.99999998
vn -0.00006014 0.00009593 0.99999999
vn 0.00000416 0.00017689 0.99999998
vn 0.00002356 0.00010740 0.99999999
vn 0.00002356 0.00010740 0.99999999
vn 0.00000416 0.00017689 0.99999998
vn 0.00007054 0.00013328 0.99999999
vn 0.00007054 0.00013328 0.99999999
vn 0.00000416 0.00017689 0.99999998
vn 0.00000000 0.00025627 0.99999997
vn -0.00009428 -0.00009428 -0.99999999
vn 0.00000107 -0.00018944 -0.99999998
vn -0.00007752 -0.00012188 -0.99999999
vn -0.00000107 -0.00018944 -0.99999998
vn 0.00009428 -0.00009428 -0.99999999
vn 0.00007752 -0.00012188 -0.99999999
vn -0.00007752 -0.00012188 -0.99999999
vn 0.00000107 -0.00018944 -0.99999998
vn 0.00002422 -0.00012935 -0.99999999
vn 0.00002422 -0.00012935 -0.99999999
vn 0.00000107 -0.00018944 -0.99999998
vn 0.00008020 -0.00015013 -0.99999999
vn 0.00008020 -0.00015013 -0.99999999
vn 0.00000107 -0.00018944 -0.99999998
vn -0.00000000 -0.00026175 -0.99999997
vn -0.00000000 -0.00026175 -0.99999997
vn 0.00000107 -0.00018944 -0.99999998
vn -0.00000107 -0.00018944 -0.99999998
vn -0.00000000 -0.00026175 -0.99999997
vn -0.00000107 -0.00018944 -0.99999998
vn -0.00008020 -0.00015013 -0.99999999
vn -0.00008020 -0.00015013 -0.99999999
vn -0.00000107 -0.00018944 -0.99999998
vn -0.00002422 -0.00012935 -0.99999999
vn -0.00002422 -0.00012935 -0.99999999
vn -0.00000107 -0.00018944 -0.99999998
vn 0.00007752 -0.00012188 -0.99999999
vn 0.00000008 -0.00002384 1.00000000
vn -0.00000294 -0.00001694 1.00000000
vn 0.00001045 -0.00001633 1.00000000
vn 0.00001045 -0.00001633 1.00000000
vn 0.00001279 -0.00001279 1.00000000
vn 0.00000008 -0.00002384 1.00000000
vn -0.00000008 -0.00002384 1.00000000
vn -0.00001045 -0.00001633 1.00000000
vn 0.00000294 -0.00001694 1.00000000
vn -0.00001045 -0.00001633 1.00000000
vn -0.00000008 -0.00002384 1.00000000
vn -0.00001279 -0.00001279 1.00000000
vn -0.00000008 -0.00002384 1.00000000
vn 0.00000294 -0.00001694 1.00000000
vn 0.00001025 -0.00001911 1.00000000
vn -0.00000294 -0.00001694 1.00000000
vn 0.00000008 -0.00002384 1.00000000
vn -0.00001025 -0.00001911 1.00000000
vn -0.00001025 -0.00001911 1.00000000
vn 0.00000008 -0.00002384 1.00000000
vn 0.00000000 -0.00003225 1.00000000
vn 0.00000000 -0.00003225 1.00000000
vn 0.00000008 -0.00002384 1.00000000
vn -0.00000008 -0.00002384 1.00000000
vn 0.00000000 -0.00003225 1.00000000
vn -0.00000008 -0.00002384 1.00000000
vn 0.00001025 -0.00001911 1.00000000
vn -0.99058690 0.13685259 0.00299331
vn -0.99202150 0.12592661 0.00598622
vn -0.99058690 0.13685259 0.00299331
vn -0.98902314 0.14776073 0.00000000
vn -0.72896686 0.68454207 0.00307724
vn -0.73008929 0.68334698 0.00255822
vn -0.72896686 0.68454207 0.00307724
vn -0.72784228 0.68573514 0.00359625
vn -0.99801113 0.06296005 0.00313320
vn -0.99871922 0.05020621 0.00626586
vn -0.99801113 0.06296005 0.00313320
vn -0.99713041 0.07570300 0.00000000
vn -0.73654017 0.67638633 0.00318006
vn -0.73784562 0.67496437 0.00263421
vn -0.73654017 0.67638633 0.00318006
vn -0.73523175 0.67780557 0.00372591
vn 0.99801127 0.06296004 0.00308816
vn 0.99711136 0.07570197 0.00617578
vn 0.99801127 0.06296004 0.00308816
vn 0.99873882 0.05020723 0.00000000
vn 0.73654017 0.67638633 0.00318006
vn 0.73784562 0.67496437 0.00263421
vn 0.73654017 0.67638633 0.00318006
vn 0.73523175 0.67780557 0.00372591
vn 0.99058709 0.13685214 0.00294947
vn 0.99203934 0.12592838 0.00000000
vn 0.99058709 0.13685214 0.00294947
vn 0.98900594 0.14775810 0.00589855
vn 0.72896681 0.68454209 0.00308592
vn 0.72784464 0.68573738 0.00253630
vn 0.72896681 0.68454209 0.00308592
vn 0.73008680 0.68334475 0.00363552
vn 0.08895535 0.99595768 -0.01245975
vn -0.08895535 0.99595768 -0.01245975
vn 0.42094125 0.90700233 -0.01245975
vn 0.57501643 0.81804698 -0.01245975
vn 0.57501643 0.81804698 -0.01245975
vn 0.42094125 0.90700233 -0.01245975
vn 0.70705516 0.70705516 -0.01208316
vn 0.70705516 0.70705516 -0.01208316
vn -0.70705516 0.70705516 -0.01208316
vn -0.70705516 0.70705516 -0.01208316
vn -0.57501643 0.81804698 -0.01245975
vn -0.42094125 0.90700233 -0.01245975
vn -0.42094125 0.90700233 -0.01245975
vn -0.57501643 0.81804698 -0.01245975
vn -0.08895535 0.99595768 -0.01245975
vn 0.08895535 0.99595768 -0.01245975
vn 0.08895535 0.99595768 -0.01245975
vn 0.57501643 0.81804698 -0.01245975
vn 0.42094125 0.90700233 -0.01245975
vn -0.08895535 0.99595768 -0.01245975
vn 0.57501643 0.81804698 -0.01245975
vn 0.70705516 0.70705516 -0.01208316
vn 0.70705516 0.70705516 -0.01208316
vn 0.42094125 0.90700233 -0.01245975
vn -0.70705516 0.70705516 -0.01208316
vn -0.42094125 0.90700233 -0.01245975
vn -0.57501643 0.81804698 -0.01245975
vn -0.70705516 0.70705516 -0.01208316
vn -0.42094125 0.90700233 -0.01245975
vn 0.08895535 0.99595768 -0.01245975
vn -0.08895535 0.99595768 -0.01245975
vn -0.57501643 0.81804698 -0.01245975
vn -0.23121568 0.97290252 -0.00000000
vn -0.23121568 0.97290252 -0.00000000
vn -0.07897111 0.99687691 -0.00000000
vn 0.07897111 0.99687691 -0.00000000
vn 0.07897111 0.99687691 -0.00000000
vn -0.07897111 0.99687691 -0.00000000
vn 0.23121568 0.97290252 -0.00000000
vn 0.23121568 0.97290252 -0.00000000
vn -1.00000000 0.00000000 0.00000000
vn -1.00000000 0.00000000 0.00000000
vn -1.00000000 0.00000000 0.00000000
vn -1.00000000 0.00000000 0.00000000
vn 1.00000000 0.00000000 -0.00000000
vn 1.00000000 0.00000000 -0.00000000
vn 1.00000000 0.00000000 -0.00000000
vn 1.00000000 0.00000000 -0.00000000
vn 0.00000000 0.00001327 1.00000000
vn 0.00000000 0.00001327 1.00000000
vn 0.00000000 0.00001327 1.00000000
vn 0.00000000 0.00001327 1.00000000
vn 0.00000000 1.00000000 -0.00000000
vn 0.00000000 1.00000000 -0.00000000
vn 0.00000000 1.00000000 -0.00000000
vn 0.00000000 1.00000000 -0.00000000
vn 1.00000000 0.00000000 0.00000000
vn 1.00000000 0.00000000 0.00000000
vn 1.00000000 0.00000000 0.00000000
vn 1.00000000 0.00000000 0.00000000
vn -1.00000000 0.00000000 0.00000000
vn -1.00000000 0.00000000 0.00000000
vn -1.00000000 0.00000000 0.00000000
vn -1.00000000 0.00000000 0.00000000
vn 0.00000000 -1.00000000 0.00000000
vn 0.00000000 -1.00000000 0.00000000
vn 0.00000000 -1.00000000 0.00000000
vn 0.00000000 -1.00000000 0.00000000

g Type89_Cannon
f 12/1/1 6/2/2 8/3/3 10/4/4
f 4/5/5 14/6/6 16/7/7 2/8/8
f 14/9/9 4/10/10 6/11/11 12/12/12
f 2/13/13 16/14/14 15/15/15 1/16/16
f 4/17/17 2/18/18 1/19/19 3/20/20
f 6/21/21 4/22/22 3/23/23 5/24/24
f 8/25/25 6/26/26 5/27/27 7/28/28
f 10/29/29 8/30/30 7/31/31 9/32/32
f 12/33/33 10/34/34 9/35/35 11/36/36
f 14/37/37 12/38/38 11/39/39 13/40/40
f 16/41/41 14/42/42 13/43/43 15/44/44
f 22/45/45 56/46/46 25/47/47
f 60/48/48 20/49/49 27/50/50
f 27/51/51 20/52/52 42/53/53
f 42/54/54 20/55/55 41/56/56
f 41/57/57 20/58/58 45/59/59
f 45/60/60 20/61/61 22/62/62
f 45/63/63 22/64/64 44/65/65
f 44/66/66 22/67/67 43/68/68
f 43/69/69 22/70/70 25/71/71
f 54/72/72 21/73/73 26/74/74
f 19/75/75 51/76/76 28/77/77
f 19/78/78 28/79/79 38/80/80
f 19/81/81 38/82/82 37/83/83
f 19/84/84 37/85/85 40/86/86
f 19/87/87 40/88/88 21/89/89
f 26/90/90 21/91/91 32/92/92
f 32/93/93 21/94/94 39/95/95
f 39/96/96 21/97/97 40/98/98
f 53/99/99 18/100/100 30/101/101
f 17/102/102 52/103/103 23/104/104
f 30/105/105 18/106/106 34/107/107
f 34/108/108 18/109/109 33/110/110
f 33/111/111 18/112/112 46/113/113
f 46/114/114 18/115/115 17/116/116
f 46/117/117 17/118/118 36/119/119
f 36/120/120 17/121/121 35/122/122
f 35/123/123 17/124/124 23/125/125
f 57/126/126 48/127/127 24/128/128
f 24/129/129 55/130/130 57/131/131
f 58/132/132 29/133/133 31/134/134
f 29/135/135 58/136/136 59/137/137
f 58/138/138 31/139/139 47/140/140
f 48/141/141 57/142/142 49/143/143
f 49/144/144 57/145/145 50/146/146
f 50/147/147 57/148/148 58/149/149
f 50/150/150 58/151/151 47/152/152
f 24/153/153 23/154/154 52/155/155 55/156/156
f 35/157/157 23/158/158 24/159/159 48/160/160
f 26/161/161 25/162/162 56/163/163 54/164/164
f 43/165/165 25/166/166 26/167/167 32/168/168
f 27/169/169 28/170/170 51/171/171 60/172/172
f 28/173/173 27/174/174 42/175/175 38/176/176
f 59/177/177 53/178/178 30/179/179 29/180/180
f 31/181/181 29/182/182 30/183/183 34/184/184
f 40/185/185 45/186/186 44/187/187 39/188/188
f 39/189/189 44/190/190 43/191/191 32/192/192
f 38/193/193 42/194/194 41/195/195 37/196/196
f 37/197/197 41/198/198 45/199/199 40/200/200
f 46/201/201 36/202/202 49/203/203 50/204/204
f 36/205/205 35/206/206 48/207/207 49/208/208
f 34/209/209 33/210/210 47/211/211 31/212/212
f 33/213/213 46/214/214 50/215/215 47/216/216
f 68/217/217 69/218/218 61/219/219 62/220/220
f 62/221/221 61/222/222 70/223/223 67/224/224
f 70/225/225 65/226/226 63/227/227 67/228/228
f 64/229/229 66/230/230 69/231/231 68/232/232
f 73/233/233 71/234/234 72/235/235 74/236/236
f 78/237/237 72/238/238 71/239/239 75/240/240
f 71/241/241 73/242/242 77/243/243 75/244/244
f 74/245/245 72/246/246 78/247/247 76/248/248
f 77/249/249 73/250/250 74/251/251 76/252/252

