# RokuSuper Output Ver6.0 for Wavefront Obj

v -0.02000000 -0.02000000 -0.04000000
v 0.09000000 -0.02000000 -0.04000000
v -0.13000000 -0.02000000 -0.04000000
v -0.09000000 -0.02000000 -0.04000000
v -0.02000000 -0.02000000 0.04000000
v -0.09000000 -0.02000000 0.04000000
v -0.09000000 0.02000000 0.08000000
v -0.02000000 0.02000000 0.08000000
v 0.02000000 0.02000000 0.08000000
v 0.09000000 0.02000000 0.08000000
v 0.09000000 0.02000000 -0.08000000
v 0.02000000 0.02000000 -0.08000000
v -0.02000000 0.02000000 -0.08000000
v -0.09000000 0.02000000 -0.08000000
v 0.09000000 0.02000000 -0.04000000
v 0.02000000 0.02000000 -0.04000000
v -0.02000000 0.02000000 -0.04000000
v -0.09000000 0.02000000 -0.04000000
v 0.09000000 0.02000000 0.04000000
v 0.02000000 0.02000000 0.04000000
v -0.02000000 0.02000000 0.04000000
v -0.09000000 0.02000000 0.04000000
v 0.13000000 0.02000000 0.04000000
v 0.13000000 0.02000000 -0.04000000
v -0.13000000 0.02000000 0.04000000
v -0.13000000 0.02000000 -0.04000000
v -0.13000000 -0.02000000 0.04000000
v 0.13000000 -0.02000000 0.04000000
v 0.13000000 0.02000000 0.08000000
v -0.13000000 0.02000000 0.08000000
v 0.02000000 -0.02000000 0.04000000
v 0.09000000 -0.02000000 0.04000000
v 0.09000000 -0.02000000 0.08000000
v 0.02000000 -0.02000000 0.08000000
v -0.02000000 -0.02000000 0.08000000
v -0.09000000 -0.02000000 0.08000000
v 0.13000000 -0.02000000 -0.04000000
v 0.02000000 -0.02000000 -0.04000000
v -0.09000000 -0.02000000 -0.08000000
v -0.02000000 -0.02000000 -0.08000000
v 0.02000000 -0.02000000 -0.08000000
v 0.09000000 -0.02000000 -0.08000000
v 0.13000000 -0.02000000 0.08000000
v -0.13000000 -0.02000000 0.08000000
v 0.13000000 -0.04000000 -0.04000000
v -0.13000000 -0.04000000 -0.04000000
v -0.13000000 -0.02000000 -0.04000000
v 0.13000000 -0.02000000 -0.04000000
v -0.17000000 -0.04000000 0.04000000
v -0.13000000 -0.02000000 -0.06000000
v -0.13000000 -0.04000000 -0.06000000
v 0.13000000 -0.04000000 -0.06000000
v 0.13000000 -0.02000000 -0.06000000
v 0.17000000 -0.02000000 0.04000000
v -0.17000000 -0.02000000 0.04000000
v 0.17000000 -0.04000000 0.04000000
v -0.17000000 -0.02000000 0.08000000
v 0.17000000 -0.02000000 0.08000000
v -0.17000000 -0.04500000 0.08000000
v -0.17000000 -0.02000000 0.04000000
v 0.17000000 -0.02000000 0.04000000
v -0.17000000 -0.04500000 0.04000000
v 0.17000000 -0.04500000 0.04000000
v 0.17000000 -0.04500000 0.08000000

vt 0.72916495 0.07693344
vt 0.69648708 0.07693344
vt 0.69648708 0.09560651
vt 0.72916495 0.09560651
vt 0.67781401 0.07693344
vt 0.64513614 0.07693344
vt 0.64513614 0.09560651
vt 0.67781401 0.09560651
vt 0.84800088 0.03574973
vt 0.84800088 0.05617634
vt 0.86842750 0.05617634
vt 0.86842750 0.03574973
vt 0.84800088 0.03574973
vt 0.84800088 0.05617634
vt 0.86842750 0.05617634
vt 0.86842750 0.03574973
vt 0.67256781 0.23012417
vt 0.69142369 0.23012417
vt 0.69142369 0.21126829
vt 0.67256781 0.21126829
vt 0.62071415 0.23012417
vt 0.63957003 0.23012417
vt 0.63957003 0.21126829
vt 0.62071415 0.21126829
vt 0.86842750 0.05617634
vt 0.84800088 0.05617634
vt 0.84800088 0.03574973
vt 0.86842750 0.03574973
vt 0.86842750 0.05617634
vt 0.84800088 0.05617634
vt 0.84800088 0.03574973
vt 0.86842750 0.03574973
vt 0.72442148 0.23012417
vt 0.74327736 0.23012417
vt 0.74327736 0.21126829
vt 0.72442148 0.21126829
vt 0.78672103 0.05617634
vt 0.80714764 0.05617634
vt 0.80714764 0.03574973
vt 0.78672103 0.03574973
vt 0.78672103 0.05617634
vt 0.80714764 0.05617634
vt 0.80714764 0.03574973
vt 0.78672103 0.03574973
vt 0.80714764 0.03574973
vt 0.80714764 0.05617634
vt 0.78672103 0.05617634
vt 0.78672103 0.03574973
vt 0.80714764 0.03574973
vt 0.80714764 0.05617634
vt 0.78672103 0.05617634
vt 0.78672103 0.03574973
vt 0.72442148 0.23012417
vt 0.69142369 0.23012417
vt 0.69142369 0.21126829
vt 0.72442148 0.21126829
vt 0.67256781 0.23012417
vt 0.63957003 0.23012417
vt 0.63957003 0.21126829
vt 0.67256781 0.21126829
vt 0.63957003 0.21126829
vt 0.63957003 0.23012417
vt 0.67256781 0.23012417
vt 0.67256781 0.21126829
vt 0.69142369 0.21126829
vt 0.69142369 0.23012417
vt 0.72442148 0.23012417
vt 0.72442148 0.21126829
vt 0.74327736 0.21126829
vt 0.74327736 0.23012417
vt 0.72442148 0.23012417
vt 0.72442148 0.21126829
vt 0.69142369 0.21126829
vt 0.69142369 0.23012417
vt 0.67256781 0.23012417
vt 0.67256781 0.21126829
vt 0.63957003 0.21126829
vt 0.63957003 0.23012417
vt 0.62071415 0.23012417
vt 0.62071415 0.21126829
vt 0.72916495 0.07693344
vt 0.72916495 0.09560651
vt 0.69648708 0.09560651
vt 0.69648708 0.07693344
vt 0.67781401 0.07693344
vt 0.67781401 0.09560651
vt 0.64513614 0.09560651
vt 0.64513614 0.07693344
vt 0.62646307 0.03958730
vt 0.62646307 0.02091423
vt 0.64513614 0.02091423
vt 0.64513614 0.03958730
vt 0.67781401 0.03958730
vt 0.67781401 0.02091423
vt 0.69648708 0.02091423
vt 0.69648708 0.03958730
vt 0.72916495 0.03958730
vt 0.72916495 0.02091423
vt 0.74783802 0.02091423
vt 0.74783802 0.03958730
vt 0.74783802 0.03958730
vt 0.74783802 0.07693344
vt 0.72916495 0.07693344
vt 0.72916495 0.03958730
vt 0.72916495 0.03958730
vt 0.72916495 0.07693344
vt 0.69648708 0.07693344
vt 0.69648708 0.03958730
vt 0.69648708 0.03958730
vt 0.69648708 0.07693344
vt 0.67781401 0.07693344
vt 0.67781401 0.03958730
vt 0.67781401 0.03958730
vt 0.67781401 0.07693344
vt 0.64513614 0.07693344
vt 0.64513614 0.03958730
vt 0.64513614 0.03958730
vt 0.64513614 0.07693344
vt 0.62646307 0.07693344
vt 0.62646307 0.03958730
vt 0.78672103 0.03574973
vt 0.78672103 0.05617634
vt 0.80714764 0.05617634
vt 0.80714764 0.03574973
vt 0.80714764 0.03574973
vt 0.80714764 0.05617634
vt 0.84800088 0.05617634
vt 0.84800088 0.03574973
vt 0.84800088 0.03574973
vt 0.84800088 0.05617634
vt 0.80714764 0.05617634
vt 0.80714764 0.03574973
vt 0.80714764 0.03574973
vt 0.80714764 0.05617634
vt 0.78672103 0.05617634
vt 0.78672103 0.03574973
vt 0.62270201 0.16835700
vt 0.74462659 0.16835700
vt 0.74462659 0.17773581
vt 0.62270201 0.17773581
vt 0.62646307 0.07693344
vt 0.74783802 0.07693344
vt 0.74783802 0.07693344
vt 0.62646307 0.07693344
vt 0.60779000 0.03958730
vt 0.76651109 0.03958730
vt 0.74783802 0.07693344
vt 0.62646307 0.07693344
vt 0.62270201 0.16835700
vt 0.60394438 0.13084174
vt 0.76338421 0.13084174
vt 0.74462659 0.16835700
vt 0.62071415 0.21126829
vt 0.74327736 0.21126829
vt 0.74327736 0.20184035
vt 0.62071415 0.20184035
vt 0.80714764 0.03574973
vt 0.84800088 0.03574973
vt 0.84800088 0.02553642
vt 0.80714764 0.02553642
vt 0.84800088 0.02553642
vt 0.84800088 0.03574973
vt 0.80714764 0.03574973
vt 0.80714764 0.02553642
vt 0.84800088 0.03574973
vt 0.85821419 0.03574973
vt 0.85821419 0.02553642
vt 0.84800088 0.02553642
vt 0.85821419 0.02553642
vt 0.85821419 0.03574973
vt 0.84800088 0.03574973
vt 0.84800088 0.02553642
vt 0.74783802 0.08626998
vt 0.62646307 0.08626998
vt 0.62646307 0.07693344
vt 0.74783802 0.07693344
vt 0.60779000 0.02091423
vt 0.76651109 0.02091423
vt 0.76651109 0.03958730
vt 0.60779000 0.03958730
vt 0.76651109 0.03958730
vt 0.76651109 0.03958730
vt 0.60779000 0.03958730
vt 0.60779000 0.03958730
vt 0.60185827 0.19948337
vt 0.76213324 0.19948337
vt 0.76213324 0.21126829
vt 0.60185827 0.21126829
vt 0.76338421 0.11208412
vt 0.76338421 0.13084174
vt 0.60394438 0.13084174
vt 0.60394438 0.11208412
vt 0.80714764 0.03574973
vt 0.80714764 0.02298309
vt 0.78672103 0.02298309
vt 0.78672103 0.03574973
vt 0.78672103 0.03574973
vt 0.78672103 0.02298309
vt 0.80714764 0.02298309
vt 0.80714764 0.03574973

vn 0.00000000 -1.00000000 0.00000000
vn 0.00000000 -1.00000000 0.00000000
vn 0.00000000 -0.70710678 -0.70710678
vn 0.00000000 -0.70710678 -0.70710678
vn -0.00000000 -1.00000000 0.00000000
vn -0.00000000 -1.00000000 0.00000000
vn -0.00000000 -0.70710678 -0.70710678
vn -0.00000000 -0.70710678 -0.70710678
vn -1.00000000 0.00000000 0.00000000
vn -1.00000000 0.00000000 0.00000000
vn -1.00000000 0.00000000 0.00000000
vn -1.00000000 0.00000000 0.00000000
vn -1.00000000 0.00000000 0.00000000
vn -1.00000000 0.00000000 0.00000000
vn -1.00000000 0.00000000 0.00000000
vn -1.00000000 0.00000000 0.00000000
vn -0.00000000 0.00000000 -1.00000000
vn -0.00000000 0.00000000 -1.00000000
vn -0.00000000 0.00000000 -1.00000000
vn -0.00000000 0.00000000 -1.00000000
vn -0.00000000 0.00000000 -1.00000000
vn -0.00000000 0.00000000 -1.00000000
vn -0.00000000 0.00000000 -1.00000000
vn -0.00000000 0.00000000 -1.00000000
vn 1.00000000 -0.00000000 -0.00000000
vn 1.00000000 -0.00000000 -0.00000000
vn 1.00000000 -0.00000000 -0.00000000
vn 1.00000000 -0.00000000 -0.00000000
vn 1.00000000 -0.00000000 -0.00000000
vn 1.00000000 -0.00000000 -0.00000000
vn 1.00000000 -0.00000000 -0.00000000
vn 1.00000000 -0.00000000 -0.00000000
vn 0.00000000 0.00000000 -1.00000000
vn 0.00000000 0.00000000 -1.00000000
vn 0.00000000 0.00000000 -1.00000000
vn 0.00000000 0.00000000 -1.00000000
vn -1.00000000 0.00000000 0.00000000
vn -1.00000000 0.00000000 0.00000000
vn -1.00000000 0.00000000 0.00000000
vn -1.00000000 0.00000000 0.00000000
vn -1.00000000 0.00000000 0.00000000
vn -1.00000000 0.00000000 0.00000000
vn -1.00000000 0.00000000 0.00000000
vn -1.00000000 0.00000000 0.00000000
vn 1.00000000 -0.00000000 0.00000000
vn 1.00000000 -0.00000000 0.00000000
vn 1.00000000 -0.00000000 0.00000000
vn 1.00000000 -0.00000000 0.00000000
vn 1.00000000 -0.00000000 -0.00000000
vn 1.00000000 -0.00000000 -0.00000000
vn 1.00000000 -0.00000000 -0.00000000
vn 1.00000000 -0.00000000 -0.00000000
vn -0.00000000 -0.00000000 1.00000000
vn -0.00000000 -0.00000000 1.00000000
vn -0.00000000 -0.00000000 1.00000000
vn -0.00000000 -0.00000000 1.00000000
vn 0.00000000 -0.00000000 1.00000000
vn 0.00000000 -0.00000000 1.00000000
vn 0.00000000 -0.00000000 1.00000000
vn 0.00000000 -0.00000000 1.00000000
vn -0.00000000 -0.70710678 -0.70710678
vn -0.00000000 0.89442719 -0.44721360
vn -0.00000000 0.44721360 -0.89442719
vn -0.00000000 -0.70710678 -0.70710678
vn 0.00000000 -0.70710678 -0.70710678
vn 0.00000000 0.89442719 -0.44721360
vn 0.00000000 0.44721360 -0.89442719
vn 0.00000000 -0.70710678 -0.70710678
vn -0.00000000 -0.00000000 1.00000000
vn -0.00000000 0.89442719 0.44721360
vn -0.00000000 0.44721360 0.89442719
vn -0.00000000 -0.00000000 1.00000000
vn 0.00000000 -0.00000000 1.00000000
vn 0.00000000 0.89442719 0.44721360
vn 0.00000000 0.44721360 0.89442719
vn 0.00000000 -0.00000000 1.00000000
vn 0.00000000 -0.00000000 1.00000000
vn 0.00000000 0.89442719 0.44721360
vn 0.00000000 0.44721360 0.89442719
vn 0.00000000 -0.00000000 1.00000000
vn -0.00000000 1.00000000 -0.00000000
vn 0.00000000 0.44721360 -0.89442719
vn 0.00000000 0.89442719 -0.44721360
vn 0.00000000 1.00000000 -0.00000000
vn 0.00000000 1.00000000 -0.00000000
vn -0.00000000 0.44721360 -0.89442719
vn -0.00000000 0.89442719 -0.44721360
vn 0.00000000 1.00000000 -0.00000000
vn -0.00000000 1.00000000 -0.00000000
vn 0.00000000 0.44721360 0.89442719
vn 0.00000000 0.89442719 0.44721360
vn -0.00000000 1.00000000 0.00000000
vn 0.00000000 1.00000000 0.00000000
vn 0.00000000 0.44721360 0.89442719
vn 0.00000000 0.89442719 0.44721360
vn 0.00000000 1.00000000 0.00000000
vn 0.00000000 1.00000000 -0.00000000
vn -0.00000000 0.44721360 0.89442719
vn -0.00000000 0.89442719 0.44721360
vn 0.00000000 1.00000000 -0.00000000
vn 0.00000000 1.00000000 0.00000000
vn 0.00000000 1.00000000 0.00000000
vn 0.00000000 1.00000000 0.00000000
vn 0.00000000 1.00000000 0.00000000
vn -0.00000000 1.00000000 0.00000000
vn -0.00000000 1.00000000 0.00000000
vn -0.00000000 1.00000000 0.00000000
vn -0.00000000 1.00000000 0.00000000
vn 0.00000000 1.00000000 0.00000000
vn 0.00000000 1.00000000 0.00000000
vn 0.00000000 1.00000000 0.00000000
vn 0.00000000 1.00000000 0.00000000
vn 0.00000000 1.00000000 0.00000000
vn 0.00000000 1.00000000 0.00000000
vn 0.00000000 1.00000000 0.00000000
vn 0.00000000 1.00000000 0.00000000
vn -0.00000000 1.00000000 0.00000000
vn -0.00000000 1.00000000 0.00000000
vn -0.00000000 1.00000000 0.00000000
vn -0.00000000 1.00000000 0.00000000
vn -1.00000000 0.00000000 0.00000000
vn -1.00000000 0.00000000 0.00000000
vn -1.00000000 0.00000000 0.00000000
vn -1.00000000 0.00000000 0.00000000
vn -1.00000000 -0.00000000 0.00000000
vn -1.00000000 -0.00000000 0.00000000
vn -1.00000000 -0.00000000 0.00000000
vn -1.00000000 -0.00000000 0.00000000
vn 1.00000000 -0.00000000 -0.00000000
vn 1.00000000 -0.00000000 -0.00000000
vn 1.00000000 -0.00000000 -0.00000000
vn 1.00000000 0.00000000 -0.00000000
vn 1.00000000 0.00000000 -0.00000000
vn 1.00000000 0.00000000 -0.00000000
vn 1.00000000 0.00000000 -0.00000000
vn 1.00000000 0.00000000 -0.00000000
vn -0.00000000 -1.00000000 0.00000000
vn -0.00000000 -1.00000000 -0.00000000
vn -0.00000000 -0.89442719 -0.44721360
vn -0.00000000 -0.44721360 -0.89442719
vn -0.00000000 0.00000000 1.00000000
vn -0.00000000 0.00000000 1.00000000
vn -0.00000000 0.00000000 1.00000000
vn 0.00000000 0.00000000 1.00000000
vn 0.00000000 1.00000000 -0.00000000
vn -0.00000000 1.00000000 -0.00000000
vn 0.00000000 1.00000000 -0.00000000
vn 0.00000000 1.00000000 -0.00000000
vn -0.00000000 -1.00000000 0.00000000
vn 0.00000000 -1.00000000 0.00000000
vn -0.00000000 -1.00000000 0.00000000
vn -0.00000000 -1.00000000 -0.00000000
vn -0.00000000 -0.00000000 -1.00000000
vn -0.00000000 -0.00000000 -1.00000000
vn -0.00000000 -0.44721360 -0.89442719
vn -0.00000000 -0.89442719 -0.44721360
vn -0.89442719 -0.00000000 -0.44721360
vn -0.89442719 -0.00000000 -0.44721360
vn -0.89442719 -0.00000000 -0.44721360
vn -0.89442719 -0.00000000 -0.44721360
vn 0.89442719 -0.00000000 -0.44721360
vn 0.89442719 -0.00000000 -0.44721360
vn 0.89442719 -0.00000000 -0.44721360
vn 0.89442719 -0.00000000 -0.44721360
vn -1.00000000 -0.00000000 -0.00000000
vn -1.00000000 -0.00000000 -0.00000000
vn -1.00000000 -0.00000000 -0.00000000
vn -1.00000000 -0.00000000 -0.00000000
vn 1.00000000 0.00000000 0.00000000
vn 1.00000000 0.00000000 0.00000000
vn 1.00000000 0.00000000 0.00000000
vn 1.00000000 0.00000000 0.00000000
vn 0.00000000 1.00000000 0.00000000
vn 0.00000000 1.00000000 0.00000000
vn 0.00000000 1.00000000 0.00000000
vn 0.00000000 1.00000000 0.00000000
vn 0.00000000 1.00000000 0.00000000
vn 0.00000000 1.00000000 0.00000000
vn 0.00000000 1.00000000 0.00000000
vn 0.00000000 1.00000000 0.00000000
vn -0.00000000 -0.00000000 -1.00000000
vn -0.00000000 -0.00000000 -1.00000000
vn -0.00000000 -0.00000000 -1.00000000
vn -0.00000000 -0.00000000 -1.00000000
vn 0.00000000 -0.70710678 0.70710678
vn 0.00000000 -0.70710678 0.70710678
vn 0.00000000 0.00000000 1.00000000
vn 0.00000000 0.00000000 1.00000000
vn 0.00000000 -0.70710678 0.70710678
vn 0.00000000 -1.00000000 0.00000000
vn 0.00000000 -1.00000000 0.00000000
vn 0.00000000 -0.70710678 0.70710678
vn -1.00000000 0.00000000 0.00000000
vn -1.00000000 0.00000000 0.00000000
vn -1.00000000 0.00000000 0.00000000
vn -1.00000000 0.00000000 0.00000000
vn 1.00000000 0.00000000 0.00000000
vn 1.00000000 0.00000000 0.00000000
vn 1.00000000 0.00000000 0.00000000
vn 1.00000000 0.00000000 0.00000000

g Type89_Belt_Sp0120
f 2/1/1 38/2/2 41/3/3 42/4/4
f 1/5/5 4/6/6 39/7/7 40/8/8
f 38/9/9 16/10/10 12/11/11 41/12/12
f 4/13/13 18/14/14 14/15/15 39/16/16
f 17/17/17 16/18/18 38/19/19 1/20/20
f 26/21/21 18/22/22 4/23/23 3/24/24
f 11/25/25 15/26/26 2/27/27 42/28/28
f 13/29/29 17/30/30 1/31/31 40/32/32
f 15/33/33 24/34/34 37/35/35 2/36/36
f 8/37/37 21/38/38 5/39/39 35/40/40
f 10/41/41 19/42/42 32/43/43 33/44/44
f 6/45/45 22/46/46 7/47/47 36/48/48
f 31/49/49 20/50/50 9/51/51 34/52/52
f 19/53/53 20/54/54 31/55/55 32/56/56
f 21/57/57 22/58/58 6/59/59 5/60/60
f 39/61/61 14/62/62 13/63/63 40/64/64
f 41/65/65 12/66/66 11/67/67 42/68/68
f 43/69/69 29/70/70 10/71/71 33/72/72
f 34/73/73 9/74/74 8/75/75 35/76/76
f 36/77/77 7/78/78 30/79/79 44/80/80
f 15/81/81 11/82/82 12/83/83 16/84/84
f 17/85/85 13/86/86 14/87/87 18/88/88
f 25/89/89 30/90/90 7/91/91 22/92/92
f 21/93/93 8/94/94 9/95/95 20/96/96
f 19/97/97 10/98/98 29/99/99 23/100/100
f 23/101/101 24/102/102 15/103/103 19/104/104
f 19/105/105 15/106/106 16/107/107 20/108/108
f 20/109/109 16/110/110 17/111/111 21/112/112
f 21/113/113 17/114/114 18/115/115 22/116/116
f 22/117/117 18/118/118 26/119/119 25/120/120
f 44/121/121 30/122/122 25/123/123 27/124/124
f 27/125/125 25/126/126 26/127/127 3/128/128
f 37/129/129 24/130/130 23/131/131 28/132/132
f 28/133/133 23/134/134 29/135/135 43/136/136
f 45/137/137 46/138/138 51/139/139 52/140/140
f 46/141/141 45/142/142 48/143/143 47/144/144
f 55/145/145 54/146/146 48/147/147 47/148/148
f 45/149/149 56/150/150 49/151/151 46/152/152
f 50/153/153 53/154/154 52/155/155 51/156/156
f 55/157/157 47/158/158 46/159/159 49/160/160
f 45/161/161 48/162/162 54/163/163 56/164/164
f 47/165/165 50/166/166 51/167/167 46/168/168
f 52/169/169 53/170/170 48/171/171 45/172/172
f 53/173/173 50/174/174 47/175/175 48/176/176
f 57/177/177 58/178/178 61/179/179 60/180/180
f 61/181/181 63/182/182 62/183/183 60/184/184
f 59/185/185 64/186/186 58/187/187 57/188/188
f 59/189/189 62/190/190 63/191/191 64/192/192
f 60/193/193 62/194/194 59/195/195 57/196/196
f 58/197/197 64/198/198 63/199/199 61/200/200

