# RokuSuper Output Ver6.0 for Wavefront Obj

v -0.70000001 0.47340938 -3.71318603
v 0.70000001 0.47340938 -3.71318603
v 0.70000001 0.67161768 -3.88922188
v -0.70000001 0.67161768 -3.88922188
v 0.70000001 1.48638774 0.69355875
v 0.70000001 1.48638774 -0.69290118
v 0.70000001 1.23389043 -2.09725093
v 0.70000001 0.18638772 -2.09725093
v 0.70000001 0.18638772 0.69355713
v 0.70000001 0.30689964 0.95770060
v 0.63609396 0.48455491 1.34709346
v 0.70000001 1.08147278 0.95770060
v 0.70000001 0.18638772 -0.69290118
v 0.70000001 0.77451882 -2.85290660
v 0.70000001 0.18638772 -2.73681148
v -0.70000001 0.30689964 0.95770060
v -0.70000001 1.08147278 0.95770060
v -0.70000001 0.18638772 0.69355713
v -0.70000001 0.18638772 -2.09725093
v -0.70000001 1.23389043 -2.09725093
v -0.70000001 1.48638774 -0.69290118
v -0.70000001 0.18638772 -0.69290118
v -0.63609396 0.48455491 1.34709346
v -0.70000001 0.18638772 -2.73681148
v -0.70000001 1.48638774 0.69355875
v -0.70000001 0.77451882 -2.85290660
v -0.70000001 0.18638772 -3.10974988
v -0.70000001 0.27788865 -3.42091277
v 0.70000001 0.18638772 -3.10974988
v 0.70000001 0.27788865 -3.42091277

vt 0.63368179 0.08943486
vt 0.63368179 0.22008041
vt 0.63368179 0.19790926
vt 0.63368179 0.03361827
vt 0.63368179 0.19790926
vt 0.63368179 0.00000000
vt 0.63368179 0.03361827
vt 0.36631821 0.08943486
vt 0.63368179 0.08943486
vt 0.63368179 0.03361827
vt 0.36631821 0.03361827
vt 0.36631821 0.03361827
vt 0.63368179 0.03361827
vt 0.63368179 0.00000000
vt 0.36631821 0.00000000
vt 0.36631821 0.19790926
vt 0.36631821 0.22008041
vt 0.36631821 0.08943486
vt 0.36631821 0.03361827
vt 0.36631821 0.19790926
vt 0.36631821 0.03361827
vt 0.36631821 0.00000000
vt 0.63368179 0.19790926
vt 0.36631821 0.19790926
vt 0.36631821 0.00000000
vt 0.63368179 0.00000000
vt 0.36631821 0.14885887
vt 0.36631821 0.22008041
vt 0.63368179 0.22008041
vt 0.63368179 0.14885887
vt 0.63368179 0.14885887
vt 0.63368179 0.22008041
vt 0.63368179 0.08943486
vt 0.36631821 0.08943486
vt 0.36631821 0.22008041
vt 0.36631821 0.14885887
vt 0.36631821 0.34221983
vt 0.36631821 0.61041410
vt 0.36631821 0.61041410
vt 0.36631821 0.34221983
vt 0.36631821 0.34221983
vt 0.36631821 0.34221983
vt 0.36631821 0.22008041
vt 0.36631821 0.19790926
vt 0.36631821 0.87519187
vt 0.36631821 0.87519156
vt 0.36631821 0.61041410
vt 0.36631821 0.61041410
vt 0.36631821 0.87519156
vt 0.36631821 0.87519187
vt 0.36631821 0.92563610
vt 0.36631821 0.92563610
vt 0.36631821 0.92563610
vt 0.36631821 0.92563610
vt 0.37852260 1.00000000
vt 0.37852260 1.00000000
vt 0.62147740 1.00000000
vt 0.63368179 0.92563610
vt 0.36631821 0.92563610
vt 0.63368179 0.87519156
vt 0.36631821 0.87519156
vt 0.36631821 0.92563610
vt 0.63368179 0.92563610
vt 0.63368179 0.92563610
vt 0.63368179 0.92563610
vt 0.62147740 1.00000000
vt 0.63368179 0.87519156
vt 0.63368179 0.92563610
vt 0.63368179 0.92563610
vt 0.63368179 0.87519187
vt 0.36631821 0.87519187
vt 0.63368179 0.87519187
vt 0.63368179 0.92563610
vt 0.36631821 0.92563610
vt 0.37852260 1.00000000
vt 0.36631821 0.92563610
vt 0.63368179 0.92563610
vt 0.62147740 1.00000000
vt 0.63368179 0.87519187
vt 0.63368179 0.61041410
vt 0.63368179 0.61041410
vt 0.63368179 0.87519156
vt 0.63368179 0.34221983
vt 0.63368179 0.19790926
vt 0.63368179 0.22008041
vt 0.63368179 0.34221983
vt 0.63368179 0.34221983
vt 0.63368179 0.34221983
vt 0.63368179 0.61041410
vt 0.63368179 0.61041410
vt 0.36631821 0.61041410
vt 0.63368179 0.61041410
vt 0.63368179 0.34221983
vt 0.36631821 0.34221983
vt 0.63368179 0.22008041
vt 0.36631821 0.22008041
vt 0.36631821 0.34221983
vt 0.63368179 0.34221983
vt 0.63368179 0.34221983
vt 0.63368179 0.61041410
vt 0.36631821 0.61041410
vt 0.36631821 0.34221983
vt 0.63368179 0.19790926
vt 0.63368179 0.34221983
vt 0.36631821 0.34221983
vt 0.36631821 0.19790926
vt 0.63368179 0.87519187
vt 0.36631821 0.87519187
vt 0.36631821 0.61041410
vt 0.63368179 0.61041410
vt 0.36631821 0.87519156
vt 0.63368179 0.87519156
vt 0.63368179 0.61041410
vt 0.36631821 0.61041410
vt 0.63368179 0.08943486
vt 0.36631821 0.08943486
vt 0.36631821 0.14885887
vt 0.63368179 0.14885887

vn -1.00000000 -0.00000000 0.00000000
vn -1.00000000 -0.00000000 0.00000000
vn -1.00000000 0.00000000 0.00000000
vn -1.00000000 0.00000000 0.00000000
vn -1.00000000 0.00000000 0.00000000
vn -1.00000000 0.00000000 0.00000000
vn -1.00000000 0.00000000 0.00000000
vn -0.00000000 -0.88292378 -0.46951634
vn 0.00000000 -0.92610244 -0.37727215
vn -0.00000000 -0.78109373 -0.62441379
vn -0.00000000 -0.72498305 -0.68876671
vn -0.00000000 -0.72498305 -0.68876671
vn -0.00000000 -0.78109373 -0.62441379
vn -0.00000000 -0.66404916 -0.74768892
vn 0.00000000 -0.66404916 -0.74768892
vn 1.00000000 0.00000000 0.00000000
vn 1.00000000 -0.00000000 0.00000000
vn 1.00000000 -0.00000000 0.00000000
vn 1.00000000 0.00000000 0.00000000
vn 1.00000000 0.00000000 0.00000000
vn 1.00000000 0.00000000 0.00000000
vn 1.00000000 0.00000000 0.00000000
vn 0.00000000 0.99510639 -0.09880929
vn 0.00000000 0.99510639 -0.09880929
vn 0.00000000 0.99510639 -0.09880929
vn 0.00000000 0.99510639 -0.09880929
vn 0.00000000 -0.98979295 -0.14251288
vn 0.00000000 -1.00000000 0.00000000
vn 0.00000000 -1.00000000 0.00000000
vn 0.00000000 -0.98979295 -0.14251288
vn -1.00000000 -0.00000000 0.00000000
vn -1.00000000 -0.00000000 0.00000000
vn -1.00000000 -0.00000000 0.00000000
vn 1.00000000 -0.00000000 0.00000000
vn 1.00000000 -0.00000000 0.00000000
vn 1.00000000 -0.00000000 0.00000000
vn 1.00000000 0.00000000 0.00000000
vn 1.00000000 -0.00000000 -0.00000000
vn 1.00000000 -0.00000000 -0.00000000
vn 1.00000000 -0.00000000 0.00000000
vn 1.00000000 0.00000000 0.00000000
vn 1.00000000 -0.00000000 0.00000000
vn 1.00000000 0.00000000 0.00000000
vn 1.00000000 0.00000000 0.00000000
vn 1.00000000 -0.00000000 0.00000000
vn 1.00000000 0.00000000 0.00000000
vn 1.00000000 -0.00000000 -0.00000000
vn 1.00000000 -0.00000000 -0.00000000
vn 1.00000000 0.00000000 0.00000000
vn 1.00000000 0.00000000 0.00000000
vn 1.00000000 0.00000000 0.00000000
vn 1.00000000 0.00000000 0.00000000
vn 0.98679886 0.00000000 0.16195062
vn 0.98679886 0.00000000 0.16195062
vn 0.98679886 0.00000000 0.16195062
vn 0.00000000 -0.90978598 0.41507766
vn 0.00000000 -0.90978598 0.41507766
vn 0.00000000 -0.90978598 0.41507766
vn 0.00000000 -0.90978598 0.41507766
vn 0.00000000 -0.90978598 0.41507766
vn 0.00000000 -0.90978598 0.41507766
vn 0.00000000 -0.90978598 0.41507766
vn 0.00000000 -0.90978598 0.41507766
vn -0.98679886 0.00000000 0.16195062
vn -0.98679886 0.00000000 0.16195062
vn -0.98679886 0.00000000 0.16195062
vn -1.00000000 0.00000000 0.00000000
vn -1.00000000 0.00000000 0.00000000
vn -1.00000000 0.00000000 0.00000000
vn -1.00000000 0.00000000 0.00000000
vn 0.00000000 0.54636483 0.83754730
vn 0.00000000 0.54636483 0.83754730
vn 0.00000000 0.54636483 0.83754730
vn 0.00000000 0.54636483 0.83754730
vn 0.00000000 0.54636483 0.83754730
vn 0.00000000 0.54636483 0.83754730
vn 0.00000000 0.54636483 0.83754730
vn 0.00000000 0.54636483 0.83754730
vn -1.00000000 -0.00000000 0.00000000
vn -1.00000000 -0.00000000 -0.00000000
vn -1.00000000 -0.00000000 -0.00000000
vn -1.00000000 0.00000000 0.00000000
vn -1.00000000 0.00000000 0.00000000
vn -1.00000000 0.00000000 0.00000000
vn -1.00000000 0.00000000 0.00000000
vn -1.00000000 -0.00000000 0.00000000
vn -1.00000000 0.00000000 0.00000000
vn -1.00000000 -0.00000000 0.00000000
vn -1.00000000 -0.00000000 -0.00000000
vn -1.00000000 -0.00000000 -0.00000000
vn 0.00000000 -1.00000000 0.00000000
vn 0.00000000 -1.00000000 -0.00000000
vn 0.00000000 -1.00000000 0.00000000
vn 0.00000000 -1.00000000 0.00000000
vn 0.00000000 -1.00000000 0.00000000
vn 0.00000000 -1.00000000 0.00000000
vn 0.00000000 -1.00000000 0.00000000
vn 0.00000000 -1.00000000 0.00000000
vn 0.00000000 0.98421821 -0.17695908
vn 0.00000000 0.98421821 -0.17695908
vn 0.00000000 0.98421821 -0.17695908
vn 0.00000000 0.98421821 -0.17695908
vn 0.00000000 0.85449609 -0.51945782
vn 0.00000000 0.85449609 -0.51945782
vn 0.00000000 0.85449609 -0.51945782
vn 0.00000000 0.85449609 -0.51945782
vn 0.00000000 1.00000000 0.00000000
vn 0.00000000 1.00000000 0.00000000
vn 0.00000000 1.00000000 0.00000000
vn 0.00000000 1.00000000 0.00000000
vn 0.00000000 -1.00000000 -0.00000000
vn 0.00000000 -1.00000000 -0.00000000
vn 0.00000000 -1.00000000 -0.00000000
vn 0.00000000 -1.00000000 0.00000000
vn 0.00000000 -0.92610244 -0.37727215
vn -0.00000000 -0.88292378 -0.46951634
vn 0.00000000 -0.98979295 -0.14251288
vn 0.00000000 -0.98979295 -0.14251288

g Type89_Body_Collider_Lower
f 28/1/1 24/2/2 26/3/3 1/4/4
f 26/5/5 4/6/6 1/7/7
f 30/8/8 28/9/9 1/10/10 2/11/11
f 2/12/12 1/13/13 4/14/14 3/15/15
f 14/16/16 15/17/17 30/18/18 2/19/19
f 14/20/20 2/21/21 3/22/22
f 26/23/23 14/24/24 3/25/25 4/26/26
f 29/27/27 15/28/28 24/29/29 27/30/30
f 27/31/31 24/32/32 28/33/33
f 30/34/34 15/35/35 29/36/36
f 7/37/37 6/38/38 13/39/39 8/40/40
f 7/41/41 8/42/42 15/43/43 14/44/44
f 5/45/45 9/46/46 13/47/47 6/48/48
f 9/49/49 5/50/50 12/51/51 10/52/52
f 10/53/53 12/54/54 11/55/55
f 11/56/56 23/57/57 16/58/58 10/59/59
f 18/60/60 9/61/61 10/62/62 16/63/63
f 17/64/64 16/65/65 23/66/66
f 18/67/67 16/68/68 17/69/69 25/70/70
f 5/71/71 25/72/72 17/73/73 12/74/74
f 11/75/75 12/76/76 17/77/77 23/78/78
f 25/79/79 21/80/80 22/81/81 18/82/82
f 20/83/83 26/84/84 24/85/85 19/86/86
f 20/87/87 19/88/88 22/89/89 21/90/90
f 13/91/91 22/92/92 19/93/93 8/94/94
f 24/95/95 15/96/96 8/97/97 19/98/98
f 20/99/99 21/100/100 6/101/101 7/102/102
f 26/103/103 20/104/104 7/105/105 14/106/106
f 25/107/107 5/108/108 6/109/109 21/110/110
f 9/111/111 18/112/112 22/113/113 13/114/114
f 28/115/115 30/116/116 29/117/117 27/118/118

